<svg width="26" height="34" viewBox="0 0 26 34" fill="none" xmlns="http://www.w3.org/2000/svg">
<path d="M24.3333 0C23.5499 0 22.9167 0.63325 22.9167 1.41667V5.70775L14.3827 1.2495C14.2962 0.549667 13.7225 0 13 0C12.2775 0 11.7037 0.54825 11.6173 1.24808L3.08333 5.70775V1.41667C3.08333 0.634667 2.44867 0 1.66667 0C0.884667 0 0.25 0.63325 0.25 1.41667V23.9544C0.25 26.6008 1.70775 29.0063 4.05233 30.2317L9.719 33.1953C10.7461 33.7308 11.8723 33.9986 12.9986 33.9986C14.1248 33.9986 15.2525 33.7308 16.2782 33.1939L21.9448 30.2331C24.2908 29.0077 25.7486 26.6022 25.7486 23.9544V1.41667C25.75 0.634667 25.1167 0 24.3333 0ZM22.9167 17.7494L16.7372 14.5208L22.9167 11.2923V17.7494ZM11.5833 24.497C11.3977 24.4304 11.2079 24.3808 11.0308 24.2888L3.85967 20.5417L11.5833 16.5056V24.497ZM14.4167 16.5056L22.1403 20.5417L14.9677 24.2902C14.7907 24.3823 14.6022 24.4318 14.4167 24.4984V16.5056ZM14.4167 12.5375V4.46392L22.1403 8.5L14.4167 12.5361V12.5375ZM11.5833 4.46392V12.5375L3.85967 8.50142L11.5833 4.46392ZM9.26142 14.5208L3.08333 17.7494V11.2923L9.26142 14.5208ZM20.6344 27.7213L14.9677 30.6822C13.7352 31.3268 12.2619 31.3253 11.0308 30.6822L5.36417 27.7185C3.95742 26.9833 3.08333 25.5411 3.08333 23.953V23.3311L9.719 26.7977C10.7475 27.336 11.8737 27.6038 13 27.6038C14.1262 27.6038 15.2539 27.336 16.2796 26.7991L22.9167 23.3311V23.953C22.9167 25.5411 22.0426 26.9847 20.6358 27.7199L20.6344 27.7213Z" fill="white"/>
</svg>
