<svg width="34" height="34" viewBox="0 0 34 34" fill="none" xmlns="http://www.w3.org/2000/svg">
<g clip-path="url(#clip0_141_936)">
<path d="M31.8535 15.5476L16.9998 24.4613L2.14605 15.5476C1.82386 15.3543 1.43808 15.2969 1.07358 15.388C0.709068 15.4791 0.395689 15.7113 0.202379 16.0335C0.00906957 16.3557 -0.048336 16.7415 0.042791 17.106C0.133918 17.4705 0.366113 17.7839 0.688296 17.9772L16.2716 27.3272C16.492 27.4596 16.7442 27.5295 17.0012 27.5295C17.2583 27.5295 17.5105 27.4596 17.7308 27.3272L33.3141 17.9772C33.6363 17.7839 33.8685 17.4705 33.9596 17.106C34.0508 16.7415 33.9934 16.3557 33.8 16.0335C33.6067 15.7113 33.2934 15.4791 32.9289 15.388C32.5643 15.2969 32.1786 15.3543 31.8564 15.5476H31.8535Z" fill="white"/>
<path d="M31.8535 22.0193L16.9998 30.9315L2.14604 22.0193C1.98651 21.9236 1.80969 21.8602 1.62568 21.8328C1.44166 21.8054 1.25406 21.8146 1.07357 21.8597C0.893085 21.9048 0.723254 21.985 0.573774 22.0958C0.424294 22.2065 0.298092 22.3457 0.202375 22.5052C0.106658 22.6647 0.0432993 22.8415 0.0159171 23.0256C-0.0114651 23.2096 -0.00233474 23.3972 0.0427868 23.5777C0.133914 23.9422 0.366109 24.2555 0.688292 24.4489L16.2716 33.7989C16.492 33.9312 16.7442 34.0012 17.0012 34.0012C17.2583 34.0012 17.5105 33.9312 17.7308 33.7989L33.3141 24.4489C33.6363 24.2555 33.8685 23.9422 33.9596 23.5777C34.0508 23.2132 33.9933 22.8274 33.8 22.5052C33.6067 22.183 33.2934 21.9508 32.9288 21.8597C32.5643 21.7686 32.1786 21.826 31.8564 22.0193H31.8535Z" fill="white"/>
<path d="M17 20.9284C16.2359 20.928 15.4862 20.7199 14.8311 20.3263L0.687123 11.8391C0.477666 11.7131 0.304355 11.5351 0.184038 11.3224C0.0637202 11.1097 0.000488281 10.8694 0.000488281 10.625C0.000488281 10.3806 0.0637202 10.1403 0.184038 9.9276C0.304355 9.71486 0.477666 9.53686 0.687123 9.41091L14.8311 0.923664C15.4862 0.530155 16.2359 0.322266 17 0.322266C17.7642 0.322266 18.5139 0.530155 19.169 0.923664L33.313 9.41091C33.5224 9.53686 33.6957 9.71486 33.816 9.9276C33.9364 10.1403 33.9996 10.3806 33.9996 10.625C33.9996 10.8694 33.9364 11.1097 33.816 11.3224C33.6957 11.5351 33.5224 11.7131 33.313 11.8391L19.169 20.3263C18.5139 20.7199 17.7642 20.928 17 20.9284ZM4.17071 10.625L16.2917 17.8967C16.5058 18.0248 16.7506 18.0924 17 18.0924C17.2495 18.0924 17.4943 18.0248 17.7084 17.8967L29.8294 10.625L17.7084 3.35325C17.4943 3.22519 17.2495 3.15756 17 3.15756C16.7506 3.15756 16.5058 3.22519 16.2917 3.35325L4.17071 10.625Z" fill="white"/>
</g>
<defs>
<clipPath id="clip0_141_936">
<rect width="34" height="34" fill="white"/>
</clipPath>
</defs>
</svg>
