<svg width="34" height="34" viewBox="0 0 34 34" fill="none" xmlns="http://www.w3.org/2000/svg">
<g clip-path="url(#clip0_141_926)">
<path d="M34 31.167C34 32.7324 32.7321 34.0004 31.1667 34.0004C30.1212 34.0004 29.2173 33.4266 28.7257 32.5837H26.9167C24.5735 32.5837 22.6667 30.6769 22.6667 28.3337V21.2504C22.6667 20.4669 23.3013 19.8337 24.0833 19.8337C24.8653 19.8337 25.5 20.4669 25.5 21.2504V28.3337C25.5 29.1157 26.1361 29.7504 26.9167 29.7504H28.7257C29.2159 28.9074 30.1197 28.3337 31.1667 28.3337C32.7321 28.3337 34 29.6016 34 31.167ZM18.4167 28.7261V21.2504C18.4167 20.4669 17.782 19.8337 17 19.8337C16.218 19.8337 15.5833 20.4669 15.5833 21.2504V28.7261C14.7404 29.2163 14.1667 30.1201 14.1667 31.167C14.1667 32.7324 15.4346 34.0004 17 34.0004C18.5654 34.0004 19.8333 32.7324 19.8333 31.167C19.8333 30.1215 19.2596 29.2177 18.4167 28.7261ZM9.91667 19.8337C9.13467 19.8337 8.5 20.4669 8.5 21.2504V28.3337C8.5 29.1157 7.86392 29.7504 7.08333 29.7504H5.27425C4.78408 28.9074 3.88025 28.3337 2.83333 28.3337C1.26792 28.3337 0 29.6016 0 31.167C0 32.7324 1.26792 34.0004 2.83333 34.0004C3.87883 34.0004 4.78267 33.4266 5.27425 32.5837H7.08333C9.4265 32.5837 11.3333 30.6769 11.3333 28.3337V21.2504C11.3333 20.4669 10.6987 19.8337 9.91667 19.8337ZM29.75 16.2269C29.75 17.6138 29.3434 18.9525 28.5742 20.0972C28.1378 20.7474 28.3107 21.6272 28.9595 22.0635C29.6097 22.5027 30.4909 22.3256 30.9258 21.6782C32.0096 20.0632 32.5819 18.179 32.5819 16.2269C32.5819 11.5745 29.2754 7.53843 24.718 6.63035C24.3312 6.55243 24.0153 6.3116 23.8538 5.96735C21.8322 1.70177 17.1516 -0.67965 12.4652 0.180267C8.19825 0.96085 4.85208 4.36793 4.1395 8.6576C3.92983 9.9241 3.944 11.1906 4.182 12.4245C4.25 12.7773 4.09558 13.1754 3.77825 13.4643C2.27658 14.8286 1.41667 16.7737 1.41667 18.8024C1.41667 20.5803 2.06833 22.2888 3.25408 23.6119C3.53458 23.925 3.92133 24.0837 4.31092 24.0837C4.64667 24.0837 4.98525 23.9647 5.25583 23.7224C5.8395 23.2011 5.88767 22.3044 5.36633 21.7221C4.64667 20.9203 4.25142 19.8819 4.25142 18.8024C4.25142 17.5713 4.77417 16.3898 5.6865 15.5624C6.73058 14.6118 7.22075 13.2037 6.96717 11.8848C6.7915 10.9838 6.783 10.0544 6.93742 9.12227C7.44742 6.05518 9.93083 3.5236 12.9781 2.96543C16.4489 2.33502 19.7979 4.02227 21.2967 7.18143C21.8478 8.34168 22.8933 9.15485 24.1669 9.40702C27.4026 10.053 29.7514 12.9204 29.7514 16.2254L29.75 16.2269Z" fill="white"/>
</g>
<defs>
<clipPath id="clip0_141_926">
<rect width="34" height="34" fill="white"/>
</clipPath>
</defs>
</svg>
