<svg width="1440" height="660" viewBox="0 0 1440 660" fill="none" xmlns="http://www.w3.org/2000/svg">
<g clip-path="url(#clip0_315_236)">
<path opacity="0.6" d="M330.108 473.001L287.434 429.229H192.122V422.416H290.144L334.76 468.166L330.071 472.964L330.108 473.001ZM334.796 513.512L290.181 467.763H192.159V474.576H287.47L330.144 518.347L334.833 513.549L334.796 513.512ZM329.155 586.148H86.1146V592.961H329.155V586.148ZM-315.754 420.328H-89.0139L-17.4754 346.96H241.06L323.514 431.5L328.203 426.702L243.807 340.147H-20.2227L-91.7612 413.515H-318.501L-421.652 519.3H-576.487L-637.586 456.627H-727V463.44H-640.333L-579.234 526.113H-418.904L-315.754 420.328ZM-315.754 388.607H-89.0139L-17.4754 315.239H241.06L323.514 399.779L328.203 394.981L243.807 308.426H-20.2227L-91.7612 381.794H-318.501L-421.652 487.579H-576.487L-637.586 424.907H-727V431.72H-640.333L-579.234 494.392H-418.904L-315.754 388.607ZM337.031 780.502L332.342 775.703L249.888 860.243H-8.64746L-80.186 786.875H-306.963L-410.113 681.09H-570.443L-631.542 743.763H-718.209V750.576H-628.795L-567.696 687.904H-412.86L-309.71 793.688H-82.9332L-11.3947 867.056H252.635L337.031 780.502ZM337.031 812.223L332.342 807.424L249.888 891.964H-8.64746L-80.186 818.596H-306.963L-410.113 712.811H-570.443L-631.542 775.484H-718.209V782.297H-628.795L-567.696 719.624H-412.86L-309.71 825.409H-82.9332L-11.3947 898.777H252.635L337.031 812.223ZM-308.282 449.521H-88.1714L-13.0431 372.49H86.1146V365.677H-15.7904L-90.9187 442.708H-314.912V554.867H-308.282V449.485V449.521ZM-163.556 637.612H-414.362V573.584H-599.161L-646.121 525.417H-710.48V532.23H-648.868L-601.908 580.397H-420.992V644.425H-163.556V637.612ZM232.232 708.965H326.994V702.152H229.521L156.591 776.949H-10.8087L-127.366 657.428H-128.721C-130.186 657.428 -278.245 656.512 -424.545 656.036C-510.48 655.78 -579.014 655.707 -628.245 655.853C-723.19 656.146 -723.337 656.513 -724.509 659.443L-723.777 663.216L-721.396 660.798L-718.245 661.75C-718.648 663.142 -719.747 663.838 -720.407 663.985C-708.099 661.384 -329.673 662.996 -130.076 664.241L-13.5193 783.798H159.375L232.305 709.002L232.232 708.965ZM195.492 819.182H-11.1016L-79.3069 749.221H-296.816C-300.003 746.547 -312.75 733.14 -324.032 720.87L-328.868 725.521C-300.882 755.997 -299.527 755.997 -297.769 755.997H-82.0541L-13.8488 825.959H195.492V819.146V819.182ZM-52.6035 -115.592L-107.475 -213.062H-217.219L-272.091 -115.592L-217.219 -18.1222H-107.475L-52.6035 -115.592ZM-264.472 -115.592L-213.41 -206.286H-111.322L-60.2593 -115.592L-111.322 -24.8987H-213.41L-264.472 -115.592ZM-186.67 -277.896L-269.38 -362.729L-274.069 -357.93L-193.3 -275.075V-209.619H-186.67V-277.859V-277.896ZM-166.78 -277.896L-249.49 -362.729L-254.179 -357.93L-173.41 -275.075V-209.619H-166.78V-277.859V-277.896ZM-147.988 -277.896L-230.699 -362.729L-235.388 -357.93L-154.618 -275.075V-209.619H-147.988V-277.859V-277.896ZM-254.069 -145.079H-492.421L-551.542 -205.7H-672.787V-198.887H-554.289L-495.168 -138.266H-254.069V-145.079ZM-492.421 -83.8715H-254.069V-90.6844H-495.168L-554.289 -30.0634H-672.787V-23.2504H-551.542L-492.421 -83.8715ZM-164.582 -120.134H-690.48V-113.321H-164.582V-120.134ZM-228.501 -45.2278L-233.19 -50.0262L-316.194 35.0998H-635.205V41.9128H-313.446L-228.501 -45.1911V-45.2278ZM-202.128 22.9023V-22.7009H-208.758V20.0818L-301.835 115.537H-619.747V122.35H-299.087L-202.128 22.9023ZM-185.388 37.444L-184.435 36.4551V-20.4299H-191.065V33.7079C-231.615 76.5639 -292.421 140.042 -300.223 146.123H-618.612V152.936H-299.344C-297.586 152.936 -294.618 152.936 -185.388 37.4807V37.444ZM-273.959 218.905L-164.582 106.746V-21.5654H-171.212V103.926L-280.589 216.084V275.277H-652.897V282.09H-273.959V218.905ZM-332.494 183.521H-504.839V190.334H-339.124V246.999H-626.377V253.812H-332.494V183.558V183.521ZM141.463 106.746V2.24353H134.833V103.963L68.2757 172.202H-145.79V-21.5654H-152.42V178.979H71.0229L141.463 106.746ZM-253.52 238.758L-208.318 192.385L-213.007 187.587L-260.15 235.937V324.03H-655.132V330.843H-253.556V238.758H-253.52ZM86.2242 82.681H-73.7025L-133.629 21.2174V-20.4299H-140.259V24.0378L-76.4497 89.494H86.2242V82.681ZM6.66394 5.61334H-117.073V-21.5654H-123.703V12.4265H6.66394V5.61334ZM-83.9224 234.509H193.953V-45.0813L163.844 -75.9596H-82.7868V-69.1466H161.096L187.323 -42.2608V227.696H-90.5524V277.548H-83.9224V234.509ZM503.954 437.177L256.884 183.814V-130.61L179.265 -210.205V-461.188H172.635V-207.385L250.254 -127.79V186.634L499.265 442.012L503.954 437.214V437.177ZM140.364 -359.212H133.734V-138.266H-68.4278V-131.453H140.364V-359.212ZM96.7007 -211.084V-346.758H90.0707V-213.905L37.3233 -159.804H-78.4278V-152.991H40.0339L96.664 -211.084H96.7007ZM-8.64746 -336.429L-13.3362 -341.227L-138.172 -213.209L-133.483 -208.41L-8.64746 -336.429ZM-40.0029 -288.408H39.8141V-220.974H-12.1274V-214.161H46.4441V-295.185H-42.75L-123.812 -212.037L-119.124 -207.238L-40.0029 -288.372V-288.408ZM-160.296 950.204L-243.593 864.785H-244.985C-352.091 865.408 -632.201 866.617 -641.872 864.932L-642.714 868.192L-640.883 865.371L-644.546 871.012C-643.41 871.782 -640.407 873.869 -246.34 871.598L-165.021 955.003L-160.333 950.204H-160.296ZM88.4222 978.116H-178.684L-242.75 912.403H-635.205V919.216H-245.498L-181.432 984.929H88.4222V978.116ZM295.748 1008.26C310.62 992.584 389.119 911.671 391.719 909.766L389.851 906.945L388.532 905.041L387.983 904.125C384.686 906.359 300.327 993.683 291.939 1002.51H-613.154V1009.32H294.723L295.712 1008.3L295.748 1008.26ZM-475.864 1040.42H341.683L454.613 924.637L449.925 919.839L338.935 1033.65H-478.611L-543.813 1100.49H-625.315V1107.31H-541.066L-475.864 1040.46V1040.42ZM-324.509 1068.19H352.196L480.621 936.468V771.638H473.99V933.685L349.448 1061.41H-327.256L-444.106 1181.22H-626.414V1188.04H-441.359L-324.509 1068.22V1068.19ZM-412.458 1098.59L-417.146 1093.79L-483.007 1161.33H-617.513V1168.15H-480.26L-412.458 1098.59ZM-315.644 1105.04H-197.952L-179.161 1124.3H-83.6293L-44.9479 1084.63H359.411L508.826 931.377V730.247H502.196V928.557L356.664 1077.82H-47.6951L-86.3765 1117.49H-176.45L-195.241 1098.22H-318.391L-597.769 1384.74L-593.08 1389.53L-315.644 1105V1105.04ZM-80.6255 1183.2H-271.761V1379.2H-80.6255V1183.2ZM-265.095 1190.02H-87.219V1372.43H-265.095V1190.02ZM356.884 1172.1C419.705 1105.91 514.796 1006.91 521.683 1002.73C521.683 1002.73 521.17 1003.02 520.401 1003.02V996.211C518.496 996.211 514.577 996.211 351.206 1168.33L350.254 1169.32V1210.34H12.4515L-51.6146 1144.63H-146.889V1185.44H-140.259V1151.44H-54.3618L9.70422 1217.16H356.884V1172.07V1172.1ZM-442.421 1326.5L-306.816 1187.41H-190.26C-189.966 1190.02 -190.699 1196.46 -192.091 1202.51L-185.644 1204.08C-183.849 1196.28 -182.311 1186.21 -185.168 1182.51C-186.084 1181.3 -187.402 1180.64 -188.867 1180.64H-309.564L-449.051 1323.71V1462.79H-442.421V1326.53V1326.5ZM-350.186 1291.66H-269.527V1284.85H-356.816V1452.54H-350.186V1291.62V1291.66ZM311.06 1344.37L252.232 1284.04H-83.8857V1290.86H249.485L304.43 1347.23V1454.04H311.06V1344.41V1344.37ZM311.06 1321.73L252.232 1261.41H-83.8857V1268.22H249.485L304.43 1324.59V1431.4H311.06V1321.77V1321.73ZM311.06 1361.37L252.232 1301.04H-83.8857V1307.85H249.485L304.43 1364.22V1471.03H311.06V1361.4V1361.37ZM414.357 1189.14L560.73 1038.99V730.247H554.1V1036.17L407.727 1186.32V1429.06H414.357V1189.14ZM460.73 1211.81L598.826 1070.16V732.518H592.196V1067.34L454.1 1208.99V1417.74H460.73V1211.81ZM482.269 1295.07L637.617 1135.73C639.156 1134.16 640.657 1132.62 640.547 1052.33H633.917C633.99 1113.42 633.038 1128.33 632.416 1131.45L475.602 1292.25V1413.2H482.232V1295.07H482.269ZM511.023 1295.07L666.372 1135.73C668.057 1134.01 670.108 1131.88 669.009 991.668C668.46 923.062 667.361 732.005 667.361 731.309L660.731 731.419C662.416 836.874 663.917 1118.52 661.207 1131.41L504.393 1292.21V1413.16H511.023V1295.03V1295.07ZM953.478 1186.32L807.104 1036.17V730.247H800.474V1038.99L946.848 1189.14V1429.06H953.478V1186.32ZM907.068 1208.99L768.972 1067.34V732.518H762.342V1070.16L900.438 1211.81V1417.74H907.068V1208.99ZM885.529 1292.28L728.716 1131.48C727.947 1127.53 726.482 1103.46 727.69 974.197L721.06 974.123C719.595 1131.74 721.793 1133.97 723.551 1135.77L878.899 1295.1V1413.23H885.529V1292.28ZM856.812 1292.28L699.998 1131.48C697.288 1118.55 698.789 836.947 700.474 731.492L693.844 731.382C693.844 732.078 692.745 923.099 692.196 991.742C691.097 1131.96 693.148 1134.08 694.833 1135.8L850.182 1295.14V1413.27H856.812V1292.32V1292.28ZM571.207 1399.57L570.108 1302.98L644.577 1226.61L639.888 1221.81L563.441 1300.2L564.577 1399.64L571.207 1399.57ZM784.43 1296.5H682.782V1303.31H777.8V1425.69H784.43V1296.53V1296.5ZM678.643 131.691C680.328 -17.5728 677.287 -20.7961 675.456 -22.7009L674.247 -23.8364H673.331C669.668 -25.7777 651.903 -41.8579 575.859 -124.42C573.807 -126.654 572.306 -128.266 571.463 -129.182C569.961 -143.174 570.804 -311.375 571.72 -423.203L565.089 -423.277C565.089 -422.544 564.467 -349.139 564.174 -276.357C563.551 -127.716 564.54 -126.691 566.078 -125.116C566.371 -124.786 568.166 -122.881 571.023 -119.768C647.983 -36.1804 665.199 -20.6131 670.474 -17.7194C674.21 -0.979919 671.976 345.275 669.485 456.664L676.115 456.811C676.115 456.078 677.727 204.766 678.569 131.691H678.643ZM643.881 -0.869995C643.881 -2.70145 643.881 -6.54749 551.902 -96.655V-389.212H545.273V-93.7247L546.298 -92.7357C579.302 -60.3923 632.379 -7.4632 637.251 -0.100739V35.6859H513.807V42.4988H643.881V-0.833282V-0.869995ZM641.39 153.229L583.917 94.2925H465.712V-498H459.082V101.105H581.17L634.76 156.049V449.118H641.39V153.229ZM604.906 200.81L548.276 142.716H409.375V149.529H545.566L598.313 203.63V378.754H604.943V200.81H604.906ZM558.533 233.117L489.485 162.276H381.207V-251.852L426.774 -298.591V-399.431H420.144V-301.412L374.576 -254.673V169.089H486.738L551.902 235.937V404.211H558.533V233.153V233.117ZM493.698 337.18L342.269 177.843V-154.419L251.536 -247.457V-457.232H244.906V-244.637L335.639 -151.599V180.664L489.009 341.978L493.698 337.18ZM500.511 -368.846H493.881V-95.2265H500.511V-368.846ZM720.108 -41.3817L626.482 -137.423V-445.327H619.852V-134.603L713.478 -38.5613V485.601H720.108V-41.3817ZM744.137 -49.0373L644.723 -151.013V-375.659H638.093V-148.192L737.507 -46.2167V132.533H744.137V-49.0373ZM1360.84 725.009H1265.53L1221.98 680.321L1220.73 680.248C1212.93 679.809 1126.92 680.248 1123.26 680.248V687.061C1124.14 687.061 1206.04 686.658 1219.12 687.024L1262.82 731.822H1360.84V725.009ZM1360.84 679.699H1265.53L1221.9 634.938H1149.71V641.751H1219.16L1262.78 686.512H1360.8V679.699H1360.84ZM1644.72 740.686H1871.5L1974.65 634.901H2129.49L2190.59 697.573H2280V690.76H2193.33L2132.23 628.088H1971.9L1868.75 733.873H1641.98L1570.44 807.241H1287.03L1233.19 752.004H977.764V758.817H1230.44L1284.28 814.054H1573.19L1644.72 740.686ZM1644.72 772.407H1871.5L1974.65 666.622H2129.49L2190.59 729.294H2280V722.481H2193.33L2132.23 659.809H1971.9L1868.75 765.594H1641.98L1570.44 838.962H1382.86V845.775H1573.19L1644.72 772.407ZM2184.51 410.475H2271.17V403.662H2181.76L2120.66 466.334H1965.82L1862.67 360.549H1635.93L1564.4 287.181H1300.36L1216.96 372.71H999.302V379.523H1219.71L1303.11 293.994H1561.65L1633.19 367.362H1859.93L1963.08 473.147H2123.41L2184.51 410.475ZM2184.51 378.754H2271.17V371.941H2181.76L2120.66 434.613H1965.82L1862.67 328.829H1635.93L1564.4 255.461H1300.36L1215.97 342.015L1220.66 346.813L1303.11 262.273H1561.65L1633.19 335.641H1859.93L1963.08 441.426H2123.41L2184.51 378.754ZM1643.92 711.529H1867.91V599.371H1861.28V704.753H1641.17L1566.04 781.784H1466.89V788.597H1568.79L1643.92 711.566V711.529ZM2263.44 622.008H2201.83L2154.87 573.84H1973.96V509.813H1716.74C1702.82 508.238 1476.26 509.557 1436.48 509.813V455.162L1484.25 406.152H1540.88V465.638H1547.51V399.34H1481.5L1429.85 452.305V516.626H1433.19C1542.97 515.93 1708.83 515.344 1715.9 516.553L1716.23 516.626H1967.33V580.653H2152.12L2199.08 628.821H2263.44V622.008ZM2181.25 498.385C2276.19 498.092 2276.34 497.725 2277.51 494.795L2276.78 491.022L2274.4 493.44L2271.28 492.487C2271.69 491.095 2272.78 490.4 2273.44 490.253C2261.14 492.854 1882.71 491.242 1683.11 489.997L1566.56 370.439H1393.66L1320.73 445.236H924.833V452.049H1323.48L1396.41 377.252H1563.81L1680.37 496.773H1681.72C1683.19 496.773 1831.25 497.689 1977.55 498.165C2033.33 498.348 2081.79 498.421 2122.38 498.421C2144.32 498.421 2163.96 498.421 2181.25 498.348V498.385ZM1914.47 462.158C1853.85 398.241 1852.6 398.241 1850.77 398.241H1635.05L1566.85 328.279H1357.51V335.092H1564.1L1632.31 405.054H1849.71C1855.31 409.962 1888.9 444.979 1909.71 466.92L1914.47 462.195V462.158ZM1758.13 1272.39L1703.26 1174.92H1593.52L1538.64 1272.39L1593.52 1369.86H1703.26L1758.13 1272.39ZM1546.3 1272.39L1597.36 1181.7H1699.45L1750.51 1272.39L1699.45 1363.09H1597.36L1546.3 1272.39ZM1760.11 1514.73L1679.34 1431.88V1366.42H1672.71V1434.7L1755.42 1519.53L1760.11 1514.73ZM1740.22 1514.73L1659.45 1431.88V1366.42H1652.82V1434.7L1735.53 1519.53L1740.22 1514.73ZM1721.43 1514.73L1640.66 1431.88V1366.42H1634.03V1434.7L1716.74 1519.53L1721.43 1514.73ZM2158.83 1355.65H2040.33L1981.21 1295.03H1740.11V1301.84H1978.46L2037.58 1362.46H2158.83V1355.65ZM2040.33 1186.83H2158.83V1180.02H2037.58L1978.46 1240.64H1740.11V1247.45H1981.21L2040.33 1186.83ZM2176.48 1270.12H1650.62V1276.94H2176.48V1270.12ZM1802.23 1121.7H2121.25V1114.89H1799.49L1714.54 1201.99L1719.23 1206.79L1802.23 1121.67V1121.7ZM1694.8 1136.68L1787.88 1041.23H2105.79V1034.41H1785.13L1688.17 1133.86V1179.47H1694.8V1136.68ZM1677.11 1123.06C1717.66 1080.2 1778.46 1016.72 1786.26 1010.64H2104.65V1003.83H1785.35C1783.59 1003.83 1780.62 1003.83 1671.39 1119.28L1670.44 1120.27V1177.16H1677.07V1123.02L1677.11 1123.06ZM1657.25 1052.84L1766.63 940.681V881.488H2138.94V874.675H1760V937.86L1650.62 1050.02V1178.33H1657.25V1052.84ZM1990.88 966.468H1825.16V909.803H2112.42V902.99H1818.53V973.244H1990.88V966.431V966.468ZM1638.46 977.786H1415.02L1344.58 1050.02V1154.52H1351.21V1052.84L1417.76 984.562H1631.83V1178.33H1638.46V977.786ZM1746.15 920.865V832.772H2141.14V825.959H1739.56V918.044L1704.83 953.684L1709.52 958.483L1746.19 920.865H1746.15ZM1626.3 1132.76L1562.49 1067.31H1399.82V1074.12H1559.74L1619.67 1135.58V1177.23H1626.3V1132.76ZM1609.74 1144.34H1479.38V1151.15H1603.11V1178.33H1609.74V1144.34ZM1568.86 1225.95H1324.98L1298.75 1199.06V929.106H1576.59V879.254H1569.96V922.293H1292.12V1201.88L1322.23 1232.76H1568.86V1225.95ZM1313.37 1364.19L1235.75 1284.59V970.167L1075.27 805.593H967.837V812.406H1072.53L1229.12 973.024V1287.45L1306.74 1367.04V1618.03H1313.37V1364.22V1364.19ZM1352.31 1295.03H1554.47V1288.22H1345.68V1515.98H1352.31V1295.03ZM1395.93 1370.67L1448.68 1316.57H1564.43V1309.76H1445.93L1389.3 1367.85V1503.52H1395.93V1370.67ZM1624.21 1369.97L1619.52 1365.18L1494.69 1493.19L1499.38 1497.99L1624.21 1369.97ZM1609.85 1368.84L1605.16 1364.04L1526.04 1445.21H1446.23V1377.81H1498.17V1371H1439.6V1452.02H1528.79L1609.85 1368.88V1368.84ZM1609.19 274.178C1716.3 273.555 1996.41 272.346 2006.08 274.068L2006.92 270.808L2005.09 273.628L2008.75 267.988C2007.62 267.218 2004.62 265.167 1610.55 267.401L1529.23 183.997L1524.54 188.795L1607.84 274.215H1609.23L1609.19 274.178ZM2006.89 219.784H1617.18L1553.11 154.071H1283.26V160.884H1550.37L1614.43 226.597H2006.89V219.784ZM1079.71 136.489H1984.8V129.676H1076.92L1075.93 130.702C1061.06 146.379 1036.48 171.983 1033.92 173.887L1035.79 176.708L1033.95 173.887L1037.62 179.528C1040.91 177.294 1071.35 145.28 1079.71 136.489ZM1032.75 105.354H1850.29L1915.49 38.5063H1997V31.6932H1912.75L1847.54 98.5413H1030L971.024 159.016L975.713 163.814L1032.75 105.318V105.354ZM897.691 205.315L1022.23 77.5529H1698.9L1815.75 -42.2608H1998.06V-49.0738H1813L1696.15 70.7399H1019.49L891.061 202.458V464.613H897.691V205.242V205.315ZM1854.69 -4.56952H1989.19V-11.3825H1851.94L1784.14 58.1761L1788.83 62.9745L1854.69 -4.56952ZM1015.05 61.1431H1419.41L1458.09 21.4738H1548.17L1566.96 40.7406H1690.15L2035.86 -313.829L2031.17 -318.627L1687.4 33.9643H1569.71L1550.92 14.6974H1455.38L1416.7 54.3667H1012.34L902.343 167.184L907.031 171.983L1015.09 61.1431H1015.05ZM1643.41 -240.241H1452.27V-44.2388H1643.41V-240.241ZM1458.94 -233.428H1636.81V-51.0152H1458.94V-233.428ZM854.614 460.034C853.075 409.852 851.5 150.115 853.845 141.434C860.878 136.086 889.229 108.907 1020.51 -29.3674L1021.46 -30.3564V-71.381H1359.27L1423.33 -5.66833H1518.61V-46.4732H1511.98V-12.4814H1426.08L1362.01 -78.194H1014.83V-33.1035C952.013 33.0852 856.921 132.094 850.035 136.269C850.035 136.269 850.548 135.976 851.317 135.976L848.753 137.112C847.178 138.76 845.236 140.811 846.372 212.495C846.921 247.256 847.984 459.961 848.02 460.29L854.65 460.07L854.614 460.034ZM851.5 142.716C851.83 142.716 852.379 142.496 853.698 141.507C853.331 142.02 852.562 142.643 851.5 142.716ZM1820.73 -166.873V-305.954H1814.1V-169.693L1678.5 -30.6129H1561.94C1561.65 -33.2135 1562.38 -39.6602 1563.77 -45.7039L1557.32 -47.279C1555.53 -39.477 1553.99 -29.404 1556.85 -25.7044C1557.76 -24.4957 1559.08 -23.8364 1560.55 -23.8364H1681.24L1820.73 -166.91V-166.873ZM1728.5 -295.771H1721.87V-134.896H1641.21V-128.083H1728.5V-295.771ZM1455.6 -151.855H1122.23L1067.29 -208.227V-315.038H1060.66V-205.407L1119.49 -145.079H1455.6V-151.892V-151.855ZM1455.6 -129.218H1122.23L1067.29 -185.59V-292.401H1060.66V-182.77L1119.49 -122.442H1455.6V-129.255V-129.218ZM1455.6 -168.851H1122.23L1067.29 -225.223V-332.034H1060.66V-222.403L1119.49 -162.075H1455.6V-168.888V-168.851ZM1026.96 1037.89H904.87L851.28 982.951V738.195H844.65V985.771L902.123 1044.71H1020.33V1637H1026.96V1037.89ZM1059.63 989.434H940.474L887.727 935.333V739.88H881.097V938.154L937.727 996.247H1053V1094.82H1059.63V989.434ZM1065.9 1440.41L1111.46 1393.67V969.911H999.302L934.138 903.063V739.88H927.507V905.883L996.555 976.724H1104.83V1390.85L1059.27 1437.59V1538.43H1065.9V1440.41ZM1241.13 1401.44L1150.4 1308.4V976.138L1050.84 874.016L1046.15 878.814L1143.77 978.958V1311.22L1234.5 1404.26V1614.03H1241.13V1401.44ZM1225.75 568.09H1466.92V561.277H1221.98L1202.6 594.829H1124.94V601.642H1206.37L1225.75 568.09ZM1554.14 694.24H1425.42L1346.08 612.85H1285.05V619.663H1343.33L1422.67 701.053H1554.14V694.24ZM1668.5 545.526H1927.03V611.825H2082.82V605.012H1933.66V538.713H1661.87V623.693H1668.5V545.526ZM795.493 -118.999H788.863V513.476H795.493V-118.999ZM795.09 -112.332C803.478 -113.138 811.024 -117.241 816.408 -123.87C821.793 -130.5 824.321 -138.888 823.515 -147.496C822.745 -156.067 818.753 -163.833 812.269 -169.364C805.786 -174.858 797.617 -177.459 789.229 -176.653C780.841 -175.847 773.295 -171.745 767.91 -165.115C756.811 -151.416 758.679 -131.013 772.013 -119.658C777.727 -114.786 784.76 -112.222 792.049 -112.222C793.038 -112.222 794.027 -112.259 795.016 -112.369L795.09 -112.332ZM808.057 -164.126C813.148 -159.767 816.335 -153.65 816.921 -146.874C817.544 -140.097 815.529 -133.467 811.28 -128.229C807.031 -122.991 801.06 -119.768 794.467 -119.145C787.874 -118.523 781.39 -120.574 776.298 -124.896C765.749 -133.87 764.284 -149.987 773.038 -160.793C777.287 -166.03 783.258 -169.254 789.852 -169.877C790.621 -169.95 791.427 -169.987 792.196 -169.987C797.984 -169.987 803.515 -167.935 808.02 -164.089L808.057 -164.126ZM793.844 -396.025H787.214V-171.671H793.844V-396.025ZM1088.68 -348.59L1083.99 -353.388L876.995 -141.086H820.365V-134.273H879.742L1088.68 -348.553V-348.59ZM889.302 -53.6158L888.167 -54.6414C854.43 -85.1535 818.643 -120.317 817.141 -126.361C817.141 -126.361 817.141 -126.251 817.141 -126.068H810.511C810.511 -117.241 855.163 -75.4468 882.636 -50.539V1.65744H889.266V-53.6158H889.302ZM90.3635 589.444C90.3635 576.807 80.327 566.515 67.9826 566.515C55.6383 566.515 45.6017 576.807 45.6017 589.444C45.6017 602.082 55.6383 612.374 67.9826 612.374C80.327 612.374 90.3635 602.082 90.3635 589.444ZM83.7335 589.444C83.7335 598.345 76.6639 605.598 67.9826 605.598C59.3013 605.598 52.2316 598.345 52.2316 589.444C52.2316 580.544 59.3013 573.291 67.9826 573.291C76.6639 573.291 83.7335 580.544 83.7335 589.444ZM667.947 1227.82C672.416 1223.75 675.053 1218.15 675.419 1212.03C675.786 1205.91 673.771 1200.01 669.815 1195.44C665.859 1190.86 660.364 1188.15 654.394 1187.78C642.013 1187.01 631.463 1196.72 630.767 1209.36C630.035 1221.99 639.485 1232.87 651.793 1233.6C652.232 1233.6 652.672 1233.64 653.111 1233.64C658.606 1233.64 663.808 1231.63 667.947 1227.85V1227.82ZM653.991 1194.56C662.672 1195.07 669.302 1202.73 668.789 1211.63C668.533 1215.95 666.665 1219.87 663.551 1222.76C660.401 1225.62 656.408 1227.05 652.159 1226.83C643.478 1226.31 636.848 1218.66 637.36 1209.76C637.837 1201.19 644.797 1194.56 653.075 1194.56C653.368 1194.56 653.698 1194.56 653.991 1194.56ZM1049.41 882.184C1053.88 878.118 1056.52 872.514 1056.89 866.397C1057.62 853.76 1048.17 842.881 1035.86 842.149C1029.89 841.782 1024.14 843.834 1019.67 847.9C1015.2 851.965 1012.56 857.569 1012.2 863.687C1011.83 869.804 1013.84 875.701 1017.8 880.279C1021.76 884.858 1027.25 887.569 1033.22 887.935C1033.66 887.935 1034.1 887.972 1034.54 887.972C1040.03 887.972 1045.24 885.957 1049.38 882.184H1049.41ZM1035.46 848.925C1044.14 849.438 1050.77 857.093 1050.26 865.994C1049.74 874.895 1042.34 881.635 1033.62 881.159C1029.41 880.902 1025.57 878.998 1022.78 875.774C1020 872.551 1018.57 868.412 1018.83 864.089C1019.08 859.767 1020.95 855.848 1024.06 852.954C1026.96 850.317 1030.66 848.888 1034.5 848.888C1034.8 848.888 1035.13 848.888 1035.46 848.888V848.925ZM1380.51 859.255C1384.98 855.189 1387.62 849.584 1387.98 843.467C1388.72 830.83 1379.27 819.951 1366.96 819.219C1360.99 818.853 1355.24 820.904 1350.77 824.969C1346.3 829.035 1343.66 834.64 1343.3 840.757C1342.93 846.874 1344.94 852.771 1348.9 857.35C1352.86 861.928 1358.35 864.639 1364.32 865.005C1364.76 865.005 1365.2 865.042 1365.64 865.042C1371.13 865.042 1376.34 863.027 1380.48 859.255H1380.51ZM1366.56 825.995C1375.24 826.508 1381.87 834.163 1381.35 843.064C1380.84 851.965 1373.48 858.705 1364.72 858.229C1360.51 857.972 1356.67 856.068 1353.88 852.844C1351.1 849.621 1349.67 845.482 1349.93 841.16C1350.18 836.837 1352.05 832.918 1355.16 830.024C1358.06 827.387 1361.76 825.959 1365.6 825.959C1365.9 825.959 1366.23 825.959 1366.56 825.959V825.995ZM1060.84 1130.35C1065.68 1128.88 1069.67 1125.62 1072.05 1121.08C1074.47 1116.54 1075.02 1111.34 1073.59 1106.39C1070.66 1096.17 1060.18 1090.31 1050.22 1093.28C1040.26 1096.28 1034.54 1107.01 1037.43 1117.23C1038.86 1122.18 1042.05 1126.28 1046.48 1128.73C1049.3 1130.31 1052.38 1131.12 1055.49 1131.12C1057.29 1131.12 1059.05 1130.86 1060.8 1130.31L1060.84 1130.35ZM1067.25 1126.1C1069.16 1132.73 1065.42 1139.69 1058.97 1141.63C1055.86 1142.58 1052.56 1142.21 1049.71 1140.6C1046.85 1138.99 1044.76 1136.35 1043.84 1133.17C1041.94 1126.54 1045.68 1119.58 1052.12 1117.64C1053.26 1117.31 1054.43 1117.12 1055.53 1117.12C1060.8 1117.12 1065.68 1120.68 1067.25 1126.1ZM681.207 1313.93C685.676 1309.87 688.313 1304.26 688.679 1298.14C689.412 1285.51 679.961 1274.63 667.654 1273.9C655.273 1273.13 644.723 1282.83 644.027 1295.47C643.661 1301.59 645.676 1307.48 649.632 1312.06C653.624 1316.64 659.082 1319.35 665.053 1319.72C665.492 1319.72 665.932 1319.76 666.372 1319.76C671.866 1319.76 677.068 1317.74 681.207 1313.97V1313.93ZM667.251 1280.67C675.932 1281.18 682.562 1288.84 682.049 1297.74C681.793 1302.06 679.925 1305.98 676.811 1308.88C673.661 1311.73 669.632 1313.16 665.419 1312.94C661.207 1312.69 657.361 1310.78 654.577 1307.56C651.793 1304.33 650.364 1300.2 650.621 1295.87C651.097 1287.3 658.057 1280.67 666.335 1280.67C666.628 1280.67 666.958 1280.67 667.251 1280.67ZM-65.8636 296.815C-65.8636 284.178 -75.9004 273.885 -88.2447 273.885C-100.589 273.885 -110.626 284.178 -110.626 296.815C-110.626 309.452 -100.589 319.745 -88.2447 319.745C-75.9004 319.745 -65.8636 309.452 -65.8636 296.815ZM-72.4937 296.815C-72.4937 305.716 -79.5634 312.968 -88.2447 312.968C-96.926 312.968 -103.996 305.716 -103.996 296.815C-103.996 287.914 -96.926 280.661 -88.2447 280.661C-79.5634 280.661 -72.4937 287.914 -72.4937 296.815ZM-124.692 -116.178C-124.692 -128.815 -134.728 -139.108 -147.073 -139.108C-159.417 -139.108 -169.453 -128.815 -169.453 -116.178C-169.453 -103.541 -159.417 -93.2486 -147.073 -93.2486C-134.728 -93.2486 -124.692 -103.541 -124.692 -116.178ZM-131.322 -116.178C-131.322 -107.277 -138.391 -100.025 -147.073 -100.025C-155.754 -100.025 -162.823 -107.277 -162.823 -116.178C-162.823 -125.079 -155.754 -132.332 -147.073 -132.332C-138.391 -132.332 -131.322 -125.079 -131.322 -116.178ZM196.371 471.169C196.371 462.928 189.814 456.188 181.792 456.188C173.77 456.188 167.214 462.891 167.214 471.169C167.214 479.447 173.77 486.151 181.792 486.151C189.814 486.151 196.371 479.447 196.371 471.169ZM189.741 471.169C189.741 475.674 186.151 479.337 181.792 479.337C177.433 479.337 173.844 475.674 173.844 471.169C173.844 466.664 177.433 463.001 181.792 463.001C186.151 463.001 189.741 466.664 189.741 471.169ZM196.371 426.958C196.371 418.716 189.814 411.977 181.792 411.977C173.77 411.977 167.214 418.68 167.214 426.958C167.214 435.236 173.77 441.939 181.792 441.939C189.814 441.939 196.371 435.236 196.371 426.958ZM189.741 426.958C189.741 431.463 186.151 435.126 181.792 435.126C177.433 435.126 173.844 431.463 173.844 426.958C173.844 422.453 177.433 418.79 181.792 418.79C186.151 418.79 189.741 422.453 189.741 426.958ZM191.499 372.857C191.499 364.615 184.942 357.875 176.92 357.875C168.898 357.875 162.342 364.578 162.342 372.857C162.342 381.135 168.898 387.838 176.92 387.838C184.942 387.838 191.499 381.135 191.499 372.857ZM184.869 372.857C184.869 377.362 181.279 381.025 176.92 381.025C172.561 381.025 168.972 377.362 168.972 372.857C168.972 368.351 172.561 364.688 176.92 364.688C181.279 364.688 184.869 368.351 184.869 372.857ZM900.035 18.3237C902.526 10.485 898.35 2.02371 890.694 -0.540344C883.039 -3.10437 874.797 1.18137 872.269 9.01999C871.061 12.8294 871.354 16.8586 873.112 20.4482C874.87 24.0013 877.874 26.6751 881.573 27.8839C883.075 28.3967 884.614 28.6164 886.079 28.6164C892.233 28.6164 897.947 24.5873 899.962 18.287L900.035 18.3237ZM888.643 5.90646C892.819 7.29837 895.09 11.9136 893.734 16.1992C892.379 20.4848 887.874 22.829 883.698 21.4371C881.683 20.7778 880.035 19.3127 879.082 17.3713C878.13 15.43 877.947 13.1956 878.606 11.1444C879.705 7.70129 882.819 5.50345 886.189 5.50345C886.995 5.50345 887.837 5.65005 888.643 5.90646ZM1035.24 198.063C1038.72 196.268 1041.28 193.154 1042.49 189.382C1044.98 181.543 1040.8 173.082 1033.15 170.518C1025.49 167.954 1017.25 172.239 1014.76 180.114C1012.27 187.953 1016.45 196.414 1024.1 198.978C1025.6 199.491 1027.14 199.711 1028.64 199.711C1030.91 199.711 1033.15 199.162 1035.24 198.099V198.063ZM1031.1 176.928C1035.27 178.32 1037.54 182.935 1036.19 187.22C1035.53 189.308 1034.14 190.993 1032.23 191.982C1030.33 192.971 1028.17 193.154 1026.15 192.458C1021.98 191.066 1019.71 186.451 1021.06 182.166C1022.16 178.722 1025.27 176.525 1028.64 176.525C1029.45 176.525 1030.29 176.671 1031.1 176.928ZM1280.22 171.14C1283.7 169.345 1286.26 166.232 1287.47 162.459C1288.68 158.65 1288.39 154.621 1286.63 151.031C1284.87 147.478 1281.87 144.804 1278.13 143.559C1274.39 142.313 1270.47 142.643 1266.99 144.438C1263.52 146.232 1260.95 149.346 1259.74 153.119C1257.25 160.957 1261.43 169.419 1269.08 171.983C1270.58 172.496 1272.12 172.715 1273.63 172.715C1275.9 172.715 1278.13 172.166 1280.22 171.104V171.14ZM1276.08 150.042C1278.09 150.701 1279.74 152.166 1280.69 154.108C1281.65 156.049 1281.83 158.284 1281.17 160.335C1280.51 162.423 1279.08 164.107 1277.21 165.096C1275.31 166.085 1273.15 166.269 1271.13 165.573C1266.96 164.181 1264.69 159.565 1266.04 155.28C1266.7 153.192 1268.13 151.507 1270 150.518C1271.13 149.932 1272.34 149.639 1273.59 149.639C1274.43 149.639 1275.27 149.786 1276.08 150.042ZM1353.08 343.92C1356.56 342.125 1359.12 339.011 1360.33 335.239C1362.82 327.4 1358.64 318.939 1350.99 316.375C1343.33 313.811 1335.09 318.096 1332.6 325.935C1330.11 333.773 1334.28 342.235 1341.94 344.799C1343.44 345.312 1344.98 345.531 1346.48 345.531C1348.75 345.531 1350.99 344.982 1353.08 343.92ZM1348.94 322.821C1353.11 324.213 1355.38 328.828 1354.03 333.114C1353.37 335.202 1351.98 336.887 1350.07 337.876C1348.17 338.865 1346.01 339.048 1343.99 338.352C1339.82 336.96 1337.54 332.345 1338.9 328.059C1340 324.616 1343.11 322.418 1346.48 322.418C1347.29 322.418 1348.13 322.565 1348.94 322.821ZM1402.01 490.106C1405.49 488.312 1408.06 485.198 1409.27 481.425C1410.47 477.616 1410.18 473.587 1408.42 469.997C1406.67 466.444 1403.66 463.77 1399.93 462.525C1396.23 461.279 1392.27 461.609 1388.79 463.404C1385.31 465.199 1382.75 468.312 1381.54 472.085C1379.05 479.923 1383.22 488.385 1390.88 490.949C1392.38 491.462 1393.92 491.681 1395.42 491.681C1397.69 491.681 1399.93 491.132 1402.01 490.07V490.106ZM1546.7 468.972C1548.72 469.631 1550.37 471.096 1551.32 473.037C1552.27 474.979 1552.45 477.213 1551.79 479.264C1551.13 481.352 1549.71 483.037 1547.84 484.026C1545.93 485.015 1543.77 485.198 1541.76 484.502C1537.58 483.11 1535.31 478.495 1536.67 474.209C1537.32 472.122 1538.75 470.436 1540.62 469.448C1541.76 468.861 1542.97 468.569 1544.21 468.569C1545.05 468.569 1545.9 468.715 1546.7 468.972ZM1482.45 578.895C1485.93 577.1 1488.5 573.987 1489.71 570.214C1490.91 566.405 1490.62 562.376 1488.86 558.786C1487.11 555.233 1484.1 552.559 1480.36 551.314C1476.63 550.068 1472.71 550.398 1469.23 552.193C1465.75 553.988 1463.19 557.101 1461.98 560.874C1459.49 568.713 1463.66 577.174 1471.32 579.738C1472.82 580.251 1474.36 580.47 1475.86 580.47C1478.13 580.47 1480.37 579.921 1482.45 578.859V578.895ZM1478.35 557.797C1480.37 558.456 1482.01 559.922 1482.97 561.863C1483.92 563.804 1484.1 566.038 1483.44 568.09C1482.78 570.178 1481.35 571.863 1479.49 572.852C1477.58 573.84 1475.42 574.024 1473.41 573.328C1469.23 571.936 1466.96 567.321 1468.31 563.035C1468.97 560.947 1470.4 559.262 1472.27 558.273C1473.41 557.687 1474.61 557.394 1475.86 557.394C1476.7 557.394 1477.54 557.541 1478.35 557.797ZM1281.54 629.59C1285.02 627.795 1287.58 624.682 1288.79 620.872C1290 617.063 1289.71 613.034 1287.95 609.444C1286.19 605.891 1283.19 603.217 1279.45 601.972C1275.75 600.726 1271.79 601.056 1268.31 602.851C1264.83 604.646 1262.27 607.759 1261.06 611.569C1259.85 615.378 1260.15 619.407 1261.9 622.997C1263.66 626.55 1266.67 629.224 1270.4 630.432C1271.9 630.945 1273.44 631.165 1274.94 631.165C1277.21 631.165 1279.45 630.616 1281.54 629.553V629.59ZM1277.4 608.492C1279.41 609.188 1281.06 610.616 1282.01 612.557C1282.97 614.499 1283.15 616.733 1282.49 618.785C1281.83 620.872 1280.4 622.557 1278.53 623.546C1276.63 624.535 1274.47 624.718 1272.45 624.022C1270.44 623.326 1268.79 621.898 1267.84 619.957C1266.89 618.015 1266.7 615.781 1267.36 613.73C1268.02 611.642 1269.45 609.957 1271.32 608.968C1272.45 608.382 1273.66 608.089 1274.91 608.089C1275.75 608.089 1276.59 608.235 1277.4 608.492ZM1378.06 696.585C1381.54 694.79 1384.1 691.676 1385.31 687.904C1387.8 680.065 1383.62 671.604 1375.97 669.04C1372.27 667.794 1368.31 668.124 1364.83 669.919C1361.35 671.714 1358.79 674.827 1357.58 678.6C1355.09 686.438 1359.27 694.9 1366.92 697.464C1368.42 697.976 1369.96 698.196 1371.46 698.196C1373.74 698.196 1375.97 697.647 1378.06 696.585ZM1373.95 675.486C1375.97 676.182 1377.62 677.611 1378.57 679.552C1379.52 681.494 1379.71 683.728 1379.05 685.779C1378.39 687.867 1376.96 689.552 1375.09 690.541C1373.19 691.53 1371.02 691.713 1369.01 691.017C1364.83 689.625 1362.56 685.01 1363.92 680.724C1364.58 678.636 1366.01 676.951 1367.87 675.962C1369.01 675.376 1370.26 675.083 1371.46 675.083C1372.31 675.083 1373.15 675.23 1373.95 675.486ZM1463.81 798.56C1467.29 796.765 1469.85 793.652 1471.06 789.879C1473.55 782.04 1469.38 773.579 1461.72 771.015C1458.02 769.769 1454.06 770.099 1450.59 771.894C1447.11 773.689 1444.54 776.802 1443.33 780.575C1440.84 788.414 1445.02 796.875 1452.67 799.439C1454.17 799.952 1455.71 800.172 1457.22 800.172C1459.49 800.172 1461.72 799.622 1463.81 798.56ZM1459.71 777.462C1461.72 778.157 1463.37 779.586 1464.32 781.527C1465.27 783.469 1465.46 785.703 1464.8 787.755C1464.14 789.842 1462.71 791.527 1460.84 792.516C1458.94 793.505 1456.78 793.688 1454.76 792.992C1450.58 791.601 1448.31 786.985 1449.67 782.7C1450.33 780.612 1451.76 778.927 1453.63 777.938C1454.76 777.352 1456.01 777.059 1457.22 777.059C1458.06 777.059 1458.9 777.205 1459.71 777.462ZM1378.06 742.481C1381.54 740.686 1384.1 737.573 1385.31 733.8C1387.8 725.961 1383.62 717.5 1375.97 714.936C1372.27 713.69 1368.31 714.02 1364.83 715.815C1361.35 717.61 1358.79 720.723 1357.58 724.496C1355.09 732.335 1359.27 740.796 1366.92 743.36C1368.42 743.873 1369.96 744.093 1371.46 744.093C1373.74 744.093 1375.97 743.543 1378.06 742.481ZM1373.95 721.383C1375.97 722.078 1377.62 723.507 1378.57 725.448C1379.52 727.39 1379.71 729.624 1379.05 731.675C1378.39 733.763 1376.96 735.448 1375.09 736.437C1373.19 737.426 1371.02 737.609 1369.01 736.913C1364.83 735.521 1362.56 730.906 1363.92 726.62C1364.58 724.533 1366.01 722.848 1367.87 721.859C1369.01 721.273 1370.26 720.98 1371.46 720.98C1372.31 720.98 1373.15 721.126 1373.95 721.383ZM1578.79 882.587C1582.27 880.792 1584.83 877.679 1586.04 873.906C1587.25 870.097 1586.96 866.067 1585.2 862.478C1583.44 858.925 1580.44 856.251 1576.7 855.005C1573 853.76 1569.05 854.09 1565.57 855.885C1562.09 857.679 1559.52 860.793 1558.31 864.602C1557.11 868.412 1557.4 872.441 1559.16 876.031C1560.91 879.583 1563.92 882.257 1567.66 883.503C1569.16 884.016 1570.7 884.235 1572.2 884.235C1574.47 884.235 1576.7 883.686 1578.79 882.624V882.587ZM1574.65 861.489C1576.67 862.185 1578.31 863.613 1579.27 865.555C1580.22 867.496 1580.4 869.73 1579.74 871.781C1579.08 873.869 1577.65 875.554 1575.79 876.543C1573.88 877.532 1571.72 877.679 1569.71 877.019C1567.69 876.323 1566.04 874.895 1565.09 872.954C1564.14 871.012 1563.96 868.778 1564.61 866.727C1565.27 864.639 1566.7 862.954 1568.57 861.965C1569.71 861.379 1570.92 861.086 1572.16 861.086C1573 861.086 1573.85 861.232 1574.65 861.489ZM1705.97 976.907C1709.45 975.112 1712.01 971.999 1713.22 968.226C1714.43 964.417 1714.14 960.387 1712.38 956.798C1710.62 953.245 1707.62 950.571 1703.88 949.325C1700.18 948.08 1696.23 948.41 1692.75 950.204C1689.27 951.999 1686.7 955.113 1685.49 958.922C1684.28 962.731 1684.58 966.761 1686.34 970.35C1688.09 973.903 1691.1 976.577 1694.83 977.823C1696.34 978.336 1697.87 978.555 1699.38 978.555C1701.65 978.555 1703.88 978.006 1705.97 976.944V976.907ZM1701.87 955.809C1703.88 956.505 1705.53 957.933 1706.48 959.875C1707.44 961.816 1707.62 964.05 1706.96 966.102C1706.3 968.189 1704.87 969.874 1703 970.863C1701.1 971.852 1698.94 972.035 1696.92 971.339C1694.91 970.643 1693.26 969.215 1692.31 967.274C1691.35 965.332 1691.17 963.098 1691.83 961.047C1692.49 958.959 1693.92 957.274 1695.79 956.285C1696.92 955.699 1698.13 955.406 1699.38 955.406C1700.22 955.406 1701.06 955.552 1701.87 955.809ZM1397.73 1083.57C1401.21 1081.78 1403.77 1078.66 1404.98 1074.89C1406.19 1071.08 1405.9 1067.05 1404.14 1063.46C1402.38 1059.91 1399.38 1057.23 1395.64 1055.99C1391.94 1054.74 1387.98 1055.07 1384.5 1056.87C1381.02 1058.66 1378.46 1061.78 1377.25 1065.59C1376.04 1069.4 1376.34 1073.42 1378.09 1077.01C1379.85 1080.57 1382.86 1083.24 1386.59 1084.49C1388.09 1085 1389.63 1085.22 1391.13 1085.22C1393.41 1085.22 1395.64 1084.67 1397.73 1083.61V1083.57ZM1393.63 1062.47C1395.64 1063.17 1397.29 1064.6 1398.24 1066.54C1399.19 1068.48 1399.38 1070.71 1398.72 1072.77C1398.06 1074.85 1396.63 1076.54 1394.76 1077.53C1392.86 1078.52 1390.69 1078.7 1388.68 1078C1386.67 1077.31 1385.02 1075.88 1384.06 1073.94C1383.11 1072 1382.93 1069.76 1383.59 1067.71C1384.25 1065.62 1385.68 1063.94 1387.54 1062.95C1388.68 1062.36 1389.89 1062.07 1391.13 1062.07C1391.98 1062.07 1392.82 1062.22 1393.63 1062.47ZM1354.8 1178.15C1358.28 1176.35 1360.84 1173.24 1362.05 1169.43C1363.26 1165.62 1362.97 1161.59 1361.21 1158C1359.45 1154.45 1356.45 1151.77 1352.71 1150.53C1349.01 1149.28 1345.05 1149.61 1341.57 1151.41C1338.09 1153.2 1335.53 1156.32 1334.32 1160.13C1333.11 1163.94 1333.41 1167.96 1335.16 1171.55C1336.92 1175.11 1339.93 1177.78 1343.66 1178.99C1345.16 1179.5 1346.7 1179.72 1348.2 1179.72C1350.48 1179.72 1352.71 1179.17 1354.8 1178.11V1178.15ZM1350.66 1157.05C1352.67 1157.74 1354.32 1159.17 1355.27 1161.11C1356.23 1163.06 1356.41 1165.29 1355.75 1167.34C1355.09 1169.43 1353.66 1171.11 1351.79 1172.1C1349.89 1173.09 1347.73 1173.28 1345.71 1172.58C1343.7 1171.88 1342.05 1170.46 1341.1 1168.51C1340.15 1166.57 1339.96 1164.34 1340.62 1162.29C1341.28 1160.2 1342.71 1158.51 1344.58 1157.53C1345.71 1156.94 1346.92 1156.65 1348.17 1156.65C1349.01 1156.65 1349.85 1156.79 1350.66 1157.05ZM1515.42 1388.65C1518.9 1386.86 1521.46 1383.75 1522.67 1379.97C1523.88 1376.16 1523.59 1372.13 1521.83 1368.55C1520.07 1364.99 1517.07 1362.32 1513.33 1361.07C1509.63 1359.83 1505.68 1360.16 1502.2 1361.95C1498.72 1363.75 1496.15 1366.86 1494.94 1370.67C1493.74 1374.48 1494.03 1378.51 1495.79 1382.1C1497.54 1385.65 1500.55 1388.32 1504.28 1389.57C1505.79 1390.08 1507.32 1390.3 1508.83 1390.3C1511.1 1390.3 1513.33 1389.75 1515.42 1388.69V1388.65ZM1511.28 1367.52C1513.3 1368.22 1514.94 1369.64 1515.9 1371.59C1516.85 1373.53 1517.03 1375.76 1516.37 1377.81C1515.71 1379.9 1514.28 1381.58 1512.42 1382.57C1510.51 1383.56 1508.35 1383.75 1506.34 1383.05C1504.32 1382.35 1502.67 1380.93 1501.72 1378.98C1500.77 1377.04 1500.59 1374.81 1501.24 1372.76C1501.9 1370.67 1503.33 1368.98 1505.2 1368C1506.34 1367.41 1507.54 1367.12 1508.79 1367.12C1509.63 1367.12 1510.48 1367.26 1511.28 1367.52ZM1647.14 1287.96C1650.62 1286.17 1653.19 1283.05 1654.39 1279.28C1655.6 1275.47 1655.31 1271.44 1653.55 1267.85C1651.79 1264.3 1648.79 1261.62 1645.05 1260.38C1641.35 1259.13 1637.4 1259.46 1633.92 1261.26C1630.44 1263.05 1627.87 1266.17 1626.67 1269.98C1625.46 1273.79 1625.75 1277.82 1627.51 1281.4C1629.27 1284.96 1632.27 1287.63 1636.01 1288.88C1637.51 1289.39 1639.05 1289.61 1640.55 1289.61C1642.82 1289.61 1645.05 1289.06 1647.14 1288V1287.96ZM1643 1266.83C1645.02 1267.52 1646.67 1268.95 1647.62 1270.89C1648.57 1272.83 1648.75 1275.07 1648.09 1277.12C1647.44 1279.21 1646.01 1280.89 1644.14 1281.88C1642.23 1282.87 1640.07 1283.05 1638.06 1282.36C1636.04 1281.66 1634.39 1280.23 1633.44 1278.29C1632.49 1276.35 1632.31 1274.12 1632.97 1272.06C1633.63 1269.98 1635.05 1268.29 1636.92 1267.3C1638.06 1266.72 1639.27 1266.42 1640.51 1266.42C1641.35 1266.42 1642.2 1266.57 1643 1266.83ZM1475.75 1161.59C1479.23 1159.8 1481.79 1156.68 1483 1152.87C1484.21 1149.06 1483.92 1145.03 1482.16 1141.44C1480.4 1137.89 1477.4 1135.22 1473.66 1133.97C1469.96 1132.73 1466.01 1133.06 1462.53 1134.85C1459.05 1136.65 1456.48 1139.76 1455.27 1143.57C1454.06 1147.38 1454.36 1151.41 1456.12 1155C1457.87 1158.55 1460.88 1161.22 1464.61 1162.43C1466.12 1162.95 1467.65 1163.17 1469.16 1163.17C1471.43 1163.17 1473.66 1162.62 1475.75 1161.55V1161.59ZM1471.65 1140.46C1473.66 1141.15 1475.31 1142.58 1476.26 1144.52C1477.22 1146.46 1477.4 1148.7 1476.74 1150.75C1476.08 1152.84 1474.65 1154.52 1472.78 1155.51C1470.88 1156.5 1468.72 1156.68 1466.7 1155.99C1464.69 1155.29 1463.04 1153.86 1462.09 1151.92C1461.13 1149.98 1460.95 1147.75 1461.61 1145.69C1462.27 1143.61 1463.7 1141.92 1465.57 1140.93C1466.7 1140.35 1467.91 1140.05 1469.16 1140.05C1470 1140.05 1470.84 1140.2 1471.65 1140.46ZM1421.9 712.335C1425.38 710.54 1427.95 707.427 1429.16 703.654C1431.65 695.815 1427.47 687.354 1419.82 684.79C1416.12 683.545 1412.16 683.874 1408.68 685.669C1405.2 687.464 1402.64 690.578 1401.43 694.35C1398.94 702.189 1403.11 710.65 1410.77 713.214C1412.27 713.727 1413.81 713.947 1415.31 713.947C1417.58 713.947 1419.82 713.397 1421.9 712.335ZM1566.59 691.2C1568.61 691.896 1570.26 693.325 1571.21 695.266C1572.16 697.207 1572.34 699.442 1571.68 701.493C1571.02 703.581 1569.6 705.266 1567.73 706.255C1565.82 707.244 1563.66 707.427 1561.65 706.731C1557.47 705.339 1555.2 700.724 1556.56 696.438C1557.22 694.35 1558.64 692.665 1560.51 691.676C1561.65 691.09 1562.89 690.797 1564.1 690.797C1564.94 690.797 1565.79 690.944 1566.59 691.2ZM1523 647.318C1526.48 645.524 1529.05 642.41 1530.26 638.637C1532.75 630.799 1528.57 622.337 1520.92 619.773C1517.22 618.528 1513.26 618.858 1509.78 620.652C1506.3 622.447 1503.74 625.561 1502.53 629.334C1500.04 637.172 1504.21 645.634 1511.87 648.198C1513.37 648.71 1514.91 648.93 1516.41 648.93C1518.68 648.93 1520.91 648.381 1523 647.318ZM1667.69 626.184C1669.71 626.88 1671.35 628.308 1672.31 630.249C1673.26 632.191 1673.44 634.425 1672.78 636.476C1672.12 638.564 1670.7 640.249 1668.83 641.238C1666.92 642.227 1664.76 642.41 1662.75 641.714C1658.57 640.322 1656.3 635.707 1657.65 631.421C1658.31 629.333 1659.74 627.649 1661.61 626.66C1662.75 626.074 1663.99 625.781 1665.2 625.781C1666.04 625.781 1666.89 625.927 1667.69 626.184ZM1723.37 603.437C1726.85 601.642 1729.41 598.529 1730.62 594.756C1731.83 590.946 1731.54 586.917 1729.78 583.327C1728.02 579.774 1725.02 577.1 1721.28 575.855C1717.58 574.61 1713.63 574.939 1710.15 576.734C1706.67 578.529 1704.1 581.642 1702.89 585.415C1701.68 589.225 1701.98 593.254 1703.74 596.844C1705.49 600.397 1708.5 603.071 1712.23 604.316C1713.74 604.829 1715.27 605.048 1716.78 605.048C1719.05 605.048 1721.28 604.499 1723.37 603.437ZM1868.06 582.338C1870.07 583.034 1871.72 584.463 1872.67 586.404C1873.63 588.346 1873.81 590.58 1873.15 592.631C1872.49 594.719 1871.06 596.404 1869.19 597.393C1867.29 598.382 1865.13 598.565 1863.11 597.869C1861.1 597.173 1859.45 595.745 1858.5 593.803C1857.55 591.862 1857.36 589.628 1858.02 587.576C1858.68 585.489 1860.11 583.804 1861.98 582.815C1863.11 582.229 1864.32 581.936 1865.57 581.936C1866.41 581.936 1867.25 582.082 1868.06 582.338ZM1782.86 476.187C1784.07 472.378 1783.77 468.349 1782.01 464.759C1780.26 461.169 1777.25 458.532 1773.52 457.287C1769.82 456.041 1765.86 456.371 1762.38 458.166C1758.9 459.961 1756.34 463.074 1755.13 466.847C1753.92 470.656 1754.21 474.685 1755.97 478.275C1757.73 481.828 1760.73 484.502 1764.47 485.748C1765.97 486.26 1767.51 486.48 1768.97 486.48C1775.13 486.48 1780.84 482.451 1782.86 476.151V476.187ZM1920.26 463.77C1922.27 464.429 1923.92 465.894 1924.87 467.836C1925.82 469.777 1926.01 472.012 1925.35 474.063C1923.99 478.348 1919.49 480.693 1915.31 479.301C1913.3 478.641 1911.65 477.176 1910.7 475.235C1909.74 473.294 1909.56 471.059 1910.22 469.008C1910.88 466.92 1912.31 465.235 1914.18 464.246C1915.31 463.66 1916.52 463.367 1917.77 463.367C1918.61 463.367 1919.45 463.514 1920.26 463.77ZM1950.4 622.557C1953.88 620.762 1956.45 617.649 1957.66 613.876C1958.86 610.067 1958.57 606.037 1956.81 602.448C1955.05 598.895 1952.05 596.221 1948.31 594.976C1944.61 593.73 1940.66 594.06 1937.18 595.855C1933.7 597.649 1931.14 600.763 1929.93 604.572C1928.72 608.382 1929.01 612.411 1930.77 616.001C1932.53 619.554 1935.53 622.228 1939.27 623.473C1940.77 623.986 1942.31 624.206 1943.81 624.206C1946.08 624.206 1948.31 623.656 1950.4 622.594V622.557ZM2095.09 601.459C2097.11 602.155 2098.75 603.583 2099.71 605.525C2100.66 607.466 2100.84 609.7 2100.18 611.752C2099.52 613.839 2098.09 615.524 2096.23 616.513C2094.32 617.502 2092.16 617.686 2090.15 616.99C2088.13 616.294 2086.48 614.865 2085.53 612.924C2084.58 610.982 2084.4 608.748 2085.05 606.697C2085.71 604.609 2087.14 602.924 2089.01 601.935C2090.15 601.349 2091.35 601.056 2092.6 601.056C2093.44 601.056 2094.29 601.203 2095.09 601.459ZM1526.04 193.521C1529.52 191.726 1532.09 188.612 1533.3 184.84C1535.79 177.001 1531.61 168.54 1523.96 165.976C1520.26 164.73 1516.3 165.06 1512.82 166.855C1509.34 168.65 1506.78 171.763 1505.57 175.536C1504.36 179.345 1504.65 183.374 1506.41 186.964C1508.17 190.517 1511.17 193.191 1514.91 194.436C1516.41 194.949 1517.95 195.169 1519.45 195.169C1521.72 195.169 1523.95 194.619 1526.04 193.557V193.521ZM1521.9 172.422C1526.08 173.814 1528.35 178.429 1527 182.715C1526.34 184.803 1524.91 186.488 1523.04 187.477C1521.13 188.466 1518.97 188.649 1516.96 187.953C1514.94 187.294 1513.3 185.829 1512.34 183.887C1511.39 181.946 1511.21 179.711 1511.87 177.66C1512.53 175.572 1513.95 173.888 1515.82 172.898C1516.96 172.312 1518.17 172.019 1519.41 172.019C1520.26 172.019 1521.1 172.166 1521.9 172.422ZM1786.63 82.2048C1790.11 80.41 1792.67 77.2965 1793.88 73.5237C1796.37 65.6851 1792.2 57.2238 1784.54 54.6597C1780.84 53.4144 1776.89 53.744 1773.41 55.5388C1769.93 57.3336 1767.36 60.4471 1766.15 64.2199C1764.94 68.0294 1765.24 72.0585 1767 75.6482C1768.75 79.2012 1771.76 81.8752 1775.49 83.1205C1777 83.6334 1778.53 83.8532 1780.04 83.8532C1782.31 83.8532 1784.54 83.3037 1786.63 82.2415V82.2048ZM1782.49 61.0698C1786.67 62.4617 1788.94 67.077 1787.58 71.3626C1786.92 73.4504 1785.49 75.1354 1783.63 76.1243C1781.72 77.1133 1779.56 77.2964 1777.54 76.6005C1775.53 75.9412 1773.88 74.4761 1772.93 72.5348C1771.98 70.5934 1771.79 68.359 1772.45 66.3078C1773.11 64.22 1774.54 62.535 1776.41 61.5461C1777.55 60.96 1778.75 60.6669 1780 60.6669C1780.84 60.6669 1781.68 60.8134 1782.49 61.0698ZM151.243 -1.05307C154.906 -8.4155 152.049 -17.4263 144.869 -21.1991C141.389 -23.0305 137.433 -23.3235 133.734 -22.1148C130.034 -20.8694 126.994 -18.2321 125.235 -14.6791C123.477 -11.1261 123.148 -7.06027 124.356 -3.25085C125.565 0.558594 128.129 3.63547 131.609 5.46695C133.734 6.5658 135.968 7.11517 138.202 7.11517C143.514 7.11517 148.642 4.14828 151.243 -1.05307ZM141.865 -15.1187C145.785 -13.0675 147.323 -8.15921 145.345 -4.13C143.331 -0.1008 138.532 1.4743 134.613 -0.576935C132.708 -1.56592 131.316 -3.25079 130.657 -5.33865C129.997 -7.42651 130.18 -9.62439 131.133 -11.5657C132.085 -13.5071 133.734 -14.9355 135.785 -15.6314C136.591 -15.8878 137.433 -16.0344 138.239 -16.0344C139.484 -16.0344 140.73 -15.7414 141.865 -15.1553V-15.1187ZM23.587 24.3309C30.8397 20.7412 33.8799 11.7671 30.4001 4.33136C26.9202 -3.10434 18.1656 -6.25439 10.9129 -2.66476C7.39642 -0.943176 4.75916 2.09695 3.47711 5.86975C2.19507 9.64255 2.41479 13.7084 4.09973 17.298C5.78473 20.8877 8.75189 23.5983 12.4149 24.9169C13.99 25.4664 15.6016 25.7593 17.25 25.7593C19.4112 25.7593 21.5723 25.2465 23.587 24.2575V24.3309ZM24.4294 7.2984C26.3342 11.3642 24.686 16.2358 20.73 18.2138C18.8253 19.1661 16.6639 19.276 14.6492 18.5801C12.6346 17.8475 11.0229 16.3823 10.1072 14.4043C9.19141 12.4263 9.0448 10.2286 9.7774 8.1774C10.4734 6.12616 11.9387 4.47797 13.8434 3.5256C14.9424 2.9762 16.1146 2.71976 17.2867 2.71976C20.2537 2.71976 23.1107 4.44119 24.466 7.3349L24.4294 7.2984ZM-197.366 196.561C-193.849 194.839 -191.212 191.799 -189.93 188.026C-188.648 184.254 -188.867 180.188 -190.552 176.598C-192.237 173.008 -195.204 170.298 -198.867 168.979C-202.53 167.66 -206.523 167.88 -210.003 169.638C-217.256 173.228 -220.296 182.202 -216.816 189.638C-214.289 194.986 -209.087 198.099 -203.629 198.099C-201.505 198.099 -199.344 197.623 -197.329 196.634L-197.366 196.561ZM-201.065 175.353C-199.051 176.085 -197.439 177.55 -196.523 179.528C-195.607 181.506 -195.461 183.704 -196.193 185.755C-196.889 187.807 -198.355 189.455 -200.259 190.407C-204.215 192.385 -208.977 190.664 -210.882 186.598C-212.787 182.532 -211.139 177.66 -207.183 175.682C-206.084 175.133 -204.911 174.876 -203.739 174.876C-202.86 174.876 -201.981 175.023 -201.102 175.353H-201.065ZM-13.0798 -206.359C-7.4021 -212.183 -7.4021 -221.707 -13.0798 -227.531C-18.7574 -233.355 -28.0248 -233.355 -33.7025 -227.531C-39.3801 -221.707 -39.3801 -212.183 -33.7025 -206.359C-30.8453 -203.429 -27.1091 -202 -23.3729 -202C-19.6366 -202 -15.9002 -203.465 -13.0431 -206.359H-13.0798ZM-17.7683 -222.732C-14.6547 -219.546 -14.6547 -214.381 -17.7683 -211.194C-20.8818 -208.008 -25.9368 -208.008 -29.0138 -211.194C-32.1273 -214.381 -32.1273 -219.546 -29.0138 -222.732C-27.4753 -224.307 -25.4241 -225.113 -23.3729 -225.113C-21.3215 -225.113 -19.3068 -224.307 -17.7316 -222.732H-17.7683ZM-507.806 199.967C-504.289 198.246 -501.652 195.206 -500.37 191.433C-499.088 187.66 -499.307 183.594 -500.992 180.005C-502.677 176.415 -505.644 173.704 -509.307 172.386C-512.97 171.067 -516.963 171.287 -520.443 173.045C-527.696 176.635 -530.736 185.609 -527.256 193.044C-524.729 198.392 -519.527 201.506 -514.069 201.506C-511.945 201.506 -509.784 201.03 -507.769 200.041L-507.806 199.967ZM-511.505 178.759C-509.491 179.492 -507.879 180.957 -506.963 182.935C-506.047 184.913 -505.901 187.111 -506.633 189.162C-507.329 191.213 -508.758 192.861 -510.699 193.814C-514.655 195.755 -519.417 194.07 -521.322 190.004C-523.227 185.938 -521.579 181.067 -517.622 179.089C-516.524 178.539 -515.351 178.283 -514.179 178.283C-513.3 178.283 -512.421 178.429 -511.542 178.759H-511.505ZM103.77 99.3471C107.287 97.6255 109.924 94.5854 111.206 90.8126C112.488 87.0399 112.268 82.9741 110.583 79.3844C108.898 75.7947 105.931 73.0842 102.268 71.7655C98.6053 70.4469 94.6127 70.6667 91.1329 72.4249C83.8801 76.0146 80.8398 84.9886 84.3197 92.4243C86.8472 97.7722 92.0486 100.886 97.5065 100.886C99.631 100.886 101.792 100.41 103.807 99.4205L103.77 99.3471ZM100.071 78.139C102.085 78.8716 103.697 80.3367 104.613 82.3146C105.528 84.2927 105.675 86.4905 104.942 88.5417C104.246 90.5929 102.818 92.2411 100.876 93.1935C96.9203 95.1349 92.1585 93.4499 90.2537 89.3841C88.3489 85.3182 89.9974 80.4467 93.9534 78.4687C95.0524 77.9193 96.2245 77.6628 97.3967 77.6628C98.2758 77.6628 99.1548 77.8093 100.034 78.139H100.071ZM-297.439 565.965C-297.439 557.724 -303.996 550.984 -312.018 550.984C-320.04 550.984 -326.597 557.687 -326.597 565.965C-326.597 574.243 -320.04 580.947 -312.018 580.947C-303.996 580.947 -297.439 574.243 -297.439 565.965ZM-304.069 565.965C-304.069 570.471 -307.659 574.134 -312.018 574.134C-316.377 574.134 -319.967 570.471 -319.967 565.965C-319.967 561.46 -316.377 557.797 -312.018 557.797C-307.659 557.797 -304.069 561.46 -304.069 565.965ZM-318.977 716.108C-318.977 707.866 -325.534 701.127 -333.556 701.127C-341.578 701.127 -348.135 707.83 -348.135 716.108C-348.135 724.386 -341.578 731.089 -333.556 731.089C-325.534 731.089 -318.977 724.386 -318.977 716.108ZM-325.608 716.108C-325.608 720.613 -329.197 724.276 -333.556 724.276C-337.915 724.276 -341.505 720.613 -341.505 716.108C-341.505 711.603 -337.915 707.94 -333.556 707.94C-329.197 707.94 -325.608 711.603 -325.608 716.108ZM-392.384 1088.59C-392.384 1080.35 -398.941 1073.61 -406.963 1073.61C-414.985 1073.61 -421.542 1080.31 -421.542 1088.59C-421.542 1096.87 -414.985 1103.57 -406.963 1103.57C-398.941 1103.57 -392.384 1096.87 -392.384 1088.59ZM-399.014 1088.59C-399.014 1093.09 -402.604 1096.76 -406.963 1096.76C-411.322 1096.76 -414.912 1093.09 -414.912 1088.59C-414.912 1084.08 -411.322 1080.42 -406.963 1080.42C-402.604 1080.42 -399.014 1084.08 -399.014 1088.59Z" fill="url(#paint0_linear_315_236)" fill-opacity="0.3"/>
<mask id="path-2-outside-1_315_236" maskUnits="userSpaceOnUse" x="183" y="342" width="1087" height="345" fill="black">
<rect fill="white" x="183" y="342" width="1087" height="345"/>
<path d="M403.464 678H336.278L239.257 570.275V678H187.558V351.408H239.257V548.411L331.723 450.023H396.403L291.639 559.571L403.464 678ZM500.038 368.717C525.394 354.141 553.559 346.853 584.533 346.853C615.507 346.853 643.596 354.141 668.8 368.717C694.156 383.293 714.047 403.411 728.471 429.07C742.895 454.578 750.107 482.971 750.107 514.248C750.107 545.678 742.895 574.298 728.471 600.11C714.047 625.77 694.156 645.963 668.8 660.691C643.596 675.267 615.507 682.555 584.533 682.555C553.559 682.555 525.394 675.267 500.038 660.691C474.682 645.963 454.716 625.77 440.14 600.11C425.716 574.298 418.504 545.678 418.504 514.248C418.504 482.971 425.716 454.578 440.14 429.07C454.716 403.411 474.682 383.293 500.038 368.717ZM584.533 399.918C553.408 399.918 527.368 410.85 506.415 432.714C485.462 454.578 474.986 481.756 474.986 514.248C474.986 546.892 485.462 574.298 506.415 596.466C527.368 618.482 553.408 629.489 584.533 629.489C615.507 629.489 641.471 618.482 662.423 596.466C683.528 574.298 694.081 546.892 694.081 514.248C694.081 481.756 683.528 454.578 662.423 432.714C641.471 410.85 615.507 399.918 584.533 399.918ZM907.718 445.241C936.87 445.241 959.949 454.426 976.954 472.798C993.959 491.17 1002.46 516.222 1002.46 547.955V678H950.307V554.332C950.307 536.416 945.221 522.068 935.048 511.288C925.027 500.508 911.742 495.118 895.192 495.118C878.035 495.118 864.294 500.508 853.969 511.288C843.797 522.068 838.71 536.416 838.71 554.332V678H787.011V450.023H838.71V485.78C845.998 472.874 855.564 462.929 867.407 455.945C879.25 448.809 892.687 445.241 907.718 445.241ZM1265.07 559.115C1265.07 569.591 1264.61 576.879 1263.7 580.979H1088.79C1092.13 597.984 1099.57 611.345 1111.11 621.063C1122.65 630.78 1137.45 635.639 1155.52 635.639C1169.49 635.639 1181.48 632.602 1191.5 626.529C1201.68 620.455 1207.9 612.56 1210.18 602.843H1262.33C1258.08 626.832 1246.09 646.115 1226.35 660.691C1206.61 675.267 1182.7 682.555 1154.61 682.555C1132.59 682.555 1112.55 677.393 1094.48 667.068C1076.41 656.592 1062.14 642.167 1051.66 623.796C1041.34 605.424 1036.18 585.078 1036.18 562.759C1036.18 541.047 1041.34 521.233 1051.66 503.317C1062.14 485.248 1076.34 471.052 1094.25 460.727C1112.32 450.403 1132.14 445.241 1153.7 445.241C1174.04 445.241 1192.64 450.023 1209.49 459.589C1226.5 469.154 1240.01 482.743 1250.03 500.356C1260.06 517.817 1265.07 537.403 1265.07 559.115ZM1090.15 536.568H1208.58C1206.31 523.358 1199.93 512.73 1189.45 504.683C1179.13 496.484 1166.22 492.385 1150.74 492.385C1135.4 492.385 1122.42 496.256 1111.79 504C1101.16 511.743 1093.95 522.599 1090.15 536.568Z"/>
</mask>
<path d="M403.464 678V682H412.742L406.372 675.254L403.464 678ZM336.278 678L333.305 680.677L334.497 682H336.278V678ZM239.257 570.275L242.229 567.598L235.257 559.856V570.275H239.257ZM239.257 678V682H243.257V678H239.257ZM187.558 678H183.558V682H187.558V678ZM187.558 351.408V347.408H183.558V351.408H187.558ZM239.257 351.408H243.257V347.408H239.257V351.408ZM239.257 548.411H235.257V558.508L242.171 551.15L239.257 548.411ZM331.723 450.023V446.023H329.993L328.808 447.284L331.723 450.023ZM396.403 450.023L399.294 452.788L405.764 446.023H396.403V450.023ZM291.639 559.57L288.748 556.806L286.121 559.553L288.731 562.317L291.639 559.57ZM403.464 678V674H336.278V678V682H403.464V678ZM336.278 678L339.25 675.323L242.229 567.598L239.257 570.275L236.284 572.952L333.305 680.677L336.278 678ZM239.257 570.275H235.257V678H239.257H243.257V570.275H239.257ZM239.257 678V674H187.558V678V682H239.257V678ZM187.558 678H191.558V351.408H187.558H183.558V678H187.558ZM187.558 351.408V355.408H239.257V351.408V347.408H187.558V351.408ZM239.257 351.408H235.257V548.411H239.257H243.257V351.408H239.257ZM239.257 548.411L242.171 551.15L334.638 452.763L331.723 450.023L328.808 447.284L236.342 545.671L239.257 548.411ZM331.723 450.023V454.023H396.403V450.023V446.023H331.723V450.023ZM396.403 450.023L393.513 447.259L288.748 556.806L291.639 559.57L294.53 562.335L399.294 452.788L396.403 450.023ZM291.639 559.57L288.731 562.317L400.555 680.746L403.464 678L406.372 675.254L294.547 556.824L291.639 559.57ZM500.038 368.717L498.045 365.249L500.038 368.717ZM668.8 368.717L666.798 372.18L666.807 372.185L668.8 368.717ZM728.471 429.07L724.984 431.03L724.989 431.039L728.471 429.07ZM728.471 600.11L731.958 602.07L731.962 602.061L728.471 600.11ZM668.8 660.691L670.803 664.154L670.809 664.15L668.8 660.691ZM500.038 660.691L498.029 664.15L498.037 664.154L498.045 664.159L500.038 660.691ZM440.14 600.11L436.649 602.061L436.655 602.073L436.662 602.086L440.14 600.11ZM440.14 429.07L436.662 427.095L436.659 427.101L440.14 429.07ZM506.415 596.466L503.508 599.214L503.518 599.223L506.415 596.466ZM662.423 596.466L659.526 593.708L659.526 593.708L662.423 596.466ZM662.423 432.714L659.535 435.482L659.54 435.487L659.546 435.492L662.423 432.714ZM500.038 368.717L502.032 372.185C526.745 357.978 554.216 350.853 584.533 350.853V346.853V342.853C552.903 342.853 524.044 350.304 498.045 365.249L500.038 368.717ZM584.533 346.853V350.853C614.851 350.853 642.241 357.978 666.798 372.179L668.8 368.717L670.803 365.254C644.951 350.304 616.164 342.853 584.533 342.853V346.853ZM668.8 368.717L666.807 372.185C691.534 386.399 710.91 405.994 724.984 431.03L728.471 429.07L731.958 427.11C717.183 400.827 696.779 380.186 670.794 365.249L668.8 368.717ZM728.471 429.07L724.989 431.039C739.05 455.906 746.107 483.613 746.107 514.248H750.107H754.107C754.107 482.329 746.739 453.25 731.953 427.101L728.471 429.07ZM750.107 514.248H746.107C746.107 545.039 739.049 572.981 724.979 598.159L728.471 600.11L731.962 602.061C746.741 575.616 754.107 546.317 754.107 514.248H750.107ZM728.471 600.11L724.984 598.15C710.908 623.189 691.527 642.865 666.791 657.232L668.8 660.691L670.809 664.15C696.786 649.062 717.185 628.35 731.958 602.07L728.471 600.11ZM668.8 660.691L666.798 657.228C642.241 671.43 614.851 678.555 584.533 678.555V682.555V686.555C616.164 686.555 644.951 679.104 670.803 664.154L668.8 660.691ZM584.533 682.555V678.555C554.216 678.555 526.745 671.43 502.032 657.223L500.038 660.691L498.045 664.159C524.044 679.104 552.903 686.555 584.533 686.555V682.555ZM500.038 660.691L502.047 657.232C477.308 642.862 457.847 623.182 443.618 598.134L440.14 600.11L436.662 602.086C451.586 628.357 472.057 649.064 498.029 664.15L500.038 660.691ZM440.14 600.11L443.632 598.159C429.562 572.981 422.504 545.039 422.504 514.248H418.504H414.504C414.504 546.317 421.87 575.616 436.649 602.061L440.14 600.11ZM418.504 514.248H422.504C422.504 483.613 429.561 455.906 443.622 431.039L440.14 429.07L436.659 427.101C421.872 453.25 414.504 482.329 414.504 514.248H418.504ZM440.14 429.07L443.618 431.046C457.845 406.001 477.301 386.401 502.032 372.185L500.038 368.717L498.045 365.249C472.064 380.184 451.588 400.82 436.662 427.095L440.14 429.07ZM584.533 399.918V395.918C552.351 395.918 525.258 407.271 503.527 429.947L506.415 432.714L509.303 435.482C529.478 414.43 554.464 403.918 584.533 403.918V399.918ZM506.415 432.714L503.527 429.947C481.806 452.613 470.986 480.808 470.986 514.248H474.986H478.986C478.986 482.705 489.119 456.544 509.303 435.482L506.415 432.714ZM474.986 514.248H470.986C470.986 547.836 481.801 576.248 503.508 599.214L506.415 596.466L509.322 593.718C489.124 572.349 478.986 545.949 478.986 514.248H474.986ZM506.415 596.466L503.518 599.223C525.246 622.054 552.342 633.489 584.533 633.489V629.489V625.489C554.473 625.489 529.49 614.909 509.313 593.708L506.415 596.466ZM584.533 629.489V633.489C616.579 633.489 643.597 622.05 665.321 599.223L662.423 596.466L659.526 593.708C639.344 614.914 614.436 625.489 584.533 625.489V629.489ZM662.423 596.466L665.32 599.224C687.183 576.26 698.081 547.844 698.081 514.248H694.081H690.081C690.081 545.941 679.873 572.337 659.526 593.708L662.423 596.466ZM694.081 514.248H698.081C698.081 480.799 687.179 452.601 665.301 429.936L662.423 432.714L659.546 435.492C679.877 456.556 690.081 482.714 690.081 514.248H694.081ZM662.423 432.714L665.311 429.947C643.585 407.275 616.569 395.918 584.533 395.918V399.918V403.918C614.445 403.918 639.356 414.425 659.535 435.482L662.423 432.714ZM976.954 472.798L974.018 475.515L976.954 472.798ZM1002.46 678V682H1006.46V678H1002.46ZM950.307 678H946.307V682H950.307V678ZM935.048 511.288L932.118 514.011L932.129 514.022L932.139 514.033L935.048 511.288ZM853.969 511.288L851.081 508.521L851.07 508.532L851.06 508.542L853.969 511.288ZM838.71 678V682H842.71V678H838.71ZM787.011 678H783.011V682H787.011V678ZM787.011 450.023V446.023H783.011V450.023H787.011ZM838.71 450.023H842.71V446.023H838.71V450.023ZM838.71 485.78H834.71V500.998L842.193 487.747L838.71 485.78ZM867.407 455.945L869.439 459.39L869.455 459.381L869.471 459.371L867.407 455.945ZM907.718 445.241V449.241C935.956 449.241 957.896 458.098 974.018 475.515L976.954 472.798L979.889 470.081C962.001 450.755 937.784 441.241 907.718 441.241V445.241ZM976.954 472.798L974.018 475.515C990.17 492.965 998.462 516.95 998.462 547.955H1002.46H1006.46C1006.46 515.495 997.748 489.375 979.889 470.081L976.954 472.798ZM1002.46 547.955H998.462V678H1002.46H1006.46V547.955H1002.46ZM1002.46 678V674H950.307V678V682H1002.46V678ZM950.307 678H954.307V554.332H950.307H946.307V678H950.307ZM950.307 554.332H954.307C954.307 535.621 948.971 520.214 937.957 508.542L935.048 511.288L932.139 514.033C941.47 523.922 946.307 537.211 946.307 554.332H950.307ZM935.048 511.288L937.978 508.564C927.102 496.865 912.701 491.118 895.192 491.118V495.118V499.118C910.783 499.118 922.952 504.151 932.118 514.011L935.048 511.288ZM895.192 495.118V491.118C877.122 491.118 862.275 496.833 851.081 508.521L853.969 511.288L856.858 514.054C866.314 504.182 878.948 499.118 895.192 499.118V495.118ZM853.969 511.288L851.06 508.542C840.046 520.214 834.71 535.621 834.71 554.332H838.71H842.71C842.71 537.211 847.547 523.922 856.879 514.033L853.969 511.288ZM838.71 554.332H834.71V678H838.71H842.71V554.332H838.71ZM838.71 678V674H787.011V678V682H838.71V678ZM787.011 678H791.011V450.023H787.011H783.011V678H787.011ZM787.011 450.023V454.023H838.71V450.023V446.023H787.011V450.023ZM838.71 450.023H834.71V485.78H838.71H842.71V450.023H838.71ZM838.71 485.78L842.193 487.747C849.164 475.403 858.248 465.99 869.439 459.39L867.407 455.945L865.375 452.499C852.88 459.868 842.833 470.345 835.227 483.813L838.71 485.78ZM867.407 455.945L869.471 459.371C880.637 452.643 893.349 449.241 907.718 449.241V445.241V441.241C892.025 441.241 877.862 444.975 865.342 452.519L867.407 455.945ZM1263.7 580.979V584.979H1266.91L1267.6 581.847L1263.7 580.979ZM1088.79 580.979V576.979H1083.93L1084.86 581.75L1088.79 580.979ZM1191.5 626.529L1189.45 623.094L1189.44 623.101L1189.43 623.108L1191.5 626.529ZM1210.18 602.843V598.843H1207.01L1206.28 601.93L1210.18 602.843ZM1262.33 602.843L1266.27 603.541L1267.1 598.843H1262.33V602.843ZM1094.48 667.068L1092.48 670.528L1092.49 670.535L1092.5 670.541L1094.48 667.068ZM1051.66 623.796L1048.18 625.755L1048.18 625.766L1048.19 625.777L1051.66 623.796ZM1051.66 503.316L1048.2 501.31L1048.2 501.319L1051.66 503.316ZM1094.25 460.727L1092.27 457.254L1092.26 457.258L1092.26 457.262L1094.25 460.727ZM1209.49 459.589L1207.52 463.067L1207.53 463.071L1207.53 463.075L1209.49 459.589ZM1250.03 500.356L1246.56 502.334L1246.56 502.34L1246.56 502.347L1250.03 500.356ZM1090.15 536.568L1086.29 535.519L1084.92 540.568H1090.15V536.568ZM1208.58 536.568V540.568H1213.33L1212.53 535.888L1208.58 536.568ZM1189.45 504.683L1186.97 507.815L1186.99 507.836L1187.02 507.855L1189.45 504.683ZM1265.07 559.115H1261.07C1261.07 569.605 1260.6 576.49 1259.79 580.111L1263.7 580.979L1267.6 581.847C1268.62 577.269 1269.07 569.578 1269.07 559.115H1265.07ZM1263.7 580.979V576.979H1088.79V580.979V584.979H1263.7V580.979ZM1088.79 580.979L1084.86 581.75C1088.35 599.51 1096.19 613.732 1108.53 624.122L1111.11 621.063L1113.68 618.003C1102.94 608.958 1095.9 596.459 1092.71 580.208L1088.79 580.979ZM1111.11 621.063L1108.53 624.122C1120.93 634.562 1136.7 639.639 1155.52 639.639V635.639V631.639C1138.2 631.639 1124.37 626.998 1113.68 618.003L1111.11 621.063ZM1155.52 635.639V639.639C1170.08 639.639 1182.82 636.469 1193.58 629.95L1191.5 626.529L1189.43 623.108C1180.14 628.735 1168.9 631.639 1155.52 631.639V635.639ZM1191.5 626.529L1193.55 629.963C1204.47 623.446 1211.5 614.724 1214.07 603.756L1210.18 602.843L1206.28 601.93C1204.3 610.396 1198.88 617.465 1189.45 623.094L1191.5 626.529ZM1210.18 602.843V606.843H1262.33V602.843V598.843H1210.18V602.843ZM1262.33 602.843L1258.39 602.145C1254.32 625.117 1242.89 643.501 1223.97 657.473L1226.35 660.691L1228.72 663.909C1249.28 648.729 1261.84 628.547 1266.27 603.541L1262.33 602.843ZM1226.35 660.691L1223.97 657.473C1205.02 671.47 1181.97 678.555 1154.61 678.555V682.555V686.555C1183.42 686.555 1208.2 679.064 1228.72 663.909L1226.35 660.691ZM1154.61 682.555V678.555C1133.25 678.555 1113.89 673.554 1096.47 663.595L1094.48 667.068L1092.5 670.541C1111.2 681.231 1131.94 686.555 1154.61 686.555V682.555ZM1094.48 667.068L1096.49 663.608C1079.04 653.49 1065.27 639.58 1055.14 621.814L1051.66 623.796L1048.19 625.777C1059.01 644.755 1073.79 659.693 1092.48 670.528L1094.48 667.068ZM1051.66 623.796L1055.15 621.836C1045.18 604.098 1040.18 584.434 1040.18 562.759H1036.18H1032.18C1032.18 585.723 1037.5 606.75 1048.18 625.755L1051.66 623.796ZM1036.18 562.759H1040.18C1040.18 541.712 1045.17 522.592 1055.13 505.314L1051.66 503.316L1048.2 501.319C1037.51 519.874 1032.18 540.382 1032.18 562.759H1036.18ZM1051.66 503.316L1055.13 505.323C1065.25 487.855 1078.95 474.164 1096.25 464.193L1094.25 460.727L1092.26 457.262C1073.73 467.94 1059.03 482.642 1048.2 501.31L1051.66 503.316ZM1094.25 460.727L1096.24 464.2C1113.68 454.234 1132.81 449.241 1153.7 449.241V445.241V441.241C1131.47 441.241 1110.96 446.572 1092.27 457.254L1094.25 460.727ZM1153.7 445.241V449.241C1173.39 449.241 1191.3 453.861 1207.52 463.067L1209.49 459.589L1211.47 456.11C1193.98 446.186 1174.7 441.241 1153.7 441.241V445.241ZM1209.49 459.589L1207.53 463.075C1223.88 472.27 1236.88 485.327 1246.56 502.334L1250.03 500.356L1253.51 498.378C1243.15 480.16 1229.12 466.038 1211.46 456.102L1209.49 459.589ZM1250.03 500.356L1246.56 502.347C1256.21 519.154 1261.07 538.045 1261.07 559.115H1265.07H1269.07C1269.07 536.761 1263.9 516.479 1253.5 498.365L1250.03 500.356ZM1090.15 536.568V540.568H1208.58V536.568V532.568H1090.15V536.568ZM1208.58 536.568L1212.53 535.888C1210.08 521.704 1203.18 510.18 1191.89 501.511L1189.45 504.683L1187.02 507.855C1196.68 515.28 1202.53 525.012 1204.64 537.247L1208.58 536.568ZM1189.45 504.683L1191.94 501.551C1180.79 492.695 1166.96 488.385 1150.74 488.385V492.385V496.385C1165.48 496.385 1177.47 500.273 1186.97 507.815L1189.45 504.683ZM1150.74 492.385V488.385C1134.7 488.385 1120.86 492.446 1109.43 500.767L1111.79 504L1114.15 507.233C1123.98 500.067 1136.1 496.385 1150.74 496.385V492.385ZM1111.79 504L1109.43 500.767C1098 509.101 1090.3 520.767 1086.29 535.519L1090.15 536.568L1094.01 537.617C1097.6 524.432 1104.33 514.386 1114.15 507.233L1111.79 504Z" fill="url(#paint1_linear_315_236)" mask="url(#path-2-outside-1_315_236)"/>
</g>
<defs>
<linearGradient id="paint0_linear_315_236" x1="724.687" y1="82.2365" x2="730.652" y2="458.808" gradientUnits="userSpaceOnUse">
<stop offset="0.442308" stop-color="#FFEFDD" stop-opacity="0.78"/>
<stop offset="1"/>
</linearGradient>
<linearGradient id="paint1_linear_315_236" x1="720.5" y1="238" x2="721.088" y2="642.118" gradientUnits="userSpaceOnUse">
<stop stop-color="#949494"/>
<stop offset="1" stop-color="#171717"/>
</linearGradient>
<clipPath id="clip0_315_236">
<rect width="1440" height="660" fill="white"/>
</clipPath>
</defs>
</svg>
