<svg width="1399" height="994" viewBox="0 0 1399 994" fill="none" xmlns="http://www.w3.org/2000/svg">
<path opacity="0.6" d="M491.817 452.13L471.963 431.774H427.619V428.605H473.224L493.981 449.882L491.8 452.113L491.817 452.13ZM493.998 470.971L473.241 449.694H427.636V452.863H471.98L491.834 473.22L494.015 470.988L493.998 470.971ZM491.374 504.752H378.3V507.92H491.374V504.752ZM191.331 427.634H296.822L330.105 393.513H450.388L488.749 432.83L490.931 430.598L451.666 390.345H328.827L295.543 424.466H190.053L142.063 473.663H70.0258L41.5997 444.516H0V447.684H40.3215L68.7477 476.831H143.341L191.331 427.634ZM191.331 412.882H296.822L330.105 378.761H450.388L488.749 418.078L490.931 415.846L451.666 375.592H328.827L295.543 409.713H190.053L142.063 458.91H70.0258L41.5997 429.763H0V432.932H40.3215L68.7477 462.079H143.341L191.331 412.882ZM495.038 595.139L492.856 592.908L454.495 632.224H334.212L300.929 598.103H195.421L147.431 548.906H72.8378L44.4116 578.053H4.09008V581.222H45.6898L74.116 552.075H146.153L194.143 601.272H299.651L332.934 635.393H455.773L495.038 595.139ZM495.038 609.892L492.856 607.66L454.495 646.977H334.212L300.929 612.856H195.421L147.431 563.659H72.8378L44.4116 592.805H4.09008V595.974H45.6898L74.116 566.827H146.153L194.143 616.024H299.651L332.934 650.145H455.773L495.038 609.892ZM194.808 441.211H297.214L332.167 405.386H378.3V402.218H330.889L295.935 438.043H191.723V490.204H194.808V441.194V441.211ZM262.141 528.686H145.454V498.909H59.4768L37.6289 476.508H7.68599V479.676H36.3507L58.1986 502.077H142.369V531.854H262.141V528.686ZM446.281 561.87H490.368V558.701H445.019L411.089 593.487H333.206L278.979 537.902H278.348C277.666 537.902 208.782 537.476 140.716 537.254C100.736 537.135 68.85 537.101 45.9454 537.169C1.77241 537.305 1.70425 537.476 1.1589 538.839L1.49971 540.593L2.60743 539.469L4.07308 539.912C3.88562 540.559 3.37436 540.883 3.0676 540.951C8.79373 539.741 184.855 540.491 277.717 541.07L331.945 596.672H412.384L446.315 561.887L446.281 561.87ZM429.187 613.128H333.07L301.338 580.591H200.142C198.659 579.348 192.729 573.113 187.48 567.406L185.23 569.57C198.25 583.743 198.881 583.743 199.699 583.743H300.06L331.792 616.28H429.187V613.111V613.128ZM313.761 178.395L288.232 133.065H237.174L211.645 178.395L237.174 223.725H288.232L313.761 178.395ZM215.19 178.395L238.947 136.216H286.443L310.2 178.395L286.443 220.574H238.947L215.19 178.395ZM251.387 102.913L212.907 63.46L210.725 65.6916L248.303 104.225V134.666H251.387V102.93V102.913ZM260.641 102.913L222.16 63.46L219.979 65.6916L257.557 104.225V134.666H260.641V102.93V102.913ZM269.384 102.913L230.903 63.46L228.722 65.6916L266.299 104.225V134.666H269.384V102.93V102.913ZM220.03 164.682H109.137L81.6315 136.489H25.2223V139.658H80.3533L107.859 167.85H220.03V164.682ZM109.137 193.147H220.03V189.979H107.859L80.3533 218.172H25.2223V221.34H81.6315L109.137 193.147ZM261.664 176.283H16.9909V179.451H261.664V176.283ZM231.925 211.119L229.744 208.888L191.127 248.477H42.7074V251.646H192.405L231.925 211.136V211.119ZM244.196 242.804V221.596H241.111V241.493L197.807 285.886H49.8992V289.054H199.085L244.196 242.804ZM251.984 249.567L252.427 249.107V222.652H249.342V247.83C230.477 267.761 202.187 297.282 198.557 300.11H50.4275V303.279H198.966C199.784 303.279 201.165 303.279 251.984 249.584V249.567ZM210.776 333.959L261.664 281.798V222.124H258.579V280.486L207.692 332.647V360.176H34.4761V363.344H210.776V333.959ZM183.543 317.503H103.36V320.671H180.458V347.025H46.8145V350.193H183.543V317.52V317.503ZM404.05 281.798V233.197H400.966V280.503L370 312.239H270.406V222.124H267.322V315.391H371.278L404.05 281.798ZM220.286 343.192L241.316 321.625L239.134 319.394L217.201 341.88V382.849H33.4365V386.018H220.269V343.192H220.286ZM378.351 270.606H303.945L276.064 242.021V222.652H272.98V243.332L302.667 273.774H378.351V270.606ZM341.335 234.764H283.767V222.124H280.683V237.932H341.335V234.764ZM299.19 341.216H428.472V211.187L414.463 196.827H299.719V199.995H413.185L425.387 212.499V338.047H296.106V361.232H299.19V341.216ZM572.699 435.47L457.75 317.639V171.411L421.638 134.394V17.67H418.553V135.705L454.665 172.722V318.951L570.517 437.719L572.699 435.487V435.47ZM403.539 65.0954H400.454V167.85H306.399V171.019H403.539V65.0954ZM383.225 133.985V70.8873H380.14V132.673L355.6 157.834H301.747V161.002H356.861L383.208 133.985H383.225ZM334.212 75.6912L332.03 73.4596L273.951 132.997L276.133 135.228L334.212 75.6912ZM319.624 98.024H356.759V129.385H332.593V132.554H359.843V94.8726H318.346L280.632 133.542L282.813 135.774L319.624 98.0411V98.024ZM263.658 674.062L224.904 634.337H224.257C174.426 634.626 44.1049 635.188 39.6058 634.405L39.2138 635.921L40.0659 634.609L38.3617 637.233C38.89 637.59 40.2874 638.561 223.626 637.505L261.459 676.294L263.641 674.062H263.658ZM379.373 687.043H255.103L225.296 656.482H42.7074V659.651H224.018L253.824 690.211H379.373V687.043ZM475.831 701.063C482.75 693.772 519.272 656.141 520.482 655.256L519.612 653.944L518.999 653.058L518.743 652.632C517.21 653.671 477.962 694.283 474.059 698.388H52.9668V701.557H475.354L475.814 701.08L475.831 701.063ZM116.84 716.02H497.202L549.743 662.172L547.561 659.94L495.924 712.868H115.562L85.2274 743.957H47.3088V747.125H86.5055L116.84 716.037V716.02ZM187.258 728.932H502.093L561.843 667.674V591.017H558.758V666.38L500.815 725.781H185.98L131.616 781.502H46.7975V784.671H132.894L187.258 728.949V728.932ZM146.34 743.071L144.159 740.839L113.517 772.252H50.9388V775.421H114.795L146.34 743.071ZM191.382 746.069H246.139L254.881 755.03H299.327L317.323 736.581H505.451L574.965 665.306V571.767H571.881V663.995L504.172 733.412H316.045L298.049 751.861H256.142L247.4 742.901H190.104L60.1244 876.148L62.3058 878.38L191.382 746.052V746.069ZM300.724 782.422H211.799V873.576H300.724V782.422ZM214.9 785.59H297.657V870.425H214.9V785.59ZM504.275 777.26C533.502 746.478 577.743 700.432 580.947 698.49C580.947 698.49 580.708 698.627 580.35 698.627V695.458C579.464 695.458 577.641 695.458 501.633 775.506L501.19 775.966V795.045H344.028L314.222 764.484H269.895V783.461H272.98V767.653H312.943L342.75 798.213H504.275V777.243V777.26ZM132.4 849.063L195.49 784.381H249.717C249.854 785.59 249.513 788.589 248.865 791.399L251.865 792.132C252.7 788.503 253.415 783.819 252.086 782.098C251.66 781.536 251.047 781.229 250.365 781.229H194.211L129.315 847.768V912.45H132.4V849.08V849.063ZM175.312 832.862H212.838V829.694H172.227V907.68H175.312V832.845V832.862ZM482.955 857.376L455.585 829.319H299.207V832.488H454.307L479.87 858.705V908.379H482.955V857.393V857.376ZM482.955 846.848L455.585 818.792H299.207V821.96H454.307L479.87 848.177V897.851H482.955V846.865V846.848ZM482.955 865.28L455.585 837.224H299.207V840.392H454.307L479.87 866.609V916.283H482.955V865.297V865.28ZM531.014 785.182L599.114 715.355V571.767H596.029V714.043L527.929 783.87V896.761H531.014V785.182ZM552.589 795.726L616.837 729.852V572.823H613.753V728.54L549.504 794.415V891.497H552.589V795.726ZM562.61 834.447L634.885 760.344C635.601 759.612 636.299 758.897 636.248 721.556H633.164C633.198 749.97 632.755 756.904 632.465 758.352L559.508 833.135V889.385H562.593V834.447H562.61ZM575.988 834.447L648.263 760.344C649.047 759.544 650.001 758.556 649.49 693.346C649.234 661.439 648.723 572.585 648.723 572.261L645.639 572.312C646.422 621.356 647.121 752.338 645.86 758.334L572.903 833.118V889.367H575.988V834.43V834.447ZM781.839 783.87L713.739 714.043V571.767H710.654V715.355L778.754 785.182V896.761H781.839V783.87ZM760.246 794.415L695.998 728.54V572.823H692.913V729.852L757.162 795.726V891.497H760.246V794.415ZM750.226 833.152L677.269 758.368C676.911 756.529 676.229 745.337 676.792 685.22L673.707 685.186C673.025 758.488 674.048 759.527 674.866 760.362L747.141 834.464V889.402H750.226V833.152ZM736.865 833.152L663.908 758.368C662.647 752.355 663.345 621.39 664.129 572.346L661.045 572.295C661.045 572.619 660.533 661.456 660.278 693.38C659.766 758.59 660.721 759.578 661.505 760.379L733.78 834.481V889.419H736.865V833.169V833.152ZM603.988 883.048L603.477 838.126L638.123 802.608L635.942 800.377L600.375 836.832L600.903 883.082L603.988 883.048ZM703.19 835.111H655.898V838.28H700.105V895.194H703.19V835.128V835.111ZM653.972 293.398C654.756 223.981 653.342 222.482 652.49 221.596L651.927 221.068H651.501C649.797 220.165 641.531 212.687 606.152 174.29C605.198 173.251 604.499 172.501 604.107 172.075C603.408 165.568 603.8 87.3431 604.226 35.3353L601.142 35.3012C601.142 35.6419 600.852 69.78 600.716 103.629C600.426 172.757 600.886 173.234 601.602 173.966C601.738 174.119 602.573 175.005 603.903 176.453C639.708 215.327 647.718 222.567 650.172 223.913C651.91 231.698 650.87 392.729 649.712 444.533L652.796 444.601C652.796 444.26 653.546 327.383 653.938 293.398H653.972ZM637.799 231.749C637.799 230.897 637.799 229.108 595.007 187.202V51.1437H591.922V188.565L592.399 189.025C607.754 204.067 632.448 228.682 634.715 232.106V248.75H577.283V251.918H637.799V231.766V231.749ZM636.64 303.415L609.901 276.006H554.907V0.549805H551.822V279.174H608.623L633.556 304.727V441.024H636.64V303.415ZM619.666 325.543L593.319 298.526H528.696V301.694H592.058L616.599 326.855V408.299H619.683V325.543H619.666ZM598.091 340.568L565.967 307.623H515.591V115.025L536.791 93.2883V46.391H533.706V91.9766L512.506 113.713V310.791H564.689L595.007 341.88V420.139H598.091V340.585V340.568ZM567.927 388.965L497.475 314.862V160.338L455.262 117.069V19.5097H452.177V118.381L494.39 161.65V316.174L565.745 391.196L567.927 388.965ZM571.097 60.6152H568.012V187.867H571.097V60.6152ZM673.264 212.908L629.704 168.242V25.0461H626.62V169.554L670.179 214.22V457.99H673.264V212.908ZM684.443 209.348L638.191 161.922V57.4467H635.107V163.234L681.359 210.659V293.79H684.443V209.348ZM971.363 569.331H927.02L906.757 548.548L906.178 548.514C902.548 548.31 862.533 548.514 860.829 548.514V551.683C861.238 551.683 899.344 551.496 905.428 551.666L925.759 572.5H971.363V569.331ZM971.363 548.259H927.02L906.723 527.442H873.133V530.611H905.445L925.742 551.427H971.346V548.259H971.363ZM1103.44 576.622H1208.95L1256.94 527.425H1328.97L1357.4 556.572H1399V553.403H1358.68L1330.25 524.257H1255.66L1207.67 573.454H1102.16L1068.88 607.575H937.024L911.972 581.886H793.138V585.054H910.694L935.745 610.743H1070.16L1103.44 576.622ZM1103.44 591.374H1208.95L1256.94 542.177H1328.97L1357.4 571.324H1399V568.156H1358.68L1330.25 539.009H1255.66L1207.67 588.206H1102.16L1068.88 622.327H981.606V625.496H1070.16L1103.44 591.374ZM1354.57 423.052H1394.89V419.883H1353.29L1324.87 449.03H1252.83L1204.84 399.833H1099.35L1066.07 365.712H943.227L904.422 405.489H803.158V408.657H905.7L944.505 368.88H1064.79L1098.07 403.001H1203.56L1251.55 452.199H1326.15L1354.57 423.052ZM1354.57 408.299H1394.89V405.131H1353.29L1324.87 434.278H1252.83L1204.84 385.081H1099.35L1066.07 350.96H943.227L903.962 391.213L906.143 393.445L944.505 354.128H1064.79L1098.07 388.249H1203.56L1251.55 437.446H1326.15L1354.57 408.299ZM1103.06 563.062H1207.28V510.901H1204.19V559.911H1101.79L1066.83 595.735H1020.7V598.904H1068.11L1103.06 563.079V563.062ZM1391.3 521.429H1362.63L1340.78 499.028H1256.61V469.251H1136.94C1130.47 468.518 1025.06 469.131 1006.56 469.251V443.834L1028.78 421.042H1055.13V448.706H1058.21V417.873H1027.5L1003.47 442.506V472.419H1005.02C1056.1 472.095 1133.26 471.823 1136.55 472.385L1136.71 472.419H1253.53V502.196H1339.51L1361.35 524.597H1391.3V521.429ZM1353.05 463.936C1397.23 463.799 1397.3 463.629 1397.84 462.266L1397.5 460.512L1396.39 461.636L1394.94 461.193C1395.13 460.546 1395.64 460.222 1395.95 460.154C1390.22 461.363 1214.16 460.614 1121.3 460.035L1067.07 404.432H986.633L952.702 439.218H768.512V442.386H953.981L987.911 407.601H1065.79L1120.02 463.186H1120.65C1121.33 463.186 1190.22 463.612 1258.28 463.833C1284.24 463.919 1306.79 463.953 1325.67 463.953C1335.88 463.953 1345.01 463.953 1353.05 463.919V463.936ZM1228.94 447.088C1200.73 417.362 1200.15 417.362 1199.3 417.362H1098.94L1067.21 384.825H969.813V387.994H1065.93L1097.66 420.531H1198.81C1201.41 422.813 1217.04 439.099 1226.72 449.303L1228.94 447.105V447.088ZM1156.2 823.902L1130.67 778.572H1079.61L1054.09 823.902L1079.61 869.232H1130.67L1156.2 823.902ZM1057.65 823.902L1081.4 781.723H1128.9L1152.66 823.902L1128.9 866.081H1081.4L1057.65 823.902ZM1157.12 936.606L1119.54 898.072V867.631H1116.46V899.384L1154.94 938.837L1157.12 936.606ZM1147.87 936.606L1110.29 898.072V867.631H1107.21V899.384L1145.69 938.837L1147.87 936.606ZM1139.13 936.606L1101.55 898.072V867.631H1098.46V899.384L1136.94 938.837L1139.13 936.606ZM1342.62 862.623H1287.49L1259.99 834.43H1147.82V837.598H1258.71L1286.22 865.791H1342.62V862.623ZM1287.49 784.108H1342.62V780.94H1286.22L1258.71 809.133H1147.82V812.301H1259.99L1287.49 784.108ZM1350.84 822.846H1106.18V826.014H1350.84V822.846ZM1176.72 753.82H1325.14V750.652H1175.44L1135.92 791.161L1138.1 793.392L1176.72 753.803V753.82ZM1126.74 760.787L1170.04 716.394H1317.95V713.226H1168.76L1123.65 759.476V780.684H1126.74V760.787ZM1118.5 754.45C1137.37 734.52 1165.66 704.998 1169.29 702.17H1317.42V699.002H1168.86C1168.05 699.002 1166.67 699.002 1115.85 752.696L1115.4 753.156V779.611H1118.49V754.433L1118.5 754.45ZM1109.27 721.794L1160.16 669.633V642.105H1333.37V638.936H1157.07V668.322L1106.18 720.483V780.156H1109.27V721.794ZM1264.49 681.626H1187.39V655.273H1321.03V652.104H1184.3V684.777H1264.49V681.609V681.626ZM1100.53 686.89H996.569L963.797 720.483V769.083H966.881V721.794L997.847 690.041H1097.44V780.156H1100.53V686.89ZM1150.63 660.417V619.448H1334.39V616.28H1147.56V659.106L1131.41 675.681L1133.59 677.912L1150.65 660.417H1150.63ZM1094.87 758.965L1065.18 728.523H989.496V731.692H1063.9L1091.78 760.276V779.645H1094.87V758.965ZM1087.16 764.348H1026.51V767.516H1084.08V780.156H1087.16V764.348ZM1068.15 802.302H954.679L942.477 789.798V664.25H1071.74V641.066H1068.66V661.082H939.393V791.11L953.401 805.47H1068.15V802.302ZM949.277 866.592L913.165 829.575V683.346L838.503 606.808H788.519V609.977H837.225L910.08 684.675V830.904L946.192 867.921V984.644H949.277V866.609V866.592ZM967.393 834.43H1061.45V831.261H964.308V937.185H967.393V834.43ZM987.69 869.607L1012.23 844.446H1066.08V841.278H1010.95L984.605 868.295V931.393H987.69V869.607ZM1093.9 869.283L1091.71 867.052L1033.64 926.589L1035.82 928.821L1093.9 869.283ZM1087.22 868.755L1085.03 866.524L1048.22 904.273H1011.09V872.929H1035.25V869.76H1008V907.442H1049.5L1087.22 868.772V868.755ZM1086.91 359.664C1136.74 359.375 1267.06 358.813 1271.56 359.613L1271.95 358.097L1271.1 359.409L1272.8 356.786C1272.28 356.428 1270.88 355.474 1087.54 356.513L1049.71 317.724L1047.52 319.956L1086.28 359.682H1086.93L1086.91 359.664ZM1271.93 334.367H1090.62L1060.82 303.807H935.268V306.975H1059.54L1089.35 337.536H1271.93V334.367ZM840.566 295.63H1261.66V292.461H839.27L838.81 292.938C831.891 300.229 820.456 312.137 819.263 313.023L820.132 314.334L819.28 313.023L820.984 315.646C822.518 314.607 836.68 299.718 840.566 295.63ZM818.718 281.15H1199.08L1229.41 250.061H1267.33V246.893H1228.14L1197.8 277.982H817.44L790.002 306.106L792.183 308.338L818.718 281.133V281.15ZM755.884 327.639L813.827 268.221H1128.64L1183.01 212.499H1267.83V209.331H1181.73L1127.37 265.052H812.549L752.799 326.31V448.229H755.884V327.605V327.639ZM1201.12 230.028H1263.7V226.86H1199.85L1168.3 259.209L1170.48 261.441L1201.12 230.028ZM810.486 260.589H998.614L1016.61 242.14H1058.52L1067.26 251.1H1124.57L1285.41 86.2017L1283.23 83.9702L1123.29 247.949H1068.54L1059.79 238.989H1015.35L997.353 257.437H809.225L758.048 309.905L760.229 312.137L810.503 260.589H810.486ZM1102.83 120.425H1013.9V211.579H1102.83V120.425ZM1017 123.594H1099.76V208.428H1017V123.594ZM735.842 446.1C735.126 422.762 734.394 301.967 735.484 297.93C738.756 295.443 751.947 282.803 813.026 218.495L813.469 218.036V198.956H970.631L1000.44 229.517H1044.76V210.54H1041.68V226.349H1001.72L971.909 195.788H810.384V216.758C781.157 247.54 736.916 293.586 733.712 295.528C733.712 295.528 733.951 295.391 734.308 295.391L733.115 295.919C732.383 296.686 731.479 297.64 732.008 330.978C732.263 347.144 732.758 446.066 732.775 446.219L735.859 446.117L735.842 446.1ZM734.394 298.526C734.547 298.526 734.803 298.424 735.416 297.964C735.246 298.202 734.888 298.492 734.394 298.526ZM1185.33 154.546V89.8643H1182.24V153.234L1119.15 217.916H1064.92C1064.79 216.707 1065.13 213.709 1065.78 210.898L1062.78 210.165C1061.94 213.794 1061.23 218.478 1062.56 220.199C1062.98 220.761 1063.6 221.068 1064.28 221.068H1120.43L1185.33 154.529V154.546ZM1142.41 94.6H1139.33V169.418H1101.8V172.586H1142.41V94.6ZM1015.45 161.53H860.351L834.788 135.314V85.6396H831.704V136.625L859.073 164.682H1015.45V161.513V161.53ZM1015.45 172.058H860.351L834.788 145.841V96.1672H831.704V147.153L859.073 175.21H1015.45V172.041V172.058ZM1015.45 153.626H860.351L834.788 127.409V77.7354H831.704V128.721L859.073 156.778H1015.45V153.609V153.626ZM816.025 714.844H759.224L734.291 689.292V575.464H731.207V690.603L757.946 718.013H812.94V993.468H816.025V714.844ZM831.227 692.307H775.789L751.248 667.146V576.247H748.164V668.458L774.511 695.475H828.142V741.316H831.227V692.307ZM834.141 902.042L855.341 880.305V683.227H803.158L772.841 652.138V576.247H769.756V653.45L801.88 686.396H852.257V878.993L831.056 900.73V947.627H834.141V902.042ZM915.67 883.916L873.457 840.647V686.123L827.137 638.63L824.955 640.861L870.372 687.435V841.959L912.585 885.228V982.787H915.67V883.916ZM908.512 496.353H1020.72V493.185H906.757L897.742 508.789H861.613V511.957H899.497L908.512 496.353ZM1061.29 555.022H1001.41L964.495 517.17H936.103V520.339H963.217L1000.13 558.19H1061.29V555.022ZM1114.5 485.86H1234.78V516.693H1307.26V513.525H1237.87V482.691H1111.42V522.212H1114.5V485.86ZM708.336 176.811H705.252V470.954H708.336V176.811ZM708.149 179.911C712.051 179.536 715.562 177.629 718.067 174.545C720.573 171.462 721.748 167.561 721.373 163.558C721.016 159.571 719.158 155.96 716.142 153.388C713.125 150.833 709.325 149.623 705.422 149.998C701.519 150.373 698.009 152.28 695.504 155.364C690.34 161.735 691.209 171.223 697.412 176.504C700.071 178.77 703.343 179.962 706.734 179.962C707.194 179.962 707.655 179.945 708.115 179.894L708.149 179.911ZM714.182 155.824C716.551 157.851 718.033 160.696 718.306 163.847C718.596 166.999 717.658 170.082 715.681 172.518C713.704 174.954 710.927 176.453 707.859 176.743C704.792 177.032 701.775 176.078 699.406 174.068C694.498 169.895 693.816 162.399 697.889 157.374C699.866 154.938 702.644 153.439 705.712 153.149C706.07 153.115 706.445 153.098 706.802 153.098C709.495 153.098 712.069 154.052 714.165 155.841L714.182 155.824ZM707.569 47.9752H704.485V152.315H707.569V47.9752ZM844.741 70.0355L842.56 67.8039L746.255 166.539H719.908V169.707H747.533L844.741 70.0526V70.0355ZM751.981 207.218L751.453 206.741C735.757 192.551 719.107 176.198 718.408 173.387C718.408 173.387 718.408 173.438 718.408 173.523H715.324C715.324 177.629 736.098 197.065 748.879 208.649V232.924H751.964V207.218H751.981ZM380.277 506.285C380.277 500.408 375.607 495.621 369.864 495.621C364.121 495.621 359.451 500.408 359.451 506.285C359.451 512.162 364.121 516.949 369.864 516.949C375.607 516.949 380.277 512.162 380.277 506.285ZM377.192 506.285C377.192 510.424 373.903 513.797 369.864 513.797C365.825 513.797 362.536 510.424 362.536 506.285C362.536 502.145 365.825 498.772 369.864 498.772C373.903 498.772 377.192 502.145 377.192 506.285ZM648.996 803.171C651.075 801.28 652.302 798.673 652.472 795.828C652.643 792.984 651.705 790.241 649.865 788.112C648.024 785.982 645.468 784.722 642.69 784.551C636.93 784.194 632.022 788.708 631.698 794.585C631.357 800.462 635.754 805.521 641.48 805.862C641.685 805.862 641.889 805.879 642.094 805.879C644.65 805.879 647.07 804.942 648.996 803.188V803.171ZM642.503 787.703C646.542 787.941 649.626 791.502 649.388 795.641C649.268 797.651 648.399 799.474 646.951 800.82C645.485 802.148 643.628 802.813 641.651 802.711C637.612 802.472 634.527 798.912 634.766 794.772C634.987 790.786 638.225 787.703 642.077 787.703C642.213 787.703 642.366 787.703 642.503 787.703ZM826.472 642.428C828.551 640.537 829.778 637.931 829.948 635.086C830.289 629.209 825.892 624.15 820.166 623.809C817.388 623.639 814.713 624.593 812.634 626.484C810.555 628.374 809.328 630.981 809.157 633.826C808.987 636.671 809.924 639.413 811.765 641.542C813.605 643.672 816.161 644.932 818.939 645.103C819.144 645.103 819.348 645.12 819.553 645.12C822.109 645.12 824.529 644.183 826.455 642.428H826.472ZM819.979 626.961C824.018 627.199 827.102 630.759 826.864 634.899C826.625 639.038 823.183 642.173 819.127 641.951C817.167 641.832 815.378 640.946 814.082 639.447C812.787 637.948 812.122 636.023 812.242 634.013C812.361 632.003 813.23 630.18 814.679 628.834C816.025 627.608 817.746 626.943 819.536 626.943C819.672 626.943 819.825 626.943 819.979 626.943V626.961ZM980.515 631.764C982.594 629.874 983.821 627.267 983.992 624.422C984.333 618.545 979.936 613.486 974.209 613.145C971.432 612.975 968.756 613.929 966.677 615.82C964.598 617.711 963.371 620.317 963.2 623.162C963.03 626.007 963.967 628.749 965.808 630.879C967.648 633.008 970.205 634.269 972.983 634.439C973.187 634.439 973.392 634.456 973.596 634.456C976.152 634.456 978.572 633.519 980.498 631.764H980.515ZM974.022 616.297C978.061 616.535 981.146 620.095 980.907 624.235C980.668 628.374 977.243 631.509 973.17 631.287C971.21 631.168 969.421 630.282 968.125 628.783C966.83 627.284 966.166 625.359 966.285 623.349C966.404 621.339 967.273 619.516 968.722 618.171C970.068 616.944 971.79 616.28 973.579 616.28C973.715 616.28 973.869 616.28 974.022 616.28V616.297ZM831.789 757.84C834.039 757.159 835.896 755.643 837.004 753.531C838.129 751.418 838.384 748.999 837.72 746.7C836.356 741.947 831.482 739.221 826.847 740.601C822.211 741.998 819.553 746.989 820.899 751.742C821.564 754.042 823.046 755.95 825.109 757.091C826.421 757.823 827.852 758.198 829.301 758.198C830.136 758.198 830.954 758.079 831.772 757.823L831.789 757.84ZM834.771 755.864C835.657 758.948 833.919 762.184 830.92 763.087C829.471 763.53 827.937 763.36 826.608 762.61C825.279 761.861 824.308 760.634 823.881 759.152C822.995 756.069 824.734 752.832 827.733 751.929C828.261 751.776 828.807 751.691 829.318 751.691C831.772 751.691 834.038 753.343 834.771 755.864ZM655.165 843.22C657.244 841.329 658.471 838.723 658.642 835.878C658.982 830.001 654.586 824.941 648.859 824.601C643.099 824.243 638.191 828.757 637.867 834.634C637.697 837.479 638.634 840.222 640.475 842.351C642.332 844.48 644.872 845.741 647.649 845.911C647.854 845.911 648.058 845.928 648.263 845.928C650.819 845.928 653.239 844.991 655.165 843.237V843.22ZM648.672 827.752C652.711 827.99 655.796 831.551 655.557 835.69C655.438 837.701 654.569 839.523 653.12 840.869C651.654 842.198 649.78 842.862 647.82 842.76C645.86 842.641 644.071 841.755 642.776 840.256C641.48 838.757 640.816 836.832 640.935 834.822C641.156 830.835 644.394 827.752 648.246 827.752C648.382 827.752 648.536 827.752 648.672 827.752ZM307.592 370.192C307.592 364.315 302.923 359.528 297.18 359.528C291.436 359.528 286.767 364.315 286.767 370.192C286.767 376.069 291.436 380.856 297.18 380.856C302.923 380.856 307.592 376.069 307.592 370.192ZM304.508 370.192C304.508 374.332 301.218 377.705 297.18 377.705C293.141 377.705 289.851 374.332 289.851 370.192C289.851 366.053 293.141 362.68 297.18 362.68C301.218 362.68 304.508 366.053 304.508 370.192ZM280.223 178.123C280.223 172.245 275.553 167.459 269.81 167.459C264.067 167.459 259.397 172.245 259.397 178.123C259.397 184 264.067 188.786 269.81 188.786C275.553 188.786 280.223 184 280.223 178.123ZM277.138 178.123C277.138 182.262 273.849 185.635 269.81 185.635C265.771 185.635 262.482 182.262 262.482 178.123C262.482 173.983 265.771 170.61 269.81 170.61C273.849 170.61 277.138 173.983 277.138 178.123ZM429.596 451.279C429.596 447.446 426.546 444.311 422.814 444.311C419.081 444.311 416.031 447.429 416.031 451.279C416.031 455.129 419.081 458.246 422.814 458.246C426.546 458.246 429.596 455.129 429.596 451.279ZM426.512 451.279C426.512 453.374 424.842 455.077 422.814 455.077C420.786 455.077 419.115 453.374 419.115 451.279C419.115 449.183 420.786 447.48 422.814 447.48C424.842 447.48 426.512 449.183 426.512 451.279ZM429.596 430.717C429.596 426.885 426.546 423.75 422.814 423.75C419.081 423.75 416.031 426.868 416.031 430.717C416.031 434.567 419.081 437.685 422.814 437.685C426.546 437.685 429.596 434.567 429.596 430.717ZM426.512 430.717C426.512 432.813 424.842 434.516 422.814 434.516C420.786 434.516 419.115 432.813 419.115 430.717C419.115 428.622 420.786 426.919 422.814 426.919C424.842 426.919 426.512 428.622 426.512 430.717ZM427.33 405.557C427.33 401.724 424.279 398.589 420.547 398.589C416.815 398.589 413.764 401.707 413.764 405.557C413.764 409.407 416.815 412.524 420.547 412.524C424.279 412.524 427.33 409.407 427.33 405.557ZM424.245 405.557C424.245 407.652 422.575 409.356 420.547 409.356C418.519 409.356 416.849 407.652 416.849 405.557C416.849 403.461 418.519 401.758 420.547 401.758C422.575 401.758 424.245 403.461 424.245 405.557ZM756.974 240.675C758.133 237.03 756.19 233.094 752.629 231.902C749.067 230.71 745.232 232.703 744.056 236.348C743.494 238.12 743.63 239.994 744.448 241.663C745.266 243.315 746.664 244.559 748.385 245.121C749.084 245.36 749.8 245.462 750.481 245.462C753.344 245.462 756.003 243.588 756.94 240.658L756.974 240.675ZM751.674 234.9C753.617 235.548 754.674 237.694 754.043 239.687C753.413 241.68 751.316 242.77 749.374 242.123C748.436 241.816 747.669 241.135 747.226 240.232C746.783 239.329 746.698 238.29 747.005 237.336C747.516 235.735 748.965 234.713 750.532 234.713C750.907 234.713 751.299 234.781 751.674 234.9ZM819.877 324.266C821.496 323.431 822.689 321.983 823.251 320.229C824.41 316.583 822.467 312.648 818.905 311.455C815.343 310.263 811.509 312.256 810.35 315.919C809.191 319.564 811.134 323.499 814.696 324.692C815.395 324.93 816.11 325.032 816.809 325.032C817.866 325.032 818.905 324.777 819.877 324.283V324.266ZM817.951 314.437C819.894 315.084 820.95 317.23 820.32 319.223C820.013 320.194 819.365 320.978 818.479 321.438C817.593 321.898 816.587 321.983 815.65 321.659C813.707 321.012 812.651 318.866 813.281 316.873C813.793 315.271 815.241 314.249 816.809 314.249C817.184 314.249 817.576 314.317 817.951 314.437ZM933.854 311.745C935.473 310.91 936.666 309.462 937.228 307.708C937.79 305.936 937.654 304.062 936.836 302.393C936.018 300.74 934.621 299.497 932.883 298.918C931.144 298.339 929.321 298.492 927.702 299.327C926.083 300.161 924.89 301.609 924.327 303.364C923.169 307.009 925.111 310.944 928.673 312.137C929.372 312.375 930.088 312.478 930.786 312.478C931.843 312.478 932.882 312.222 933.854 311.728V311.745ZM931.928 301.933C932.865 302.24 933.632 302.921 934.075 303.824C934.518 304.727 934.604 305.766 934.297 306.72C933.99 307.691 933.326 308.474 932.456 308.934C931.57 309.394 930.565 309.479 929.627 309.156C927.685 308.508 926.628 306.362 927.259 304.369C927.565 303.398 928.23 302.614 929.099 302.154C929.628 301.882 930.19 301.746 930.769 301.746C931.161 301.746 931.553 301.814 931.928 301.933ZM967.751 392.099C969.37 391.264 970.562 389.816 971.125 388.062C972.284 384.416 970.341 380.481 966.779 379.289C963.217 378.096 959.383 380.089 958.224 383.735C957.065 387.38 959.008 391.315 962.57 392.508C963.269 392.746 963.984 392.849 964.683 392.849C965.74 392.849 966.779 392.593 967.751 392.099ZM965.825 382.287C967.768 382.934 968.824 385.081 968.194 387.074C967.887 388.045 967.239 388.828 966.353 389.288C965.467 389.748 964.461 389.833 963.524 389.51C961.581 388.862 960.525 386.716 961.155 384.723C961.667 383.122 963.115 382.1 964.683 382.1C965.058 382.1 965.45 382.168 965.825 382.287ZM990.519 460.086C992.138 459.251 993.331 457.803 993.893 456.048C994.455 454.277 994.319 452.403 993.501 450.734C992.683 449.081 991.286 447.838 989.547 447.258C987.826 446.679 985.986 446.833 984.367 447.667C982.748 448.502 981.555 449.95 980.992 451.705C979.833 455.35 981.776 459.285 985.338 460.478C986.037 460.716 986.753 460.818 987.451 460.818C988.508 460.818 989.547 460.563 990.519 460.069V460.086ZM1057.83 450.257C1058.77 450.563 1059.54 451.245 1059.98 452.147C1060.43 453.05 1060.51 454.089 1060.2 455.043C1059.9 456.014 1059.23 456.798 1058.36 457.258C1057.48 457.718 1056.47 457.803 1055.53 457.479C1053.59 456.832 1052.53 454.686 1053.17 452.693C1053.47 451.722 1054.14 450.938 1055.01 450.478C1055.53 450.205 1056.1 450.069 1056.68 450.069C1057.07 450.069 1057.46 450.137 1057.83 450.257ZM1027.94 501.379C1029.56 500.544 1030.76 499.096 1031.32 497.341C1031.88 495.57 1031.74 493.696 1030.93 492.026C1030.11 490.374 1028.71 489.13 1026.97 488.551C1025.23 487.972 1023.41 488.125 1021.79 488.96C1020.17 489.795 1018.98 491.243 1018.42 492.997C1017.26 496.643 1019.2 500.578 1022.76 501.77C1023.46 502.009 1024.18 502.111 1024.88 502.111C1025.93 502.111 1026.97 501.856 1027.94 501.362V501.379ZM1026.03 491.566C1026.97 491.873 1027.74 492.554 1028.18 493.457C1028.62 494.36 1028.71 495.399 1028.4 496.353C1028.1 497.324 1027.43 498.108 1026.56 498.568C1025.68 499.028 1024.67 499.113 1023.73 498.789C1021.79 498.142 1020.73 495.996 1021.36 494.002C1021.67 493.031 1022.34 492.248 1023.21 491.788C1023.73 491.515 1024.3 491.379 1024.88 491.379C1025.27 491.379 1025.66 491.447 1026.03 491.566ZM934.467 524.955C936.086 524.12 937.279 522.672 937.842 520.901C938.404 519.129 938.268 517.255 937.45 515.586C936.632 513.933 935.234 512.69 933.496 512.111C931.775 511.531 929.934 511.685 928.315 512.519C926.696 513.354 925.503 514.802 924.941 516.574C924.378 518.345 924.515 520.219 925.333 521.889C926.151 523.541 927.548 524.785 929.287 525.347C929.985 525.585 930.701 525.688 931.4 525.688C932.456 525.688 933.496 525.432 934.467 524.938V524.955ZM932.542 515.143C933.479 515.467 934.246 516.131 934.689 517.034C935.132 517.937 935.217 518.976 934.91 519.93C934.604 520.901 933.939 521.684 933.07 522.144C932.184 522.604 931.178 522.689 930.241 522.366C929.304 522.042 928.537 521.378 928.094 520.475C927.651 519.572 927.565 518.533 927.872 517.579C928.179 516.608 928.844 515.824 929.713 515.364C930.241 515.092 930.803 514.956 931.383 514.956C931.775 514.956 932.167 515.024 932.542 515.143ZM979.373 556.112C980.992 555.277 982.185 553.829 982.748 552.075C983.906 548.429 981.964 544.494 978.402 543.302C976.681 542.723 974.84 542.876 973.221 543.711C971.602 544.545 970.409 545.993 969.847 547.748C968.688 551.393 970.631 555.328 974.193 556.521C974.891 556.759 975.607 556.862 976.306 556.862C977.362 556.862 978.402 556.606 979.373 556.112ZM977.465 546.3C978.402 546.624 979.169 547.288 979.612 548.191C980.055 549.094 980.14 550.133 979.833 551.087C979.526 552.058 978.862 552.841 977.993 553.301C977.107 553.761 976.101 553.846 975.164 553.523C973.221 552.875 972.164 550.729 972.795 548.736C973.102 547.765 973.766 546.981 974.636 546.521C975.164 546.249 975.743 546.112 976.306 546.112C976.698 546.112 977.09 546.181 977.465 546.3ZM1019.27 603.537C1020.89 602.703 1022.08 601.255 1022.64 599.5C1023.8 595.855 1021.86 591.92 1018.3 590.727C1016.58 590.148 1014.74 590.301 1013.12 591.136C1011.5 591.971 1010.3 593.419 1009.74 595.173C1008.58 598.819 1010.53 602.754 1014.09 603.946C1014.79 604.185 1015.5 604.287 1016.2 604.287C1017.26 604.287 1018.3 604.031 1019.27 603.537ZM1017.36 593.725C1018.3 594.049 1019.06 594.713 1019.51 595.616C1019.95 596.519 1020.04 597.558 1019.73 598.512C1019.42 599.483 1018.76 600.267 1017.89 600.727C1017 601.187 1016 601.272 1015.06 600.948C1013.12 600.301 1012.06 598.154 1012.69 596.161C1013 595.19 1013.66 594.407 1014.53 593.947C1015.06 593.674 1015.64 593.538 1016.2 593.538C1016.59 593.538 1016.98 593.606 1017.36 593.725ZM979.373 577.457C980.992 576.622 982.185 575.174 982.748 573.42C983.906 569.774 981.964 565.839 978.402 564.647C976.681 564.067 974.84 564.221 973.221 565.055C971.602 565.89 970.409 567.338 969.847 569.093C968.688 572.738 970.631 576.673 974.193 577.866C974.891 578.104 975.607 578.206 976.306 578.206C977.362 578.206 978.402 577.951 979.373 577.457ZM977.465 567.645C978.402 567.968 979.169 568.633 979.612 569.536C980.055 570.438 980.14 571.478 979.833 572.432C979.526 573.403 978.862 574.186 977.993 574.646C977.107 575.106 976.101 575.191 975.164 574.868C973.221 574.22 972.164 572.074 972.795 570.081C973.102 569.11 973.766 568.326 974.636 567.866C975.164 567.594 975.743 567.457 976.306 567.457C976.698 567.457 977.09 567.525 977.465 567.645ZM1072.76 642.616C1074.38 641.781 1075.58 640.333 1076.14 638.578C1076.7 636.807 1076.56 634.933 1075.75 633.263C1074.93 631.611 1073.53 630.368 1071.79 629.788C1070.07 629.209 1068.23 629.362 1066.61 630.197C1064.99 631.032 1063.8 632.48 1063.24 634.252C1062.67 636.023 1062.81 637.897 1063.63 639.566C1064.45 641.219 1065.84 642.462 1067.58 643.042C1068.28 643.28 1069 643.382 1069.7 643.382C1070.75 643.382 1071.79 643.127 1072.76 642.633V642.616ZM1070.84 632.804C1071.78 633.127 1072.54 633.792 1072.99 634.694C1073.43 635.597 1073.51 636.636 1073.21 637.59C1072.9 638.561 1072.24 639.345 1071.37 639.805C1070.48 640.265 1069.47 640.333 1068.54 640.026C1067.6 639.703 1066.83 639.038 1066.39 638.135C1065.95 637.233 1065.86 636.194 1066.17 635.24C1066.48 634.269 1067.14 633.485 1068.01 633.025C1068.54 632.752 1069.1 632.616 1069.68 632.616C1070.07 632.616 1070.46 632.684 1070.84 632.804ZM1131.93 686.481C1133.55 685.646 1134.75 684.198 1135.31 682.443C1135.87 680.672 1135.73 678.798 1134.92 677.129C1134.1 675.476 1132.7 674.233 1130.96 673.654C1129.24 673.074 1127.4 673.228 1125.78 674.062C1124.16 674.897 1122.97 676.345 1122.41 678.117C1121.84 679.888 1121.98 681.762 1122.8 683.432C1123.62 685.084 1125.01 686.327 1126.75 686.907C1127.45 687.145 1128.17 687.247 1128.87 687.247C1129.92 687.247 1130.96 686.992 1131.93 686.498V686.481ZM1130.02 676.669C1130.96 676.992 1131.73 677.657 1132.17 678.56C1132.62 679.462 1132.7 680.502 1132.39 681.456C1132.09 682.427 1131.42 683.21 1130.55 683.67C1129.67 684.13 1128.66 684.215 1127.72 683.892C1126.79 683.568 1126.02 682.904 1125.58 682.001C1125.13 681.098 1125.05 680.059 1125.36 679.105C1125.66 678.134 1126.33 677.35 1127.2 676.89C1127.72 676.618 1128.29 676.481 1128.87 676.481C1129.26 676.481 1129.65 676.549 1130.02 676.669ZM988.525 736.087C990.144 735.252 991.337 733.804 991.899 732.049C992.462 730.278 992.325 728.404 991.507 726.734C990.689 725.082 989.292 723.839 987.553 723.259C985.832 722.68 983.992 722.834 982.373 723.668C980.754 724.503 979.561 725.951 978.998 727.723C978.436 729.494 978.572 731.368 979.39 733.038C980.208 734.69 981.606 735.933 983.344 736.513C984.043 736.751 984.758 736.853 985.457 736.853C986.514 736.853 987.553 736.598 988.525 736.104V736.087ZM986.616 726.275C987.553 726.598 988.32 727.263 988.763 728.165C989.207 729.068 989.292 730.107 988.985 731.061C988.678 732.032 988.013 732.816 987.144 733.276C986.258 733.736 985.253 733.821 984.315 733.497C983.378 733.174 982.611 732.509 982.168 731.606C981.725 730.704 981.64 729.665 981.947 728.711C982.253 727.74 982.918 726.956 983.787 726.496C984.315 726.223 984.878 726.087 985.457 726.087C985.849 726.087 986.241 726.155 986.616 726.275ZM968.551 780.071C970.17 779.236 971.364 777.788 971.926 776.017C972.488 774.245 972.352 772.371 971.534 770.702C970.716 769.049 969.318 767.806 967.58 767.227C965.859 766.648 964.018 766.801 962.399 767.635C960.78 768.47 959.587 769.918 959.025 771.69C958.463 773.461 958.599 775.335 959.417 777.005C960.235 778.657 961.633 779.901 963.371 780.463C964.07 780.701 964.785 780.804 965.484 780.804C966.541 780.804 967.58 780.548 968.551 780.054V780.071ZM966.626 770.259C967.563 770.583 968.33 771.247 968.773 772.15C969.216 773.053 969.301 774.092 968.995 775.046C968.688 776.017 968.023 776.8 967.154 777.26C966.268 777.72 965.262 777.805 964.325 777.482C963.388 777.158 962.621 776.494 962.178 775.591C961.735 774.688 961.649 773.649 961.956 772.695C962.263 771.724 962.928 770.94 963.797 770.48C964.325 770.208 964.888 770.072 965.467 770.072C965.859 770.072 966.251 770.14 966.626 770.259ZM1043.28 877.971C1044.9 877.136 1046.09 875.688 1046.66 873.934C1047.22 872.162 1047.08 870.288 1046.26 868.619C1045.45 866.966 1044.05 865.723 1042.31 865.144C1040.59 864.565 1038.75 864.718 1037.13 865.553C1035.51 866.387 1034.32 867.835 1033.75 869.607C1033.19 871.379 1033.33 873.252 1034.15 874.922C1034.96 876.574 1036.36 877.818 1038.1 878.397C1038.8 878.635 1039.51 878.738 1040.21 878.738C1041.27 878.738 1042.31 878.482 1043.28 877.988V877.971ZM1041.36 868.142C1042.29 868.466 1043.06 869.13 1043.5 870.033C1043.95 870.936 1044.03 871.975 1043.72 872.929C1043.42 873.9 1042.75 874.683 1041.88 875.143C1041 875.603 1039.99 875.688 1039.05 875.365C1038.12 875.041 1037.35 874.377 1036.91 873.474C1036.46 872.571 1036.38 871.532 1036.69 870.578C1036.99 869.607 1037.66 868.823 1038.53 868.364C1039.05 868.091 1039.62 867.955 1040.2 867.955C1040.59 867.955 1040.98 868.023 1041.36 868.142ZM1104.56 831.142C1106.18 830.307 1107.38 828.859 1107.94 827.105C1108.5 825.333 1108.36 823.459 1107.55 821.79C1106.73 820.137 1105.33 818.894 1103.59 818.315C1101.87 817.735 1100.03 817.889 1098.41 818.724C1096.79 819.558 1095.6 821.006 1095.04 822.778C1094.48 824.549 1094.61 826.423 1095.43 828.093C1096.25 829.745 1097.65 830.989 1099.38 831.568C1100.08 831.806 1100.8 831.909 1101.5 831.909C1102.55 831.909 1103.59 831.653 1104.56 831.159V831.142ZM1102.64 821.313C1103.58 821.636 1104.34 822.301 1104.79 823.204C1105.23 824.107 1105.31 825.146 1105.01 826.1C1104.7 827.071 1104.04 827.854 1103.17 828.314C1102.28 828.774 1101.28 828.859 1100.34 828.536C1099.4 828.212 1098.63 827.548 1098.19 826.645C1097.75 825.742 1097.66 824.703 1097.97 823.749C1098.28 822.778 1098.94 821.994 1099.81 821.534C1100.34 821.262 1100.9 821.125 1101.48 821.125C1101.87 821.125 1102.26 821.194 1102.64 821.313ZM1024.82 772.371C1026.44 771.537 1027.64 770.089 1028.2 768.317C1028.76 766.545 1028.62 764.671 1027.81 763.002C1026.99 761.35 1025.59 760.106 1023.85 759.527C1022.13 758.948 1020.29 759.101 1018.67 759.936C1017.05 760.77 1015.86 762.218 1015.3 763.99C1014.74 765.762 1014.87 767.636 1015.69 769.305C1016.51 770.957 1017.91 772.201 1019.64 772.763C1020.34 773.002 1021.06 773.104 1021.76 773.104C1022.81 773.104 1023.85 772.848 1024.82 772.354V772.371ZM1022.92 762.542C1023.85 762.866 1024.62 763.53 1025.06 764.433C1025.51 765.336 1025.59 766.375 1025.28 767.329C1024.98 768.3 1024.31 769.083 1023.44 769.543C1022.56 770.003 1021.55 770.089 1020.62 769.765C1019.68 769.441 1018.91 768.777 1018.47 767.874C1018.02 766.971 1017.94 765.932 1018.25 764.978C1018.55 764.007 1019.22 763.224 1020.09 762.764C1020.62 762.491 1021.18 762.355 1021.76 762.355C1022.15 762.355 1022.54 762.423 1022.92 762.542ZM999.773 563.437C1001.39 562.602 1002.58 561.154 1003.15 559.4C1004.31 555.754 1002.36 551.819 998.801 550.627C997.08 550.048 995.239 550.201 993.62 551.036C992.001 551.87 990.809 553.318 990.246 555.073C989.087 558.718 991.03 562.654 994.592 563.846C995.29 564.084 996.006 564.187 996.705 564.187C997.762 564.187 998.801 563.931 999.773 563.437ZM1067.09 553.608C1068.03 553.932 1068.79 554.596 1069.24 555.499C1069.68 556.402 1069.76 557.441 1069.46 558.395C1069.15 559.366 1068.49 560.149 1067.62 560.609C1066.73 561.069 1065.73 561.154 1064.79 560.831C1062.85 560.183 1061.79 558.037 1062.42 556.044C1062.73 555.073 1063.39 554.289 1064.26 553.829C1064.79 553.557 1065.37 553.421 1065.93 553.421C1066.32 553.421 1066.71 553.489 1067.09 553.608ZM1046.81 533.2C1048.43 532.365 1049.62 530.917 1050.18 529.163C1051.34 525.517 1049.4 521.582 1045.84 520.39C1044.12 519.81 1042.28 519.964 1040.66 520.798C1039.04 521.633 1037.84 523.081 1037.28 524.836C1036.12 528.481 1038.07 532.416 1041.63 533.609C1042.33 533.847 1043.04 533.949 1043.74 533.949C1044.8 533.949 1045.84 533.694 1046.81 533.2ZM1114.12 523.371C1115.06 523.694 1115.83 524.359 1116.27 525.262C1116.72 526.165 1116.8 527.204 1116.49 528.158C1116.19 529.129 1115.52 529.912 1114.65 530.372C1113.77 530.832 1112.76 530.917 1111.82 530.594C1109.88 529.946 1108.82 527.8 1109.46 525.807C1109.76 524.836 1110.43 524.052 1111.3 523.592C1111.82 523.32 1112.4 523.183 1112.97 523.183C1113.36 523.183 1113.75 523.252 1114.12 523.371ZM1140.03 512.792C1141.65 511.957 1142.84 510.509 1143.4 508.755C1143.97 506.983 1143.83 505.109 1143.01 503.44C1142.19 501.787 1140.8 500.544 1139.06 499.965C1137.34 499.385 1135.5 499.539 1133.88 500.374C1132.26 501.208 1131.06 502.656 1130.5 504.411C1129.94 506.182 1130.08 508.056 1130.89 509.726C1131.71 511.378 1133.11 512.622 1134.85 513.201C1135.55 513.439 1136.26 513.542 1136.96 513.542C1138.02 513.542 1139.06 513.286 1140.03 512.792ZM1207.34 502.98C1208.28 503.304 1209.05 503.968 1209.49 504.871C1209.94 505.774 1210.02 506.813 1209.71 507.767C1209.41 508.738 1208.74 509.521 1207.87 509.981C1206.99 510.441 1205.98 510.526 1205.04 510.203C1204.11 509.879 1203.34 509.215 1202.9 508.312C1202.45 507.409 1202.37 506.37 1202.68 505.416C1202.98 504.445 1203.65 503.661 1204.52 503.201C1205.04 502.929 1205.61 502.793 1206.19 502.793C1206.58 502.793 1206.97 502.861 1207.34 502.98ZM1167.71 453.612C1168.27 451.841 1168.13 449.967 1167.31 448.298C1166.49 446.628 1165.1 445.402 1163.36 444.822C1161.64 444.243 1159.8 444.397 1158.18 445.231C1156.56 446.066 1155.37 447.514 1154.8 449.269C1154.24 451.04 1154.38 452.914 1155.2 454.583C1156.01 456.236 1157.41 457.479 1159.15 458.059C1159.85 458.297 1160.56 458.399 1161.25 458.399C1164.11 458.399 1166.77 456.525 1167.71 453.595V453.612ZM1231.63 447.838C1232.57 448.144 1233.33 448.826 1233.78 449.728C1234.22 450.631 1234.31 451.671 1234 452.624C1233.37 454.618 1231.27 455.708 1229.33 455.06C1228.39 454.754 1227.62 454.072 1227.18 453.17C1226.74 452.267 1226.65 451.228 1226.96 450.274C1227.27 449.303 1227.93 448.519 1228.8 448.059C1229.33 447.786 1229.89 447.65 1230.47 447.65C1230.86 447.65 1231.26 447.718 1231.63 447.838ZM1245.66 521.684C1247.27 520.85 1248.47 519.402 1249.03 517.647C1249.59 515.875 1249.46 514.002 1248.64 512.332C1247.82 510.68 1246.42 509.436 1244.68 508.857C1242.96 508.278 1241.12 508.431 1239.5 509.266C1237.88 510.101 1236.69 511.548 1236.13 513.32C1235.57 515.092 1235.7 516.966 1236.52 518.635C1237.34 520.287 1238.74 521.531 1240.47 522.11C1241.17 522.349 1241.89 522.451 1242.59 522.451C1243.64 522.451 1244.68 522.195 1245.66 521.701V521.684ZM1312.97 511.872C1313.91 512.196 1314.68 512.86 1315.12 513.763C1315.56 514.666 1315.65 515.705 1315.34 516.659C1315.03 517.63 1314.37 518.414 1313.5 518.874C1312.61 519.333 1311.61 519.419 1310.67 519.095C1309.73 518.771 1308.97 518.107 1308.52 517.204C1308.08 516.301 1308 515.262 1308.3 514.308C1308.61 513.337 1309.27 512.554 1310.14 512.094C1310.67 511.821 1311.23 511.685 1311.81 511.685C1312.2 511.685 1312.6 511.753 1312.97 511.872ZM1048.22 322.153C1049.84 321.319 1051.04 319.871 1051.6 318.116C1052.76 314.471 1050.81 310.536 1047.25 309.343C1045.53 308.764 1043.69 308.917 1042.07 309.752C1040.45 310.587 1039.26 312.035 1038.7 313.789C1038.13 315.561 1038.27 317.435 1039.09 319.104C1039.91 320.757 1041.3 322 1043.04 322.579C1043.74 322.818 1044.46 322.92 1045.16 322.92C1046.21 322.92 1047.25 322.664 1048.22 322.17V322.153ZM1046.3 312.341C1048.24 312.989 1049.3 315.135 1048.67 317.128C1048.36 318.099 1047.69 318.883 1046.83 319.343C1045.94 319.803 1044.93 319.888 1044 319.564C1043.06 319.257 1042.29 318.576 1041.85 317.673C1041.41 316.77 1041.32 315.731 1041.63 314.777C1041.93 313.806 1042.6 313.023 1043.47 312.563C1044 312.29 1044.56 312.154 1045.14 312.154C1045.53 312.154 1045.92 312.222 1046.3 312.341ZM1169.46 270.384C1171.08 269.549 1172.27 268.101 1172.83 266.347C1173.99 262.701 1172.05 258.766 1168.49 257.574C1166.77 256.995 1164.93 257.148 1163.31 257.983C1161.69 258.817 1160.5 260.265 1159.93 262.02C1159.37 263.792 1159.51 265.665 1160.33 267.335C1161.14 268.987 1162.54 270.231 1164.28 270.81C1164.98 271.048 1165.69 271.151 1166.39 271.151C1167.45 271.151 1168.49 270.895 1169.46 270.401V270.384ZM1167.53 260.555C1169.48 261.202 1170.53 263.349 1169.9 265.342C1169.6 266.313 1168.93 267.096 1168.06 267.556C1167.18 268.016 1166.17 268.101 1165.23 267.778C1164.3 267.471 1163.53 266.79 1163.09 265.887C1162.64 264.984 1162.56 263.945 1162.87 262.991C1163.17 262.02 1163.84 261.236 1164.71 260.776C1165.23 260.504 1165.8 260.367 1166.38 260.367C1166.77 260.367 1167.16 260.436 1167.53 260.555ZM408.6 231.664C410.305 228.24 408.975 224.049 405.635 222.294C404.016 221.443 402.176 221.306 400.454 221.868C398.733 222.448 397.319 223.674 396.501 225.327C395.683 226.979 395.529 228.87 396.092 230.641C396.654 232.413 397.847 233.844 399.466 234.696C400.454 235.207 401.494 235.462 402.533 235.462C405.005 235.462 407.39 234.083 408.6 231.664ZM404.238 225.122C406.061 226.076 406.777 228.359 405.857 230.233C404.919 232.106 402.687 232.839 400.863 231.885C399.977 231.425 399.33 230.641 399.023 229.67C398.716 228.699 398.801 227.677 399.244 226.774C399.687 225.872 400.454 225.207 401.409 224.884C401.784 224.764 402.176 224.696 402.551 224.696C403.13 224.696 403.709 224.833 404.238 225.105V225.122ZM349.209 243.469C352.583 241.799 353.998 237.626 352.379 234.168C350.76 230.71 346.687 229.245 343.312 230.914C341.676 231.715 340.449 233.129 339.853 234.883C339.256 236.638 339.359 238.529 340.143 240.198C340.926 241.867 342.307 243.128 344.011 243.741C344.744 243.997 345.494 244.133 346.261 244.133C347.266 244.133 348.272 243.895 349.209 243.435V243.469ZM349.601 235.548C350.487 237.438 349.72 239.704 347.88 240.624C346.993 241.067 345.988 241.118 345.051 240.794C344.113 240.454 343.363 239.772 342.937 238.852C342.511 237.932 342.443 236.91 342.784 235.956C343.108 235.002 343.79 234.236 344.676 233.793C345.187 233.537 345.732 233.418 346.278 233.418C347.658 233.418 348.987 234.219 349.618 235.565L349.601 235.548ZM246.411 323.567C248.047 322.767 249.274 321.353 249.871 319.598C250.467 317.844 250.365 315.953 249.581 314.283C248.797 312.614 247.417 311.353 245.712 310.74C244.008 310.127 242.151 310.229 240.532 311.047C237.157 312.716 235.743 316.89 237.362 320.348C238.538 322.835 240.958 324.283 243.497 324.283C244.485 324.283 245.491 324.061 246.428 323.601L246.411 323.567ZM244.69 313.704C245.627 314.045 246.377 314.726 246.803 315.646C247.229 316.566 247.297 317.588 246.957 318.542C246.633 319.496 245.951 320.263 245.065 320.705C243.224 321.625 241.009 320.825 240.123 318.934C239.236 317.043 240.003 314.777 241.844 313.857C242.355 313.602 242.901 313.483 243.446 313.483C243.855 313.483 244.264 313.551 244.673 313.704H244.69ZM332.15 136.182C334.791 133.474 334.791 129.045 332.15 126.336C329.508 123.628 325.197 123.628 322.555 126.336C319.914 129.045 319.914 133.474 322.555 136.182C323.884 137.545 325.623 138.21 327.361 138.21C329.099 138.21 330.838 137.528 332.167 136.182H332.15ZM329.968 128.568C331.417 130.05 331.417 132.452 329.968 133.934C328.52 135.416 326.168 135.416 324.737 133.934C323.288 132.452 323.288 130.05 324.737 128.568C325.452 127.835 326.407 127.46 327.361 127.46C328.315 127.46 329.253 127.835 329.986 128.568H329.968ZM101.98 325.152C103.616 324.351 104.843 322.937 105.439 321.182C106.036 319.428 105.933 317.537 105.15 315.868C104.366 314.198 102.985 312.937 101.281 312.324C99.5768 311.711 97.7192 311.813 96.1002 312.631C92.7259 314.3 91.3114 318.474 92.9304 321.932C94.1063 324.419 96.5263 325.867 99.0655 325.867C100.054 325.867 101.059 325.646 101.997 325.186L101.98 325.152ZM100.258 315.288C101.196 315.629 101.946 316.31 102.372 317.23C102.798 318.15 102.866 319.172 102.525 320.126C102.201 321.08 101.537 321.847 100.633 322.29C98.7929 323.193 96.5774 322.409 95.6912 320.518C94.805 318.627 95.5719 316.362 97.4124 315.442C97.9237 315.186 98.469 315.067 99.0144 315.067C99.4234 315.067 99.8324 315.135 100.241 315.288H100.258ZM386.514 278.356C388.15 277.556 389.377 276.142 389.974 274.387C390.57 272.633 390.468 270.742 389.684 269.072C388.9 267.403 387.519 266.142 385.815 265.529C384.111 264.916 382.253 265.018 380.634 265.836C377.26 267.505 375.846 271.679 377.465 275.137C378.641 277.624 381.06 279.072 383.6 279.072C384.588 279.072 385.594 278.85 386.531 278.391L386.514 278.356ZM384.793 268.493C385.73 268.834 386.48 269.515 386.906 270.435C387.332 271.355 387.4 272.377 387.059 273.331C386.736 274.285 386.071 275.052 385.168 275.495C383.327 276.397 381.112 275.614 380.225 273.723C379.339 271.832 380.106 269.566 381.947 268.647C382.458 268.391 383.003 268.272 383.549 268.272C383.958 268.272 384.367 268.34 384.776 268.493H384.793ZM199.852 495.365C199.852 491.532 196.802 488.398 193.07 488.398C189.337 488.398 186.287 491.515 186.287 495.365C186.287 499.215 189.337 502.333 193.07 502.333C196.802 502.333 199.852 499.215 199.852 495.365ZM196.768 495.365C196.768 497.461 195.098 499.164 193.07 499.164C191.042 499.164 189.371 497.461 189.371 495.365C189.371 493.27 191.042 491.566 193.07 491.566C195.098 491.566 196.768 493.27 196.768 495.365ZM189.832 565.192C189.832 561.359 186.781 558.224 183.049 558.224C179.317 558.224 176.266 561.342 176.266 565.192C176.266 569.042 179.317 572.159 183.049 572.159C186.781 572.159 189.832 569.042 189.832 565.192ZM186.747 565.192C186.747 567.287 185.077 568.99 183.049 568.99C181.021 568.99 179.351 567.287 179.351 565.192C179.351 563.096 181.021 561.393 183.049 561.393C185.077 561.393 186.747 563.096 186.747 565.192ZM155.679 738.421C155.679 734.588 152.629 731.453 148.896 731.453C145.164 731.453 142.114 734.571 142.114 738.421C142.114 742.27 145.164 745.388 148.896 745.388C152.629 745.388 155.679 742.27 155.679 738.421ZM152.595 738.421C152.595 740.516 150.924 742.219 148.896 742.219C146.868 742.219 145.198 740.516 145.198 738.421C145.198 736.325 146.868 734.622 148.896 734.622C150.924 734.622 152.595 736.325 152.595 738.421Z" fill="url(#paint0_radial_269_212)" fill-opacity="0.8"/>
<g filter="url(#filter0_f_269_212)">
<path d="M575.115 563.292H552.038L518.768 526.771V563.292H501V452.539H518.768V519.355L550.481 485.982H572.638L536.677 523.133L575.045 563.292H575.115ZM603.501 458.416C612.208 453.449 621.836 451 632.454 451C643.072 451 652.699 453.449 661.406 458.416C670.113 463.384 676.909 470.17 681.864 478.846C686.819 487.521 689.297 497.176 689.297 507.741C689.297 518.305 686.819 528.1 681.864 536.845C676.909 545.591 670.113 552.447 661.406 557.415C652.77 562.382 643.072 564.901 632.454 564.901C621.836 564.901 612.138 562.452 603.501 557.415C594.795 552.447 587.999 545.591 582.973 536.845C578.018 528.1 575.54 518.445 575.54 507.741C575.54 497.036 578.018 487.521 582.973 478.846C587.928 470.17 594.795 463.384 603.501 458.416ZM632.454 468.981C621.765 468.981 612.846 472.689 605.625 480.105C598.405 487.521 594.865 496.756 594.865 507.741C594.865 518.725 598.476 528.1 605.625 535.586C612.846 543.072 621.765 546.85 632.454 546.85C643.143 546.85 651.992 543.072 659.212 535.586C666.432 528.1 670.043 518.795 670.043 507.741C670.043 496.686 666.432 487.521 659.212 480.105C651.992 472.689 643.072 468.981 632.454 468.981ZM738.566 484.373C748.547 484.373 756.475 487.521 762.35 493.748C768.155 499.975 771.128 508.44 771.128 519.215V563.292H753.219V521.383C753.219 515.297 751.52 510.469 748.051 506.761C744.583 503.123 740.052 501.304 734.318 501.304C728.584 501.304 723.7 503.123 720.231 506.761C716.692 510.399 714.993 515.297 714.993 521.383V563.292H697.225V485.982H714.993V498.086C717.471 493.678 720.798 490.32 724.833 487.941C728.868 485.562 733.54 484.373 738.636 484.373H738.566ZM855.083 522.993C855.083 526.561 854.942 529.01 854.588 530.409H794.559C795.692 536.146 798.24 540.693 802.204 543.982C806.168 547.27 811.265 548.949 817.424 548.949C823.582 548.949 826.343 547.9 829.812 545.871C833.28 543.842 835.404 541.113 836.183 537.825H854.092C852.606 545.941 848.5 552.517 841.775 557.415C834.979 562.382 826.768 564.831 817.141 564.831C807.513 564.831 802.7 563.082 796.541 559.514C790.312 556.016 785.427 551.118 781.888 544.891C778.349 538.665 776.508 531.738 776.508 524.182C776.508 516.626 778.278 510.119 781.888 503.963C785.427 497.876 790.312 493.048 796.47 489.55C802.629 486.052 809.425 484.303 816.858 484.303C824.29 484.303 830.237 485.912 836.041 489.2C841.846 492.419 846.447 497.036 849.916 502.983C853.384 508.93 855.083 515.576 855.083 522.923V522.993ZM795.055 515.367H835.687C834.909 510.889 832.714 507.251 829.175 504.522C825.635 501.794 821.176 500.394 815.866 500.394C810.557 500.394 806.168 501.724 802.487 504.312C798.806 506.971 796.4 510.609 795.055 515.367Z" fill="url(#paint1_linear_269_212)"/>
</g>
<path d="M575.115 563.292H552.038L518.768 526.771V563.292H501V452.539H518.768V519.355L550.481 485.982H572.638L536.677 523.133L575.045 563.292H575.115ZM603.501 458.416C612.208 453.449 621.836 451 632.454 451C643.072 451 652.699 453.449 661.406 458.416C670.113 463.384 676.909 470.17 681.864 478.846C686.819 487.521 689.297 497.176 689.297 507.741C689.297 518.305 686.819 528.1 681.864 536.845C676.909 545.591 670.113 552.447 661.406 557.415C652.77 562.382 643.072 564.901 632.454 564.901C621.836 564.901 612.138 562.452 603.501 557.415C594.795 552.447 587.999 545.591 582.973 536.845C578.018 528.1 575.54 518.445 575.54 507.741C575.54 497.036 578.018 487.521 582.973 478.846C587.928 470.17 594.795 463.384 603.501 458.416ZM632.454 468.981C621.765 468.981 612.846 472.689 605.625 480.105C598.405 487.521 594.865 496.756 594.865 507.741C594.865 518.725 598.476 528.1 605.625 535.586C612.846 543.072 621.765 546.85 632.454 546.85C643.143 546.85 651.992 543.072 659.212 535.586C666.432 528.1 670.043 518.795 670.043 507.741C670.043 496.686 666.432 487.521 659.212 480.105C651.992 472.689 643.072 468.981 632.454 468.981ZM738.566 484.373C748.547 484.373 756.475 487.521 762.35 493.748C768.155 499.975 771.128 508.44 771.128 519.215V563.292H753.219V521.383C753.219 515.297 751.52 510.469 748.051 506.761C744.583 503.123 740.052 501.304 734.318 501.304C728.584 501.304 723.7 503.123 720.231 506.761C716.692 510.399 714.993 515.297 714.993 521.383V563.292H697.225V485.982H714.993V498.086C717.471 493.678 720.798 490.32 724.833 487.941C728.868 485.562 733.54 484.373 738.636 484.373H738.566ZM855.083 522.993C855.083 526.561 854.942 529.01 854.588 530.409H794.559C795.692 536.146 798.24 540.693 802.204 543.982C806.168 547.27 811.265 548.949 817.424 548.949C823.582 548.949 826.343 547.9 829.812 545.871C833.28 543.842 835.404 541.113 836.183 537.825H854.092C852.606 545.941 848.5 552.517 841.775 557.415C834.979 562.382 826.768 564.831 817.141 564.831C807.513 564.831 802.7 563.082 796.541 559.514C790.312 556.016 785.427 551.118 781.888 544.891C778.349 538.665 776.508 531.738 776.508 524.182C776.508 516.626 778.278 510.119 781.888 503.963C785.427 497.876 790.312 493.048 796.47 489.55C802.629 486.052 809.425 484.303 816.858 484.303C824.29 484.303 830.237 485.912 836.041 489.2C841.846 492.419 846.447 497.036 849.916 502.983C853.384 508.93 855.083 515.576 855.083 522.923V522.993ZM795.055 515.367H835.687C834.909 510.889 832.714 507.251 829.175 504.522C825.635 501.794 821.176 500.394 815.866 500.394C810.557 500.394 806.168 501.724 802.487 504.312C798.806 506.971 796.4 510.609 795.055 515.367Z" fill="url(#paint2_linear_269_212)"/>
<path d="M602.313 378.294H605.326V400H602.313V378.294ZM616.618 384.561C618.566 384.561 620.105 385.171 621.235 386.392C622.375 387.613 622.945 389.268 622.945 391.357V400H620.085V391.66C620.085 390.338 619.711 389.278 618.964 388.481C618.218 387.684 617.219 387.285 615.967 387.285C614.696 387.285 613.682 387.684 612.925 388.481C612.168 389.278 611.79 390.338 611.79 391.66V400H608.898V384.878H611.79V387.512C612.274 386.574 612.93 385.847 613.757 385.333C614.595 384.818 615.549 384.561 616.618 384.561ZM633.875 387.603H629.788V394.581C629.788 396.519 630.797 397.487 632.815 397.487C633.249 397.487 633.602 397.447 633.875 397.366V400C633.41 400.121 632.86 400.182 632.225 400.182C630.59 400.182 629.298 399.712 628.35 398.774C627.401 397.825 626.927 396.448 626.927 394.642V387.603H623.99V384.878H626.927V380.776H629.788V384.878H633.875V387.603ZM643.245 384.591C643.729 384.591 644.193 384.651 644.637 384.772V387.421C644.103 387.25 643.608 387.164 643.154 387.164C641.994 387.164 641.025 387.563 640.248 388.36C639.481 389.147 639.097 390.186 639.097 391.478V400H636.206V384.878H639.097V387.073C639.552 386.296 640.137 385.691 640.853 385.257C641.57 384.813 642.367 384.591 643.245 384.591ZM652.555 384.561C653.998 384.561 655.315 384.909 656.505 385.605C657.696 386.291 658.634 387.24 659.321 388.451C660.017 389.662 660.365 390.999 660.365 392.462C660.365 394.672 659.608 396.534 658.095 398.047C656.591 399.551 654.744 400.303 652.555 400.303C651.112 400.303 649.79 399.96 648.589 399.273C647.398 398.587 646.46 397.644 645.773 396.443C645.087 395.242 644.744 393.915 644.744 392.462C644.744 390.232 645.496 388.36 646.999 386.846C648.503 385.322 650.355 384.561 652.555 384.561ZM652.555 387.285C651.132 387.285 649.936 387.78 648.967 388.769C648.009 389.757 647.529 390.989 647.529 392.462C647.529 393.905 648.009 395.121 648.967 396.11C649.936 397.089 651.132 397.578 652.555 397.578C653.967 397.578 655.158 397.084 656.127 396.095C657.096 395.106 657.58 393.895 657.58 392.462C657.58 390.989 657.096 389.757 656.127 388.769C655.158 387.78 653.967 387.285 652.555 387.285ZM674.821 378.294H677.682V400H674.821V396.897C674.256 397.997 673.484 398.84 672.505 399.425C671.527 400.01 670.376 400.303 669.054 400.303C667.016 400.303 665.28 399.541 663.847 398.017C662.424 396.483 661.713 394.621 661.713 392.432C661.713 390.242 662.424 388.385 663.847 386.861C665.28 385.327 667.016 384.561 669.054 384.561C670.376 384.561 671.527 384.853 672.505 385.438C673.484 386.024 674.256 386.866 674.821 387.966V378.294ZM669.645 397.578C671.138 397.578 672.374 397.094 673.353 396.125C674.332 395.156 674.821 393.925 674.821 392.432C674.821 390.938 674.332 389.707 673.353 388.738C672.374 387.77 671.138 387.285 669.645 387.285C668.212 387.285 666.996 387.785 665.997 388.784C664.998 389.783 664.498 390.999 664.498 392.432C664.498 393.865 664.998 395.081 665.997 396.08C666.996 397.079 668.212 397.578 669.645 397.578ZM692.214 384.878H695.075V400H692.214V397.336C691.73 398.285 691.069 399.016 690.231 399.531C689.404 400.045 688.445 400.303 687.355 400.303C685.418 400.303 683.879 399.697 682.738 398.486C681.598 397.265 681.028 395.62 681.028 393.552V384.878H683.919V393.204C683.919 394.526 684.287 395.585 685.024 396.382C685.771 397.18 686.765 397.578 688.006 397.578C689.288 397.578 690.307 397.18 691.064 396.382C691.831 395.585 692.214 394.526 692.214 393.204V384.878ZM705.459 400.303C704.016 400.303 702.694 399.96 701.493 399.273C700.303 398.587 699.364 397.644 698.678 396.443C697.992 395.242 697.649 393.915 697.649 392.462C697.649 390.232 698.4 388.36 699.904 386.846C701.408 385.322 703.259 384.561 705.459 384.561C707.225 384.561 708.784 385.09 710.136 386.15C711.499 387.199 712.306 388.511 712.558 390.085H709.637C709.415 389.278 708.91 388.612 708.123 388.087C707.336 387.553 706.448 387.285 705.459 387.285C704.036 387.285 702.841 387.78 701.872 388.769C700.913 389.757 700.434 390.989 700.434 392.462C700.434 393.905 700.913 395.121 701.872 396.11C702.841 397.089 704.036 397.578 705.459 397.578C706.468 397.578 707.372 397.311 708.169 396.776C708.966 396.231 709.465 395.53 709.667 394.672H712.558C712.336 396.317 711.549 397.669 710.197 398.729C708.845 399.778 707.266 400.303 705.459 400.303ZM716.54 378.082C717.055 378.082 717.504 378.274 717.887 378.657C718.271 379.041 718.462 379.49 718.462 380.004C718.462 380.529 718.271 380.983 717.887 381.367C717.504 381.74 717.055 381.927 716.54 381.927C716.005 381.927 715.551 381.74 715.178 381.367C714.804 380.993 714.618 380.539 714.618 380.004C714.618 379.49 714.804 379.041 715.178 378.657C715.561 378.274 716.015 378.082 716.54 378.082ZM715.087 384.878H717.978V400H715.087V384.878ZM729.028 384.561C730.976 384.561 732.515 385.171 733.645 386.392C734.785 387.613 735.355 389.268 735.355 391.357V400H732.495V391.66C732.495 390.338 732.121 389.278 731.375 388.481C730.628 387.684 729.629 387.285 728.377 387.285C727.106 387.285 726.092 387.684 725.335 388.481C724.578 389.278 724.2 390.338 724.2 391.66V400H721.309V384.878H724.2V387.512C724.684 386.574 725.34 385.847 726.167 385.333C727.005 384.818 727.959 384.561 729.028 384.561ZM751.038 384.878H753.899V399.47C753.899 401.559 753.187 403.229 751.764 404.48C750.352 405.732 748.53 406.357 746.3 406.357C745.452 406.357 744.62 406.257 743.802 406.055C742.985 405.853 742.203 405.545 741.456 405.131C740.72 404.728 740.109 404.163 739.625 403.436C739.15 402.72 738.893 401.892 738.853 400.954H741.683C741.724 401.862 742.178 402.588 743.046 403.133C743.913 403.688 744.968 403.966 746.209 403.966C747.592 403.966 748.742 403.562 749.66 402.755C750.579 401.948 751.038 400.893 751.038 399.591V396.625C750.473 397.694 749.696 398.522 748.707 399.107C747.728 399.682 746.582 399.97 745.271 399.97C743.232 399.97 741.497 399.218 740.064 397.714C738.641 396.211 737.929 394.389 737.929 392.25C737.929 390.847 738.252 389.556 738.898 388.375C739.554 387.194 740.442 386.266 741.562 385.59C742.692 384.904 743.929 384.561 745.271 384.561C746.582 384.561 747.728 384.848 748.707 385.423C749.696 385.999 750.473 386.816 751.038 387.875V384.878ZM745.861 397.306C747.354 397.306 748.591 396.831 749.569 395.883C750.548 394.924 751.038 393.713 751.038 392.25C751.038 390.807 750.548 389.611 749.569 388.663C748.591 387.704 747.354 387.225 745.861 387.225C744.428 387.225 743.212 387.714 742.213 388.693C741.214 389.672 740.714 390.857 740.714 392.25C740.714 393.663 741.214 394.859 742.213 395.837C743.212 396.816 744.428 397.306 745.861 397.306Z" fill="url(#paint3_linear_269_212)"/>
<defs>
<filter id="filter0_f_269_212" x="484" y="434" width="388.084" height="147.901" filterUnits="userSpaceOnUse" color-interpolation-filters="sRGB">
<feFlood flood-opacity="0" result="BackgroundImageFix"/>
<feBlend mode="normal" in="SourceGraphic" in2="BackgroundImageFix" result="shape"/>
<feGaussianBlur stdDeviation="8.5" result="effect1_foregroundBlur_269_212"/>
</filter>
<radialGradient id="paint0_radial_269_212" cx="0" cy="0" r="1" gradientUnits="userSpaceOnUse" gradientTransform="translate(675.891 476.522) rotate(0.40983) scale(1008.87 716.003)">
<stop offset="0.21" stop-color="#FFF3E3"/>
<stop offset="0.23" stop-color="#EDEBDC" stop-opacity="0.98"/>
<stop offset="0.28" stop-color="#C1D6CC" stop-opacity="0.93"/>
<stop offset="0.34" stop-color="#78B5B3" stop-opacity="0.84"/>
<stop offset="0.41" stop-color="#168890" stop-opacity="0.72"/>
<stop offset="0.43" stop-color="#027F89" stop-opacity="0.7"/>
<stop offset="0.58" stop-color="#053942" stop-opacity="0.5"/>
<stop offset="0.77" stop-opacity="0.4"/>
</radialGradient>
<linearGradient id="paint1_linear_269_212" x1="481.604" y1="554.756" x2="896.73" y2="446.408" gradientUnits="userSpaceOnUse">
<stop stop-color="#FFF9F5"/>
<stop offset="0.5" stop-color="#FBE2C3"/>
<stop offset="0.6" stop-color="#F6E0C2"/>
<stop offset="0.7" stop-color="#D4D2BA"/>
<stop offset="0.8" stop-color="#B6C7B4"/>
<stop offset="0.9" stop-color="#60A5A2"/>
<stop offset="1" stop-color="#268F96"/>
</linearGradient>
<linearGradient id="paint2_linear_269_212" x1="481.604" y1="554.756" x2="896.73" y2="446.408" gradientUnits="userSpaceOnUse">
<stop stop-color="#FFF9F5"/>
<stop offset="0.5" stop-color="#FBE2C3"/>
<stop offset="0.6" stop-color="#F6E0C2"/>
<stop offset="0.7" stop-color="#D4D2BA"/>
<stop offset="0.8" stop-color="#B6C7B4"/>
<stop offset="0.9" stop-color="#60A5A2"/>
<stop offset="1" stop-color="#268F96"/>
</linearGradient>
<linearGradient id="paint3_linear_269_212" x1="447" y1="387" x2="909" y2="387" gradientUnits="userSpaceOnUse">
<stop offset="0.394231" stop-color="#FFF5ED"/>
<stop offset="1" stop-color="#FFC99E"/>
</linearGradient>
</defs>
</svg>
