<svg width="393" height="643" viewBox="0 0 393 643" fill="none" xmlns="http://www.w3.org/2000/svg">
<g clip-path="url(#clip0_413_196)">
<path opacity="0.6" d="M89.5287 311.593L78.7289 300.522H54.6079V298.798H79.4149L90.706 310.37L89.5194 311.583L89.5287 311.593ZM90.7153 321.839L79.4242 310.268H54.6171V311.991H78.7382L89.538 323.062L90.7246 321.848L90.7153 321.839ZM89.2876 340.211H27.7799V341.934H89.2876V340.211ZM-73.9235 298.27H-16.5409L1.56374 279.714H66.9928L87.86 301.096L89.0467 299.882L67.6881 277.99H0.868484L-17.2362 296.547H-74.6187L-100.724 323.303H-139.909L-155.371 307.451H-178V309.175H-156.067L-140.604 325.026H-100.028L-73.9235 298.27ZM-73.9235 290.247H-16.5409L1.56374 271.69H66.9928L87.86 293.073L89.0467 291.859L67.6881 269.967H0.868484L-17.2362 288.524H-74.6187L-100.724 315.28H-139.909L-155.371 299.428H-178V301.152H-156.067L-140.604 317.003H-100.028L-73.9235 290.247ZM91.2808 389.368L90.0941 388.155L69.227 409.537H3.7979L-14.3068 390.98H-71.6986L-97.8035 364.224H-138.379L-153.842 380.076H-175.775V381.799H-153.147L-137.684 365.948H-98.4988L-72.3939 392.703H-15.0021L3.10262 411.26H69.9222L91.2808 389.368ZM91.2808 397.391L90.0941 396.178L69.227 417.56H3.7979L-14.3068 399.003H-71.6986L-97.8035 372.247H-138.379L-153.842 388.099H-175.775V389.822H-153.147L-137.684 373.971H-98.4988L-72.3939 400.726H-15.0021L3.10262 419.283H69.9222L91.2808 397.391ZM-72.0323 305.654H-16.3277L2.68546 286.171H27.7799V284.448H1.9902L-17.023 303.931H-73.7103V332.299H-72.0323V305.645V305.654ZM-35.4058 353.227H-98.8788V337.033H-145.647L-157.531 324.85H-173.819V326.573H-158.227L-146.342 338.756H-100.557V354.951H-35.4058V353.227ZM64.7587 371.275H88.7407V369.551H64.0728L45.6158 388.47H3.25093L-26.2468 358.239H-26.5898C-26.9606 358.239 -64.4308 358.008 -101.456 357.887C-123.204 357.823 -140.548 357.804 -153.008 357.841C-177.036 357.915 -177.073 358.008 -177.37 358.749L-177.184 359.703L-176.582 359.092L-175.784 359.333C-175.886 359.685 -176.164 359.861 -176.331 359.898C-173.217 359.24 -77.4461 359.648 -26.9328 359.963L2.56494 390.202H46.3203L64.7772 371.284L64.7587 371.275ZM55.4607 399.151H3.17682L-14.0843 381.456H-69.1308C-69.9373 380.78 -73.1633 377.389 -76.0185 374.286L-77.2422 375.462C-70.1598 383.17 -69.8167 383.17 -69.3718 383.17H-14.7796L2.48154 400.865H55.4607V399.142V399.151ZM-7.32634 162.721L-21.2131 138.069H-48.9866L-62.8734 162.721L-48.9866 187.374H-21.2131L-7.32634 162.721ZM-60.9452 162.721L-48.0225 139.782H-22.1865L-9.26381 162.721L-22.1865 185.66H-48.0225L-60.9452 162.721ZM-41.2553 121.67L-62.1874 100.214L-63.374 101.427L-42.9332 122.384V138.939H-41.2553V121.68V121.67ZM-36.2216 121.67L-57.1537 100.214L-58.3403 101.427L-37.8995 122.384V138.939H-36.2216V121.68V121.67ZM-31.466 121.67L-52.3981 100.214L-53.5846 101.427L-33.1439 122.384V138.939H-31.466V121.68V121.67ZM-58.3124 155.263H-118.634L-133.596 139.931H-164.28V141.654H-134.291L-119.329 156.987H-58.3124V155.263ZM-118.634 170.744H-58.3124V169.021H-119.329L-134.291 184.354H-164.28V186.077H-133.596L-118.634 170.744ZM-35.6654 161.573H-168.758V163.296H-35.6654V161.573ZM-51.8419 180.519L-53.0285 179.305L-74.0347 200.836H-154.769V202.559H-73.3395L-51.8419 180.528V180.519ZM-45.1673 197.75V186.216H-46.8452V197.037L-70.4008 221.18H-150.857V222.904H-69.7055L-45.1673 197.75ZM-40.9308 201.428L-40.6898 201.178V186.791H-42.3677V200.484C-52.6298 211.323 -68.0183 227.378 -69.9929 228.916H-150.569V230.639H-69.7704C-69.3254 230.639 -68.5745 230.639 -40.9308 201.438V201.428ZM-63.3461 247.325L-35.6654 218.957V186.503H-37.3433V218.244L-65.0241 246.611V261.583H-159.246V263.306H-63.3461V247.325ZM-78.1599 238.375H-121.776V240.099H-79.8378V254.431H-152.535V256.154H-78.1599V238.385V238.375ZM41.7871 218.957V192.525H40.1093V218.253L23.2653 235.513H-30.9097V186.503H-32.5876V237.227H23.9606L41.7871 218.957ZM-58.1734 252.346L-46.734 240.617L-47.9205 239.404L-59.8513 251.633V273.914H-159.812V275.637H-58.1827V252.346H-58.1734ZM27.8077 212.87H-12.666L-27.832 197.324V186.791H-29.5099V198.038L-13.3613 214.593H27.8077V212.87ZM7.67284 193.378H-23.6419V186.503H-25.3198V195.101H7.67284V193.378ZM-15.2524 251.272H55.0714V180.556L47.4512 172.746H-14.965V174.469H46.756L53.3934 181.269V249.548H-16.9303V262.157H-15.2524V251.272ZM133.525 302.532L70.9976 238.449V158.923L51.354 138.791V75.3108H49.6761V139.505L69.3196 159.636V239.163L132.338 303.755L133.525 302.541V302.532ZM41.5091 101.103H39.8312V156.987H-11.3311V158.71H41.5091V101.103ZM30.459 138.569V104.253H28.7811V137.855L15.432 151.539H-13.8618V153.262H16.118L30.4497 138.569H30.459ZM3.7979 106.866L2.61128 105.652L-28.9815 138.031L-27.795 139.245L3.7979 106.866ZM-4.13739 119.011H16.0623V136.067H2.91722V137.791H17.7403V117.298H-4.83267L-25.3476 138.328L-24.161 139.542L-4.13739 119.021V119.011ZM-34.5807 432.291L-55.6612 410.686H-56.0134C-83.1195 410.843 -154.009 411.149 -156.456 410.723L-156.669 411.547L-156.206 410.834L-157.133 412.261C-156.845 412.455 -156.085 412.983 -56.3564 412.409L-35.7766 433.504L-34.59 432.291H-34.5807ZM28.3639 439.35H-39.2344L-55.448 422.73H-154.769V424.453H-56.1432L-39.9296 441.073H28.3639V439.35ZM80.8332 446.975C84.5969 443.01 104.463 422.544 105.121 422.063L104.648 421.349L104.315 420.867L104.176 420.636C103.341 421.201 81.992 443.288 79.8691 445.52H-149.188V447.244H80.5737L80.8239 446.984L80.8332 446.975ZM-114.444 455.109H92.4581L121.038 425.824L119.852 424.61L91.7628 453.395H-115.139L-131.64 470.303H-152.266V472.026H-130.944L-114.444 455.118V455.109ZM-76.139 462.132H95.1187L127.62 428.816V387.126H125.942V428.112L94.4234 460.418H-76.8343L-106.406 490.722H-152.544V492.445H-105.711L-76.139 462.141V462.132ZM-98.3968 469.821L-99.5834 468.607L-116.251 485.691H-150.291V487.414H-115.556L-98.3968 469.821ZM-73.8956 471.452H-44.1105L-39.3549 476.325H-15.1782L-5.38887 466.291H96.9448L134.758 427.529V376.657H133.08V426.815L96.2496 464.568H-6.08414L-15.8735 474.602H-38.6689L-43.4245 469.728H-74.5909L-145.295 542.195L-144.108 543.409L-73.8956 471.442V471.452ZM-14.418 491.222H-62.79V540.796H-14.418V491.222ZM-61.1028 492.945H-16.0867V539.082H-61.1028V492.945ZM96.3052 488.415C112.204 471.674 136.269 446.632 138.012 445.576C138.012 445.576 137.882 445.65 137.687 445.65V443.927C137.205 443.927 136.213 443.927 94.8683 487.461L94.6273 487.711V498.087H9.13754L-7.07607 481.467H-31.1879V491.787H-29.5099V483.19H-7.77132L8.44226 499.81H96.3052V488.406V488.415ZM-105.98 527.465L-71.6615 492.288H-42.1638C-42.0896 492.945 -42.275 494.576 -42.6273 496.105L-40.9957 496.503C-40.5415 494.53 -40.1521 491.982 -40.8752 491.046C-41.1069 490.74 -41.4407 490.574 -41.8115 490.574H-72.3568L-107.658 526.761V561.938H-105.98V527.474V527.465ZM-82.6375 518.654H-62.2245V516.931H-84.3154V559.344H-82.6375V518.645V518.654ZM84.7082 531.986L69.8202 516.727H-15.2431V518.451H69.125L83.0303 532.709V559.724H84.7082V531.995V531.986ZM84.7082 526.26L69.8202 511.002H-15.2431V512.725H69.125L83.0303 526.983V553.998H84.7082V526.27V526.26ZM84.7082 536.285L69.8202 521.026H-15.2431V522.749H69.125L83.0303 537.007V564.023H84.7082V536.294V536.285ZM110.85 492.723L147.894 454.748V376.657H146.216V454.034L109.172 492.01V553.405H110.85V492.723ZM122.586 498.458L157.535 462.632V377.232H155.857V461.918L120.908 497.744V550.543H122.586V498.458ZM128.037 519.516L167.352 479.215C167.741 478.817 168.121 478.428 168.094 458.12H166.416C166.434 473.573 166.193 477.344 166.036 478.131L126.35 518.803V549.394H128.028V519.516H128.037ZM135.314 519.516L174.629 479.215C175.056 478.78 175.575 478.243 175.297 442.778C175.158 425.426 174.879 377.102 174.879 376.926L173.202 376.954C173.628 403.626 174.008 474.861 173.322 478.122L133.636 518.793V549.385H135.314V519.507V519.516ZM247.289 492.01L210.245 454.034V376.657H208.567V454.748L245.611 492.723V553.405H247.289V492.01ZM235.544 497.744L200.595 461.918V377.232H198.917V462.632L233.866 498.458V550.543H235.544V497.744ZM230.093 518.812L190.407 478.141C190.212 477.14 189.842 471.053 190.147 438.359L188.47 438.34C188.099 478.205 188.655 478.771 189.1 479.225L228.415 519.525V549.403H230.093V518.812ZM222.825 518.812L183.139 478.141C182.453 474.87 182.833 403.645 183.26 376.972L181.582 376.944C181.582 377.121 181.304 425.435 181.165 442.797C180.887 478.261 181.406 478.798 181.832 479.234L221.147 519.534V549.412H222.825V518.821V518.812ZM150.545 545.948L150.267 521.517L169.113 502.201L167.927 500.987L148.58 520.813L148.867 545.966L150.545 545.948ZM204.507 519.877H178.782V521.6H202.829V552.553H204.507V519.886V519.877ZM177.735 225.266C178.161 187.513 177.392 186.698 176.928 186.216L176.622 185.929H176.39C175.463 185.438 170.967 181.371 151.722 160.489C151.203 159.924 150.823 159.516 150.61 159.284C150.23 155.745 150.443 113.203 150.675 84.9181L148.997 84.8996C148.997 85.0849 148.839 103.651 148.765 122.06C148.608 159.655 148.858 159.914 149.247 160.313C149.321 160.396 149.776 160.878 150.499 161.665C169.975 182.807 174.332 186.744 175.667 187.476C176.613 191.71 176.047 279.287 175.417 307.461L177.095 307.498C177.095 307.312 177.503 243.749 177.716 225.266H177.735ZM168.937 191.738C168.937 191.275 168.937 190.302 145.66 167.511V93.5156H143.982V168.252L144.241 168.502C152.594 176.683 166.026 190.07 167.259 191.932V200.984H136.019V202.707H168.937V191.747V191.738ZM168.307 230.714L153.762 215.807H123.847V66H122.169V217.53H153.067L166.629 231.427V305.552H168.307V230.714ZM159.074 242.748L144.742 228.055H109.589V229.778H144.056L157.405 243.462V287.755H159.083V242.748H159.074ZM147.338 250.919L129.863 233.002H102.461V128.257L113.993 116.436V90.9308H112.315V115.723L100.783 127.544V234.725H129.168L145.66 251.633V294.194H147.338V250.929V250.919ZM130.929 277.24L92.6064 236.939V152.901L69.6441 129.369V76.3114H67.9662V130.083L90.9285 153.614V237.653L129.743 278.454L130.929 277.24ZM132.654 98.6666H130.976V167.872H132.654V98.6666ZM188.229 181.491L164.534 157.2V79.3224H162.856V157.913L186.551 182.205V314.78H188.229V181.491ZM194.31 179.555L169.15 153.763V96.9434H167.473V154.476L192.632 180.268V225.479H194.31V179.555ZM350.383 375.332H326.262L315.24 364.03L314.924 364.011C312.95 363.9 291.183 364.011 290.256 364.011V365.734C290.479 365.734 311.207 365.633 314.516 365.725L325.576 377.056H350.383V375.332ZM350.383 363.872H326.262L315.221 352.551H296.949V354.274H314.526L325.566 365.595H350.374V363.872H350.383ZM422.227 379.298H479.619L505.724 352.542H544.909L560.371 368.393H583V366.67H561.067L545.604 350.819H505.028L478.923 377.574H421.532L403.427 396.131H331.703L318.076 382.16H253.435V383.884H317.381L331.008 397.854H404.122L422.227 379.298ZM422.227 387.321H479.619L505.724 360.565H544.909L560.371 376.416H583V374.693H561.067L545.604 358.842H505.028L478.923 385.598H421.532L403.427 404.154H355.954V405.878H404.122L422.227 387.321ZM558.833 295.778H580.766V294.055H558.137L542.675 309.907H503.489L477.385 283.151H420.002L401.897 264.594H335.078L313.969 286.226H258.886V287.95H314.665L335.773 266.317H401.202L419.307 284.874H476.689L502.794 311.63H543.37L558.833 295.778ZM558.833 287.755H580.766V286.032H558.137L542.675 301.884H503.489L477.385 275.128H420.002L401.897 256.571H335.078L313.719 278.463L314.906 279.676L335.773 258.294H401.202L419.307 276.851H476.689L502.794 303.607H543.37L558.833 287.755ZM422.023 371.923H478.71V343.555H477.032V370.209H421.328L402.314 389.692H377.22V391.416H403.01L422.023 371.932V371.923ZM578.81 349.281H563.217L551.333 337.098H505.547V320.904H440.452C436.929 320.505 379.593 320.839 369.526 320.904V307.081L381.614 294.685H395.946V309.731H397.624V292.962H380.919L367.848 306.358V322.627H368.691C396.474 322.451 438.45 322.302 440.239 322.608L440.322 322.627H503.87V338.821H550.638L562.522 351.004H578.81V349.281ZM558.008 318.013C582.036 317.939 582.073 317.846 582.37 317.105L582.184 316.151L581.582 316.762L580.794 316.521C580.896 316.169 581.174 315.993 581.341 315.956C578.226 316.614 482.455 316.206 431.942 315.891L402.444 285.652H358.689L340.232 304.57H240.04V306.293H340.927L359.384 287.375H401.749L431.247 317.605H431.59C431.961 317.605 469.431 317.837 506.456 317.957C520.574 318.004 532.839 318.022 543.11 318.022C548.663 318.022 553.632 318.022 558.008 318.004V318.013ZM490.493 308.85C475.15 292.684 474.835 292.684 474.372 292.684H419.779L402.518 274.989H349.539V276.712H401.823L419.084 294.407H474.103C475.521 295.648 484.022 304.505 489.288 310.055L490.493 308.86V308.85ZM450.927 513.781L437.041 489.128H409.267L395.38 513.781L409.267 538.434H437.041L450.927 513.781ZM397.318 513.781L410.241 490.842H436.077L448.999 513.781L436.077 536.72H410.241L397.318 513.781ZM451.428 575.075L430.987 554.119V537.563H429.309V554.832L450.241 576.289L451.428 575.075ZM446.394 575.075L425.953 554.119V537.563H424.276V554.832L445.208 576.289L446.394 575.075ZM441.639 575.075L421.198 554.119V537.563H419.52V554.832L440.452 576.289L441.639 575.075ZM552.334 534.839H522.345L507.383 519.507H446.366V521.23H506.688L521.65 536.563H552.334V534.839ZM522.345 492.139H552.334V490.416H521.65L506.688 505.749H446.366V507.472H507.383L522.345 492.139ZM556.802 513.207H423.719V514.93H556.802V513.207ZM462.089 475.667H542.823V473.944H461.393L439.896 495.975L441.083 497.188L462.089 475.658V475.667ZM434.899 479.456L458.455 455.313H538.911V453.59H457.76L433.221 478.743V490.277H434.899V479.456ZM430.422 476.01C440.684 465.17 456.072 449.115 458.047 447.577H538.624V445.854H457.815C457.37 445.854 456.619 445.854 428.976 475.056L428.735 475.306V489.693H430.412V476.001L430.422 476.01ZM425.397 458.25L453.078 429.882V414.91H547.3V413.187H451.4V429.168L423.719 457.536V489.99H425.397V458.25ZM509.83 436.404H467.892V422.072H540.589V420.349H466.214V438.118H509.83V436.395V436.404ZM420.642 439.267H364.094L346.267 457.536V483.968H347.945V458.25L364.789 440.981H418.964V489.99H420.642V439.267ZM447.896 424.87V402.589H547.857V400.865H446.227V424.156L437.439 433.171L438.626 434.384L447.905 424.87H447.896ZM417.564 478.465L401.415 461.909H360.246V463.632H400.72L415.886 479.178V489.712H417.564V478.465ZM413.374 481.392H380.381V483.116H411.696V489.99H413.374V481.392ZM403.028 502.034H341.307L334.67 495.234V426.954H404.984V414.345H403.306V425.231H332.992V495.947L340.612 503.757H403.028V502.034ZM338.369 536.998L318.725 516.866V437.34L278.112 395.714H250.923V397.438H277.417L317.047 438.062V517.589L336.691 537.721V601.201H338.369V537.007V536.998ZM348.223 519.507H399.385V517.783H346.545V575.39H348.223V519.507ZM359.264 538.638L372.613 524.954H401.907V523.231H371.917L357.586 537.924V572.24H359.264V538.638ZM417.036 538.462L415.849 537.248L384.256 569.628L385.443 570.841L417.036 538.462ZM413.402 538.175L412.215 536.961L392.191 557.491H371.992V540.444H385.137V538.721H370.314V559.214H392.887L413.402 538.184V538.175ZM413.235 261.305C440.341 261.147 511.23 260.842 513.677 261.277L513.891 260.453L513.427 261.166L514.354 259.739C514.067 259.545 513.307 259.026 413.578 259.591L392.998 238.496L391.811 239.709L412.892 261.314H413.244L413.235 261.305ZM513.881 247.547H415.256L399.042 230.927H330.749V232.65H398.347L414.56 249.27H513.881V247.547ZM279.234 226.48H508.292V224.757H278.529L278.279 225.016C274.516 228.981 268.295 235.457 267.646 235.939L268.119 236.652L267.656 235.939L268.583 237.365C269.417 236.8 277.12 228.703 279.234 226.48ZM267.35 218.605H474.251L490.752 201.697H511.378V199.974H490.057L473.556 216.882H266.654L251.729 232.177L252.916 233.391L267.35 218.596V218.605ZM233.17 243.888L264.689 211.573H435.938L465.509 181.269H511.647V179.546H464.814L435.242 209.85H263.994L231.493 243.165V309.471H233.17V243.869V243.888ZM475.364 190.802H509.404V189.079H474.668L457.509 206.672L458.696 207.886L475.364 190.802ZM262.872 207.423H365.206L374.995 197.389H397.791L402.546 202.262H433.722L521.214 112.582L520.027 111.368L433.027 200.548H403.242L398.486 195.675H374.309L364.52 205.709H262.186L234.348 234.243L235.534 235.457L262.881 207.423H262.872ZM421.893 131.194H373.521V180.769H421.893V131.194ZM375.208 132.918H420.225V179.055H375.208V132.918ZM222.269 308.313C221.879 295.621 221.481 229.926 222.074 227.73C223.854 226.378 231.029 219.504 264.253 184.53L264.494 184.28V173.904H349.984L366.198 190.524H390.31V180.204H388.632V188.801H366.893L350.68 172.18H262.816V183.585C246.918 200.326 222.853 225.368 221.11 226.424C221.11 226.424 221.24 226.35 221.434 226.35L220.785 226.637C220.387 227.054 219.896 227.573 220.183 245.704C220.322 254.496 220.591 308.295 220.6 308.378L222.278 308.322L222.269 308.313ZM221.481 228.055C221.564 228.055 221.703 227.999 222.037 227.749C221.944 227.879 221.75 228.036 221.481 228.055ZM466.77 149.751V114.574H465.092V149.038L430.774 184.215H401.276C401.202 183.557 401.387 181.927 401.74 180.398L400.108 180C399.654 181.973 399.265 184.521 399.988 185.456C400.219 185.762 400.553 185.929 400.924 185.929H431.469L466.77 149.742V149.751ZM443.428 117.149H441.75V157.839H421.337V159.562H443.428V117.149ZM374.365 153.55H289.997L276.091 139.291V112.276H274.414V140.005L289.301 155.263H374.365V153.54V153.55ZM374.365 159.275H289.997L276.091 145.017V118.002H274.414V145.73L289.301 160.989H374.365V159.266V159.275ZM374.365 149.251H289.997L276.091 134.993V107.977H274.414V135.706L289.301 150.965H374.365V149.242V149.251ZM265.885 454.47H234.987L221.425 440.573V378.668H219.747V441.286L234.292 456.193H264.207V606H265.885V454.47ZM274.154 442.213H243.998L230.649 428.529V379.094H228.971V429.243L243.303 443.936H272.476V468.867H274.154V442.213ZM275.739 556.277L287.271 544.456V437.275H258.886L242.394 420.367V379.094H240.716V421.081L258.191 438.998H285.593V543.743L274.061 555.564V581.069H275.739V556.277ZM320.088 546.42L297.126 522.888V438.85L271.929 413.02L270.743 414.234L295.448 439.563V523.602L318.41 547.133V600.191H320.088V546.42ZM316.194 335.643H377.229V333.92H315.24L310.336 342.406H290.683V344.13H311.29L316.194 335.643ZM399.302 367.55H366.726L346.647 346.965H331.203V348.688H345.952L366.031 369.273H399.302V367.55ZM428.243 329.936H493.672V346.705H533.099V344.982H495.35V328.213H426.565V349.707H428.243V329.936ZM207.307 161.86H205.629V321.83H207.307V161.86ZM207.205 163.546C209.327 163.342 211.237 162.304 212.6 160.628C213.963 158.951 214.602 156.829 214.398 154.652C214.204 152.484 213.193 150.52 211.552 149.121C209.911 147.731 207.844 147.074 205.721 147.277C203.598 147.481 201.689 148.519 200.326 150.196C197.517 153.661 197.99 158.821 201.364 161.693C202.811 162.925 204.59 163.574 206.435 163.574C206.685 163.574 206.936 163.564 207.186 163.537L207.205 163.546ZM210.486 150.446C211.775 151.548 212.581 153.096 212.73 154.81C212.887 156.523 212.377 158.2 211.302 159.525C210.227 160.85 208.716 161.665 207.047 161.823C205.378 161.98 203.738 161.461 202.449 160.368C199.779 158.098 199.408 154.022 201.624 151.289C202.699 149.964 204.21 149.149 205.879 148.991C206.074 148.973 206.278 148.964 206.472 148.964C207.937 148.964 209.337 149.482 210.477 150.455L210.486 150.446ZM206.889 91.7924H205.212V148.537H206.889V91.7924ZM281.505 103.79L280.319 102.576L227.933 156.273H213.601V157.996H228.628L281.505 103.799V103.79ZM231.048 178.397L230.76 178.138C222.222 170.42 213.165 161.526 212.785 159.998C212.785 159.998 212.785 160.025 212.785 160.072H211.107C211.107 162.304 222.408 172.875 229.36 179.175V192.377H231.038V178.397H231.048ZM28.8552 341.045C28.8552 337.848 26.3152 335.245 23.1911 335.245C20.0671 335.245 17.5271 337.848 17.5271 341.045C17.5271 344.241 20.0671 346.844 23.1911 346.844C26.3152 346.844 28.8552 344.241 28.8552 341.045ZM27.1773 341.045C27.1773 343.296 25.3882 345.13 23.1911 345.13C20.9941 345.13 19.205 343.296 19.205 341.045C19.205 338.793 20.9941 336.959 23.1911 336.959C25.3882 336.959 27.1773 338.793 27.1773 341.045ZM175.028 502.506C176.159 501.478 176.826 500.06 176.919 498.513C177.012 496.966 176.502 495.474 175.5 494.316C174.499 493.158 173.109 492.473 171.598 492.38C168.464 492.186 165.795 494.641 165.618 497.837C165.433 501.033 167.825 503.785 170.94 503.97C171.051 503.97 171.162 503.979 171.273 503.979C172.664 503.979 173.98 503.47 175.028 502.516V502.506ZM171.496 494.094C173.693 494.224 175.371 496.16 175.241 498.411C175.176 499.505 174.703 500.496 173.915 501.228C173.118 501.95 172.108 502.312 171.032 502.256C168.835 502.126 167.157 500.19 167.287 497.939C167.408 495.771 169.169 494.094 171.264 494.094C171.338 494.094 171.422 494.094 171.496 494.094ZM271.568 415.086C272.699 414.058 273.366 412.641 273.459 411.093C273.644 407.897 271.252 405.146 268.138 404.96C266.627 404.868 265.171 405.387 264.04 406.415C262.909 407.443 262.242 408.861 262.149 410.408C262.056 411.955 262.566 413.447 263.567 414.605C264.569 415.763 265.959 416.448 267.47 416.541C267.581 416.541 267.693 416.55 267.804 416.55C269.194 416.55 270.511 416.041 271.558 415.086H271.568ZM268.036 406.674C270.233 406.804 271.911 408.74 271.781 410.992C271.651 413.243 269.778 414.947 267.572 414.827C266.506 414.762 265.533 414.28 264.828 413.465C264.124 412.65 263.762 411.603 263.827 410.51C263.892 409.417 264.365 408.425 265.153 407.693C265.885 407.026 266.821 406.665 267.795 406.665C267.869 406.665 267.952 406.665 268.036 406.665V406.674ZM355.361 409.287C356.492 408.259 357.159 406.841 357.252 405.294C357.437 402.098 355.046 399.346 351.931 399.161C350.42 399.068 348.964 399.587 347.833 400.615C346.703 401.644 346.035 403.061 345.942 404.608C345.85 406.155 346.359 407.647 347.361 408.805C348.362 409.963 349.753 410.649 351.264 410.741C351.375 410.741 351.486 410.751 351.597 410.751C352.988 410.751 354.304 410.241 355.352 409.287H355.361ZM351.829 400.875C354.026 401.004 355.704 402.941 355.574 405.192C355.444 407.443 353.581 409.148 351.365 409.027C350.299 408.963 349.326 408.481 348.621 407.666C347.917 406.85 347.555 405.803 347.62 404.71C347.685 403.617 348.158 402.626 348.946 401.894C349.678 401.227 350.615 400.865 351.588 400.865C351.662 400.865 351.746 400.865 351.829 400.865V400.875ZM274.46 477.853C275.684 477.483 276.694 476.658 277.297 475.51C277.908 474.361 278.047 473.045 277.686 471.794C276.944 469.21 274.293 467.727 271.772 468.478C269.25 469.237 267.804 471.952 268.536 474.537C268.898 475.787 269.704 476.825 270.826 477.446C271.54 477.844 272.318 478.048 273.106 478.048C273.561 478.048 274.006 477.983 274.451 477.844L274.46 477.853ZM276.082 476.779C276.564 478.456 275.619 480.216 273.987 480.707C273.199 480.948 272.365 480.855 271.642 480.448C270.919 480.04 270.39 479.373 270.159 478.567C269.676 476.89 270.622 475.13 272.254 474.639C272.541 474.555 272.838 474.509 273.116 474.509C274.451 474.509 275.684 475.408 276.082 476.779ZM178.384 524.287C179.515 523.259 180.182 521.841 180.275 520.294C180.46 517.098 178.068 514.346 174.954 514.161C171.82 513.966 169.15 516.422 168.974 519.618C168.882 521.165 169.391 522.657 170.393 523.815C171.403 524.973 172.784 525.658 174.295 525.751C174.407 525.751 174.518 525.76 174.629 525.76C176.02 525.76 177.336 525.251 178.384 524.296V524.287ZM174.852 515.875C177.049 516.005 178.727 517.941 178.597 520.192C178.532 521.285 178.059 522.277 177.271 523.009C176.474 523.731 175.454 524.093 174.388 524.037C173.322 523.972 172.349 523.49 171.644 522.675C170.94 521.86 170.578 520.813 170.643 519.72C170.763 517.552 172.525 515.875 174.62 515.875C174.694 515.875 174.777 515.875 174.852 515.875ZM-10.6822 267.03C-10.6822 263.834 -13.2222 261.231 -16.3463 261.231C-19.4703 261.231 -22.0103 263.834 -22.0103 267.03C-22.0103 270.227 -19.4703 272.83 -16.3463 272.83C-13.2222 272.83 -10.6822 270.227 -10.6822 267.03ZM-12.3601 267.03C-12.3601 269.282 -14.1492 271.116 -16.3463 271.116C-18.5433 271.116 -20.3324 269.282 -20.3324 267.03C-20.3324 264.779 -18.5433 262.945 -16.3463 262.945C-14.1492 262.945 -12.3601 264.779 -12.3601 267.03ZM-25.5701 162.573C-25.5701 159.377 -28.1101 156.774 -31.2342 156.774C-34.3583 156.774 -36.8983 159.377 -36.8983 162.573C-36.8983 165.769 -34.3583 168.373 -31.2342 168.373C-28.1101 168.373 -25.5701 165.769 -25.5701 162.573ZM-27.248 162.573C-27.248 164.824 -29.0372 166.659 -31.2342 166.659C-33.4312 166.659 -35.2204 164.824 -35.2204 162.573C-35.2204 160.322 -33.4312 158.488 -31.2342 158.488C-29.0372 158.488 -27.248 160.322 -27.248 162.573ZM55.6832 311.129C55.6832 309.045 54.0238 307.34 51.9937 307.34C49.9635 307.34 48.3041 309.036 48.3041 311.129C48.3041 313.223 49.9635 314.919 51.9937 314.919C54.0238 314.919 55.6832 313.223 55.6832 311.129ZM54.0053 311.129C54.0053 312.269 53.0968 313.195 51.9937 313.195C50.8905 313.195 49.982 312.269 49.982 311.129C49.982 309.99 50.8905 309.063 51.9937 309.063C53.0968 309.063 54.0053 309.99 54.0053 311.129ZM55.6832 299.947C55.6832 297.863 54.0238 296.158 51.9937 296.158C49.9635 296.158 48.3041 297.853 48.3041 299.947C48.3041 302.041 49.9635 303.736 51.9937 303.736C54.0238 303.736 55.6832 302.041 55.6832 299.947ZM54.0053 299.947C54.0053 301.087 53.0968 302.013 51.9937 302.013C50.8905 302.013 49.982 301.087 49.982 299.947C49.982 298.808 50.8905 297.881 51.9937 297.881C53.0968 297.881 54.0053 298.808 54.0053 299.947ZM54.4503 286.264C54.4503 284.179 52.7909 282.474 50.7607 282.474C48.7305 282.474 47.0712 284.17 47.0712 286.264C47.0712 288.357 48.7305 290.053 50.7607 290.053C52.7909 290.053 54.4503 288.357 54.4503 286.264ZM52.7724 286.264C52.7724 287.403 51.8639 288.33 50.7607 288.33C49.6576 288.33 48.7491 287.403 48.7491 286.264C48.7491 285.124 49.6576 284.198 50.7607 284.198C51.8639 284.198 52.7724 285.124 52.7724 286.264ZM233.764 196.592C234.394 194.61 233.337 192.47 231.4 191.821C229.462 191.173 227.377 192.257 226.737 194.239C226.431 195.203 226.505 196.222 226.95 197.13C227.395 198.028 228.155 198.705 229.092 199.01C229.472 199.14 229.861 199.196 230.232 199.196C231.789 199.196 233.235 198.177 233.745 196.583L233.764 196.592ZM230.881 193.452C231.938 193.804 232.512 194.971 232.169 196.055C231.826 197.139 230.686 197.732 229.629 197.38C229.119 197.213 228.702 196.843 228.461 196.352C228.22 195.861 228.174 195.295 228.341 194.777C228.619 193.906 229.407 193.35 230.26 193.35C230.464 193.35 230.677 193.387 230.881 193.452ZM267.98 242.053C268.861 241.599 269.51 240.812 269.816 239.858C270.446 237.875 269.389 235.735 267.452 235.086C265.514 234.438 263.428 235.522 262.798 237.514C262.168 239.496 263.224 241.636 265.162 242.285C265.542 242.415 265.931 242.47 266.311 242.47C266.886 242.47 267.452 242.331 267.98 242.063V242.053ZM266.932 236.708C267.989 237.06 268.564 238.227 268.221 239.311C268.054 239.839 267.702 240.265 267.22 240.515C266.738 240.766 266.191 240.812 265.681 240.636C264.624 240.284 264.049 239.116 264.392 238.033C264.671 237.162 265.459 236.606 266.311 236.606C266.515 236.606 266.729 236.643 266.932 236.708ZM329.979 235.244C330.86 234.79 331.509 234.002 331.815 233.048C332.12 232.085 332.046 231.066 331.601 230.158C331.156 229.259 330.396 228.583 329.451 228.268C328.505 227.953 327.513 228.036 326.633 228.49C325.752 228.944 325.103 229.732 324.797 230.686C324.167 232.668 325.224 234.808 327.161 235.457C327.541 235.587 327.93 235.642 328.311 235.642C328.885 235.642 329.451 235.503 329.979 235.235V235.244ZM328.932 229.908C329.441 230.074 329.859 230.445 330.1 230.936C330.341 231.427 330.387 231.992 330.22 232.511C330.053 233.039 329.692 233.465 329.219 233.715C328.737 233.965 328.19 234.012 327.68 233.836C326.623 233.484 326.049 232.316 326.392 231.232C326.558 230.704 326.92 230.278 327.393 230.028C327.68 229.88 327.986 229.806 328.301 229.806C328.514 229.806 328.728 229.843 328.932 229.908ZM348.418 278.945C349.298 278.491 349.947 277.703 350.253 276.749C350.883 274.766 349.827 272.626 347.889 271.978C345.952 271.329 343.866 272.413 343.236 274.396C342.605 276.378 343.662 278.518 345.599 279.167C345.98 279.297 346.369 279.352 346.749 279.352C347.324 279.352 347.889 279.213 348.418 278.945ZM347.37 273.608C348.427 273.96 349.002 275.128 348.659 276.212C348.492 276.74 348.139 277.166 347.657 277.416C347.175 277.666 346.628 277.712 346.119 277.536C345.062 277.184 344.487 276.017 344.83 274.933C345.108 274.062 345.896 273.506 346.749 273.506C346.953 273.506 347.166 273.543 347.37 273.608ZM360.802 315.919C361.683 315.465 362.332 314.678 362.638 313.724C362.944 312.76 362.87 311.741 362.425 310.833C361.98 309.934 361.22 309.258 360.274 308.943C359.338 308.628 358.337 308.711 357.456 309.165C356.575 309.619 355.926 310.407 355.62 311.361C354.99 313.344 356.047 315.484 357.984 316.132C358.365 316.262 358.754 316.318 359.134 316.318C359.709 316.318 360.274 316.179 360.802 315.91V315.919ZM397.42 310.574C397.93 310.74 398.347 311.111 398.588 311.602C398.829 312.093 398.875 312.658 398.708 313.177C398.542 313.705 398.18 314.131 397.707 314.381C397.225 314.631 396.678 314.678 396.168 314.502C395.112 314.15 394.537 312.982 394.88 311.898C395.047 311.37 395.408 310.944 395.881 310.694C396.168 310.546 396.474 310.472 396.789 310.472C397.003 310.472 397.216 310.509 397.42 310.574ZM381.16 338.376C382.041 337.922 382.69 337.135 382.995 336.181C383.301 335.217 383.227 334.198 382.782 333.29C382.337 332.392 381.577 331.715 380.631 331.4C379.686 331.085 378.694 331.169 377.813 331.623C376.933 332.076 376.284 332.864 375.978 333.818C375.347 335.801 376.404 337.941 378.342 338.589C378.722 338.719 379.111 338.775 379.491 338.775C380.066 338.775 380.632 338.636 381.16 338.367V338.376ZM380.122 333.04C380.632 333.207 381.049 333.577 381.29 334.068C381.531 334.559 381.577 335.125 381.41 335.643C381.243 336.171 380.882 336.598 380.409 336.848C379.927 337.098 379.38 337.144 378.87 336.968C377.813 336.616 377.239 335.449 377.582 334.365C377.749 333.837 378.11 333.411 378.583 333.16C378.87 333.012 379.176 332.938 379.491 332.938C379.704 332.938 379.918 332.975 380.122 333.04ZM330.313 351.198C331.193 350.744 331.842 349.957 332.148 348.993C332.454 348.03 332.38 347.011 331.935 346.103C331.49 345.204 330.73 344.528 329.784 344.213C328.848 343.898 327.847 343.981 326.966 344.435C326.086 344.889 325.437 345.677 325.131 346.64C324.825 347.604 324.899 348.623 325.344 349.531C325.789 350.43 326.549 351.106 327.495 351.411C327.875 351.541 328.264 351.597 328.644 351.597C329.219 351.597 329.784 351.458 330.313 351.189V351.198ZM329.265 345.862C329.775 346.038 330.192 346.399 330.433 346.89C330.674 347.381 330.721 347.947 330.554 348.465C330.387 348.993 330.025 349.42 329.553 349.67C329.071 349.92 328.524 349.966 328.014 349.79C327.504 349.614 327.087 349.253 326.846 348.762C326.605 348.271 326.558 347.706 326.725 347.187C326.892 346.659 327.254 346.233 327.727 345.983C328.014 345.834 328.32 345.76 328.635 345.76C328.848 345.76 329.061 345.797 329.265 345.862ZM354.74 368.143C355.621 367.689 356.269 366.902 356.575 365.948C357.206 363.965 356.149 361.825 354.211 361.176C353.275 360.861 352.274 360.945 351.393 361.399C350.513 361.853 349.864 362.64 349.558 363.594C348.927 365.577 349.984 367.717 351.922 368.366C352.302 368.495 352.691 368.551 353.071 368.551C353.646 368.551 354.211 368.412 354.74 368.143ZM353.702 362.807C354.211 362.983 354.629 363.344 354.87 363.835C355.111 364.326 355.157 364.891 354.99 365.41C354.823 365.938 354.462 366.364 353.989 366.615C353.507 366.865 352.96 366.911 352.45 366.735C351.393 366.383 350.819 365.216 351.162 364.132C351.328 363.604 351.69 363.177 352.163 362.927C352.45 362.779 352.765 362.705 353.071 362.705C353.284 362.705 353.498 362.742 353.702 362.807ZM376.441 393.936C377.322 393.482 377.971 392.694 378.277 391.74C378.907 389.757 377.85 387.617 375.913 386.969C374.977 386.654 373.975 386.737 373.095 387.191C372.214 387.645 371.565 388.432 371.259 389.387C370.629 391.369 371.686 393.509 373.623 394.158C374.003 394.288 374.393 394.343 374.773 394.343C375.348 394.343 375.913 394.204 376.441 393.936ZM375.403 388.599C375.913 388.775 376.33 389.137 376.571 389.628C376.812 390.119 376.859 390.684 376.692 391.203C376.525 391.731 376.163 392.157 375.69 392.407C375.208 392.657 374.661 392.703 374.152 392.527C373.095 392.175 372.52 391.008 372.863 389.924C373.03 389.396 373.391 388.97 373.864 388.72C374.152 388.571 374.467 388.497 374.773 388.497C374.986 388.497 375.199 388.534 375.403 388.599ZM354.74 379.752C355.621 379.298 356.269 378.51 356.575 377.556C357.206 375.573 356.149 373.433 354.211 372.785C353.275 372.47 352.274 372.553 351.393 373.007C350.513 373.461 349.864 374.249 349.558 375.203C348.927 377.185 349.984 379.325 351.922 379.974C352.302 380.104 352.691 380.159 353.071 380.159C353.646 380.159 354.211 380.02 354.74 379.752ZM353.702 374.415C354.211 374.591 354.629 374.953 354.87 375.444C355.111 375.935 355.157 376.5 354.99 377.019C354.823 377.547 354.462 377.973 353.989 378.223C353.507 378.473 352.96 378.519 352.45 378.343C351.393 377.991 350.819 376.824 351.162 375.74C351.328 375.212 351.69 374.786 352.163 374.536C352.45 374.387 352.765 374.313 353.071 374.313C353.284 374.313 353.498 374.35 353.702 374.415ZM405.541 415.188C406.421 414.734 407.07 413.947 407.376 412.993C407.682 412.029 407.608 411.01 407.163 410.102C406.718 409.203 405.958 408.527 405.012 408.212C404.076 407.897 403.075 407.981 402.194 408.435C401.313 408.888 400.664 409.676 400.359 410.639C400.053 411.603 400.127 412.622 400.572 413.53C401.017 414.429 401.777 415.105 402.722 415.42C403.103 415.55 403.492 415.605 403.872 415.605C404.447 415.605 405.012 415.466 405.541 415.198V415.188ZM404.493 409.852C405.003 410.028 405.42 410.389 405.661 410.88C405.902 411.371 405.948 411.936 405.782 412.455C405.615 412.983 405.253 413.41 404.78 413.66C404.298 413.91 403.751 413.947 403.242 413.78C402.732 413.604 402.314 413.243 402.073 412.752C401.832 412.261 401.786 411.696 401.953 411.177C402.12 410.649 402.481 410.223 402.954 409.972C403.242 409.824 403.547 409.75 403.863 409.75C404.076 409.75 404.289 409.787 404.493 409.852ZM437.727 439.044C438.607 438.591 439.256 437.803 439.562 436.849C439.868 435.885 439.794 434.866 439.349 433.958C438.904 433.06 438.144 432.383 437.198 432.068C436.262 431.753 435.261 431.837 434.38 432.291C433.499 432.745 432.851 433.532 432.545 434.496C432.239 435.459 432.313 436.478 432.758 437.386C433.203 438.285 433.963 438.961 434.909 439.276C435.289 439.406 435.678 439.461 436.058 439.461C436.633 439.461 437.198 439.322 437.727 439.054V439.044ZM436.688 433.708C437.198 433.884 437.615 434.245 437.856 434.736C438.097 435.227 438.144 435.793 437.977 436.311C437.81 436.839 437.449 437.266 436.976 437.516C436.494 437.766 435.947 437.812 435.437 437.636C434.927 437.46 434.51 437.099 434.269 436.608C434.028 436.117 433.981 435.552 434.148 435.033C434.315 434.505 434.677 434.079 435.15 433.829C435.437 433.68 435.743 433.606 436.058 433.606C436.271 433.606 436.484 433.643 436.688 433.708ZM359.718 466.023C360.599 465.569 361.248 464.781 361.553 463.827C361.859 462.863 361.785 461.844 361.34 460.936C360.895 460.038 360.135 459.361 359.19 459.047C358.253 458.732 357.252 458.815 356.371 459.269C355.491 459.723 354.842 460.51 354.536 461.474C354.23 462.437 354.304 463.456 354.749 464.364C355.194 465.263 355.954 465.939 356.9 466.254C357.28 466.384 357.669 466.44 358.049 466.44C358.624 466.44 359.19 466.301 359.718 466.032V466.023ZM358.68 460.686C359.19 460.862 359.607 461.224 359.848 461.715C360.089 462.206 360.135 462.771 359.968 463.29C359.801 463.818 359.44 464.244 358.967 464.494C358.485 464.744 357.938 464.79 357.428 464.614C356.918 464.438 356.501 464.077 356.26 463.586C356.019 463.095 355.973 462.53 356.14 462.011C356.307 461.483 356.668 461.057 357.141 460.807C357.428 460.659 357.734 460.584 358.049 460.584C358.263 460.584 358.476 460.621 358.68 460.686ZM348.853 489.944C349.734 489.49 350.383 488.702 350.689 487.739C350.995 486.775 350.92 485.756 350.476 484.848C350.031 483.949 349.27 483.273 348.325 482.958C347.389 482.643 346.387 482.727 345.507 483.181C344.626 483.634 343.977 484.422 343.671 485.385C343.365 486.349 343.439 487.368 343.884 488.276C344.329 489.175 345.09 489.851 346.035 490.157C346.415 490.286 346.805 490.342 347.185 490.342C347.759 490.342 348.325 490.203 348.853 489.934V489.944ZM347.806 484.607C348.315 484.783 348.733 485.145 348.974 485.636C349.215 486.127 349.261 486.692 349.094 487.211C348.927 487.739 348.566 488.165 348.093 488.415C347.611 488.665 347.064 488.711 346.554 488.535C346.044 488.359 345.627 487.998 345.386 487.507C345.145 487.016 345.099 486.451 345.266 485.932C345.432 485.404 345.794 484.978 346.267 484.728C346.554 484.579 346.86 484.505 347.175 484.505C347.389 484.505 347.602 484.542 347.806 484.607ZM389.503 543.187C390.384 542.733 391.033 541.945 391.339 540.991C391.645 540.027 391.57 539.008 391.125 538.1C390.68 537.202 389.92 536.526 388.975 536.211C388.038 535.896 387.037 535.979 386.157 536.433C385.276 536.887 384.627 537.674 384.321 538.638C384.015 539.601 384.089 540.62 384.534 541.528C384.979 542.427 385.739 543.103 386.685 543.418C387.065 543.548 387.454 543.604 387.834 543.604C388.409 543.604 388.975 543.465 389.503 543.196V543.187ZM388.456 537.841C388.965 538.017 389.383 538.378 389.624 538.869C389.865 539.36 389.911 539.926 389.744 540.444C389.577 540.972 389.216 541.399 388.743 541.649C388.261 541.899 387.714 541.945 387.204 541.769C386.694 541.593 386.277 541.232 386.036 540.741C385.795 540.25 385.749 539.685 385.916 539.166C386.082 538.638 386.444 538.212 386.917 537.962C387.204 537.813 387.51 537.739 387.825 537.739C388.038 537.739 388.252 537.776 388.456 537.841ZM422.839 517.719C423.719 517.265 424.368 516.477 424.674 515.523C424.98 514.559 424.906 513.54 424.461 512.632C424.016 511.734 423.256 511.057 422.31 510.742C421.374 510.427 420.373 510.511 419.492 510.965C418.612 511.419 417.963 512.206 417.657 513.17C417.351 514.133 417.425 515.152 417.87 516.06C418.315 516.959 419.075 517.635 420.021 517.95C420.401 518.08 420.79 518.135 421.17 518.135C421.745 518.135 422.31 517.996 422.839 517.728V517.719ZM421.791 512.373C422.301 512.549 422.718 512.91 422.959 513.401C423.2 513.892 423.247 514.458 423.08 514.976C422.913 515.504 422.551 515.931 422.079 516.181C421.597 516.431 421.05 516.477 420.54 516.301C420.03 516.125 419.613 515.764 419.372 515.273C419.131 514.782 419.084 514.217 419.251 513.698C419.418 513.17 419.78 512.744 420.252 512.493C420.54 512.345 420.846 512.271 421.161 512.271C421.374 512.271 421.587 512.308 421.791 512.373ZM379.463 485.756C380.344 485.302 380.993 484.515 381.299 483.551C381.605 482.588 381.531 481.568 381.086 480.661C380.641 479.762 379.881 479.086 378.935 478.771C377.999 478.456 376.998 478.539 376.117 478.993C375.236 479.447 374.587 480.234 374.281 481.198C373.975 482.161 374.05 483.181 374.495 484.088C374.94 484.987 375.7 485.663 376.645 485.969C377.025 486.099 377.415 486.154 377.795 486.154C378.37 486.154 378.935 486.015 379.463 485.747V485.756ZM378.425 480.41C378.935 480.586 379.352 480.948 379.593 481.439C379.834 481.93 379.881 482.495 379.714 483.014C379.547 483.542 379.185 483.968 378.713 484.218C378.231 484.468 377.684 484.515 377.174 484.339C376.664 484.163 376.247 483.801 376.006 483.31C375.765 482.819 375.718 482.254 375.885 481.735C376.052 481.207 376.414 480.781 376.886 480.531C377.174 480.383 377.48 480.309 377.795 480.309C378.008 480.309 378.221 480.346 378.425 480.41ZM365.836 372.127C366.717 371.673 367.366 370.885 367.672 369.931C368.302 367.949 367.245 365.809 365.308 365.16C364.372 364.845 363.37 364.928 362.49 365.382C361.609 365.836 360.96 366.624 360.654 367.578C360.024 369.561 361.081 371.701 363.018 372.349C363.398 372.479 363.788 372.535 364.168 372.535C364.742 372.535 365.308 372.396 365.836 372.127ZM402.454 366.781C402.963 366.957 403.381 367.319 403.622 367.81C403.863 368.301 403.909 368.866 403.742 369.385C403.575 369.913 403.214 370.339 402.741 370.589C402.259 370.839 401.712 370.885 401.202 370.709C400.145 370.357 399.571 369.19 399.914 368.106C400.08 367.578 400.442 367.152 400.915 366.902C401.202 366.754 401.517 366.679 401.823 366.679C402.036 366.679 402.25 366.716 402.454 366.781ZM391.422 355.682C392.303 355.228 392.952 354.441 393.258 353.487C393.888 351.504 392.831 349.364 390.894 348.716C389.957 348.401 388.956 348.484 388.076 348.938C387.195 349.392 386.546 350.179 386.24 351.134C385.61 353.116 386.666 355.256 388.604 355.905C388.984 356.035 389.373 356.09 389.753 356.09C390.328 356.09 390.894 355.951 391.422 355.682ZM428.039 350.337C428.549 350.513 428.966 350.874 429.207 351.365C429.448 351.856 429.495 352.421 429.328 352.94C429.161 353.468 428.799 353.894 428.327 354.145C427.845 354.395 427.298 354.441 426.788 354.265C425.731 353.913 425.156 352.746 425.499 351.662C425.666 351.134 426.028 350.707 426.5 350.457C426.788 350.309 427.103 350.235 427.409 350.235C427.622 350.235 427.835 350.272 428.039 350.337ZM442.13 344.584C443.011 344.13 443.66 343.342 443.966 342.388C444.271 341.424 444.197 340.405 443.752 339.497C443.307 338.599 442.547 337.922 441.602 337.607C440.665 337.292 439.664 337.376 438.783 337.83C437.903 338.284 437.254 339.071 436.948 340.025C436.642 340.989 436.716 342.008 437.161 342.916C437.606 343.815 438.366 344.491 439.312 344.806C439.692 344.936 440.081 344.991 440.461 344.991C441.036 344.991 441.602 344.852 442.13 344.584ZM478.747 339.247C479.257 339.423 479.674 339.785 479.915 340.276C480.156 340.767 480.203 341.332 480.036 341.851C479.869 342.379 479.507 342.805 479.035 343.055C478.553 343.305 478.006 343.351 477.496 343.175C476.986 342.999 476.569 342.638 476.328 342.147C476.087 341.656 476.04 341.091 476.207 340.572C476.374 340.044 476.736 339.618 477.208 339.368C477.496 339.219 477.802 339.145 478.117 339.145C478.33 339.145 478.543 339.182 478.747 339.247ZM457.185 312.399C457.491 311.435 457.417 310.416 456.971 309.508C456.527 308.6 455.766 307.933 454.821 307.618C453.885 307.303 452.883 307.387 452.003 307.841C451.122 308.295 450.473 309.082 450.167 310.036C449.861 311 449.935 312.019 450.38 312.927C450.825 313.825 451.586 314.502 452.531 314.817C452.911 314.946 453.301 315.002 453.671 315.002C455.229 315.002 456.675 313.983 457.185 312.389V312.399ZM491.957 309.258C492.467 309.425 492.884 309.795 493.125 310.286C493.366 310.777 493.413 311.343 493.246 311.861C492.903 312.945 491.763 313.538 490.706 313.186C490.196 313.019 489.779 312.649 489.538 312.158C489.297 311.667 489.25 311.102 489.417 310.583C489.584 310.055 489.946 309.629 490.419 309.378C490.706 309.23 491.012 309.156 491.327 309.156C491.54 309.156 491.753 309.193 491.957 309.258ZM499.587 349.42C500.467 348.966 501.116 348.178 501.422 347.224C501.728 346.26 501.654 345.241 501.209 344.333C500.764 343.435 500.004 342.758 499.058 342.443C498.122 342.128 497.121 342.212 496.24 342.666C495.36 343.12 494.711 343.907 494.405 344.871C494.099 345.834 494.173 346.853 494.618 347.761C495.063 348.66 495.823 349.336 496.769 349.651C497.149 349.781 497.538 349.837 497.918 349.837C498.493 349.837 499.058 349.698 499.587 349.429V349.42ZM536.204 344.083C536.714 344.259 537.131 344.621 537.372 345.112C537.613 345.603 537.659 346.168 537.493 346.687C537.326 347.215 536.964 347.641 536.491 347.891C536.009 348.141 535.462 348.187 534.953 348.011C534.443 347.835 534.026 347.474 533.784 346.983C533.543 346.492 533.497 345.927 533.664 345.408C533.831 344.88 534.192 344.454 534.665 344.204C534.953 344.056 535.258 343.981 535.574 343.981C535.787 343.981 536 344.018 536.204 344.083ZM392.191 240.905C393.072 240.451 393.721 239.663 394.027 238.709C394.657 236.726 393.6 234.586 391.663 233.938C390.727 233.623 389.726 233.706 388.845 234.16C387.964 234.614 387.315 235.401 387.009 236.356C386.703 237.319 386.778 238.338 387.223 239.246C387.668 240.145 388.428 240.821 389.373 241.136C389.753 241.266 390.143 241.321 390.523 241.321C391.098 241.321 391.663 241.182 392.191 240.914V240.905ZM391.144 235.568C392.201 235.92 392.775 237.088 392.432 238.171C392.266 238.7 391.904 239.126 391.431 239.376C390.949 239.626 390.402 239.672 389.892 239.496C389.383 239.33 388.965 238.959 388.724 238.468C388.483 237.977 388.437 237.412 388.604 236.893C388.771 236.365 389.132 235.939 389.605 235.689C389.892 235.54 390.198 235.466 390.514 235.466C390.727 235.466 390.94 235.503 391.144 235.568ZM458.14 212.75C459.02 212.296 459.669 211.508 459.975 210.554C460.605 208.571 459.549 206.431 457.611 205.783C456.675 205.468 455.674 205.551 454.793 206.005C453.912 206.459 453.263 207.247 452.958 208.201C452.652 209.164 452.726 210.183 453.171 211.091C453.616 211.99 454.376 212.666 455.322 212.981C455.702 213.111 456.091 213.167 456.471 213.167C457.046 213.167 457.611 213.028 458.14 212.759V212.75ZM457.092 207.404C458.149 207.756 458.724 208.923 458.381 210.007C458.214 210.535 457.852 210.962 457.379 211.212C456.897 211.462 456.35 211.508 455.841 211.332C455.331 211.165 454.914 210.795 454.673 210.304C454.432 209.813 454.385 209.248 454.552 208.729C454.719 208.201 455.081 207.775 455.553 207.525C455.841 207.376 456.147 207.302 456.462 207.302C456.675 207.302 456.888 207.339 457.092 207.404ZM44.2623 191.692C45.1893 189.829 44.4662 187.55 42.6493 186.596C41.7686 186.133 40.7675 186.059 39.8312 186.364C38.8949 186.679 38.1254 187.346 37.6805 188.245C37.2355 189.144 37.1521 190.172 37.458 191.136C37.7639 192.099 38.4128 192.877 39.2935 193.341C39.8311 193.619 40.3966 193.757 40.9621 193.757C42.3063 193.757 43.6041 193.007 44.2623 191.692ZM41.8891 188.134C42.881 188.653 43.2704 189.894 42.7698 190.913C42.2599 191.932 41.0455 192.331 40.0536 191.812C39.5716 191.562 39.2193 191.136 39.0524 190.608C38.8856 190.079 38.9319 189.524 39.173 189.033C39.414 188.542 39.8312 188.18 40.3503 188.004C40.5542 187.939 40.7674 187.902 40.9714 187.902C41.2866 187.902 41.6017 187.976 41.8891 188.125V188.134ZM11.9557 198.112C13.7912 197.204 14.5606 194.934 13.6799 193.053C12.7992 191.173 10.5836 190.376 8.74814 191.284C7.8582 191.719 7.19078 192.488 6.86633 193.442C6.54187 194.397 6.59747 195.425 7.0239 196.333C7.45033 197.241 8.20123 197.927 9.12825 198.26C9.52687 198.399 9.93477 198.473 10.3519 198.473C10.8989 198.473 11.4458 198.343 11.9557 198.093V198.112ZM12.1689 193.804C12.6509 194.832 12.2338 196.064 11.2326 196.565C10.7505 196.805 10.2036 196.833 9.69373 196.657C9.18387 196.472 8.77599 196.101 8.54422 195.601C8.31247 195.101 8.27538 194.545 8.46078 194.026C8.63692 193.507 9.00775 193.09 9.48981 192.85C9.76791 192.711 10.0646 192.646 10.3612 192.646C11.1121 192.646 11.8351 193.081 12.1781 193.813L12.1689 193.804ZM-43.9622 241.673C-43.0723 241.238 -42.4048 240.469 -42.0803 239.515C-41.7559 238.561 -41.8115 237.532 -42.2379 236.624C-42.6644 235.716 -43.4152 235.031 -44.3422 234.697C-45.2693 234.364 -46.2797 234.419 -47.1604 234.864C-48.9959 235.772 -49.7653 238.042 -48.8847 239.923C-48.245 241.275 -46.9286 242.063 -45.5474 242.063C-45.0097 242.063 -44.4628 241.942 -43.9529 241.692L-43.9622 241.673ZM-44.8985 236.309C-44.3886 236.495 -43.9807 236.865 -43.749 237.365C-43.5172 237.866 -43.4801 238.422 -43.6655 238.94C-43.8417 239.459 -44.2125 239.876 -44.6945 240.117C-45.6957 240.617 -46.9008 240.182 -47.3829 239.154C-47.8649 238.125 -47.4478 236.893 -46.4466 236.393C-46.1685 236.254 -45.8718 236.189 -45.5752 236.189C-45.3527 236.189 -45.1302 236.226 -44.9077 236.309H-44.8985ZM2.67619 139.764C4.11307 138.291 4.11307 135.882 2.67619 134.409C1.2393 132.936 -1.10603 132.936 -2.54292 134.409C-3.9798 135.882 -3.9798 138.291 -2.54292 139.764C-1.81984 140.505 -0.874313 140.866 0.0712433 140.866C1.01682 140.866 1.96239 140.496 2.68546 139.764H2.67619ZM1.48964 135.623C2.2776 136.429 2.2776 137.735 1.48964 138.541C0.70166 139.347 -0.577652 139.347 -1.35634 138.541C-2.1443 137.735 -2.1443 136.429 -1.35634 135.623C-0.966995 135.224 -0.447876 135.021 0.0712433 135.021C0.590378 135.021 1.10028 135.224 1.4989 135.623H1.48964ZM-122.527 242.535C-121.637 242.1 -120.97 241.331 -120.645 240.376C-120.321 239.422 -120.376 238.394 -120.803 237.486C-121.229 236.578 -121.98 235.892 -122.907 235.559C-123.834 235.225 -124.845 235.281 -125.725 235.726C-127.561 236.634 -128.33 238.903 -127.45 240.784C-126.81 242.137 -125.494 242.924 -124.112 242.924C-123.575 242.924 -123.028 242.804 -122.518 242.554L-122.527 242.535ZM-123.463 237.171C-122.954 237.356 -122.546 237.727 -122.314 238.227C-122.082 238.727 -122.045 239.283 -122.23 239.802C-122.407 240.321 -122.768 240.738 -123.259 240.979C-124.261 241.47 -125.466 241.044 -125.948 240.015C-126.43 238.987 -126.013 237.755 -125.012 237.254C-124.733 237.115 -124.437 237.051 -124.14 237.051C-123.918 237.051 -123.695 237.088 -123.473 237.171H-123.463ZM32.2481 217.085C33.1381 216.65 33.8055 215.881 34.13 214.927C34.4544 213.973 34.3988 212.944 33.9724 212.036C33.5459 211.128 32.795 210.443 31.868 210.109C30.941 209.776 29.9306 209.831 29.0499 210.276C27.2144 211.184 26.445 213.454 27.3257 215.335C27.9653 216.687 29.2816 217.475 30.6629 217.475C31.2006 217.475 31.7476 217.354 32.2574 217.104L32.2481 217.085ZM31.3118 211.721C31.8217 211.907 32.2296 212.277 32.4613 212.777C32.6931 213.278 32.7302 213.834 32.5448 214.352C32.3687 214.871 32.0071 215.288 31.5158 215.529C30.5146 216.02 29.3095 215.594 28.8274 214.566C28.3454 213.537 28.7626 212.305 29.7637 211.805C30.0418 211.666 30.3385 211.601 30.6351 211.601C30.8576 211.601 31.0801 211.638 31.3026 211.721H31.3118ZM-69.2884 335.106C-69.2884 333.021 -70.9477 331.317 -72.9779 331.317C-75.0081 331.317 -76.6675 333.012 -76.6675 335.106C-76.6675 337.2 -75.0081 338.895 -72.9779 338.895C-70.9477 338.895 -69.2884 337.2 -69.2884 335.106ZM-70.9663 335.106C-70.9663 336.246 -71.8747 337.172 -72.9779 337.172C-74.0811 337.172 -74.9896 336.246 -74.9896 335.106C-74.9896 333.966 -74.0811 333.04 -72.9779 333.04C-71.8747 333.04 -70.9663 333.966 -70.9663 335.106ZM-74.7392 373.081C-74.7392 370.997 -76.3986 369.292 -78.4288 369.292C-80.459 369.292 -82.1183 370.987 -82.1183 373.081C-82.1183 375.175 -80.459 376.87 -78.4288 376.87C-76.3986 376.87 -74.7392 375.175 -74.7392 373.081ZM-76.4171 373.081C-76.4171 374.221 -77.3256 375.147 -78.4288 375.147C-79.5319 375.147 -80.4404 374.221 -80.4404 373.081C-80.4404 371.942 -79.5319 371.015 -78.4288 371.015C-77.3256 371.015 -76.4171 371.942 -76.4171 373.081ZM-93.3167 467.292C-93.3167 465.207 -94.9761 463.503 -97.0063 463.503C-99.0364 463.503 -100.696 465.198 -100.696 467.292C-100.696 469.386 -99.0364 471.081 -97.0063 471.081C-94.9761 471.081 -93.3167 469.386 -93.3167 467.292ZM-94.9946 467.292C-94.9946 468.431 -95.9031 469.358 -97.0063 469.358C-98.1094 469.358 -99.0179 468.431 -99.0179 467.292C-99.0179 466.152 -98.1094 465.226 -97.0063 465.226C-95.9031 465.226 -94.9946 466.152 -94.9946 467.292Z" fill="url(#paint0_radial_413_196)" fill-opacity="0.8"/>
<path d="M144.839 372.048H132.286L114.188 352.186V372.048H104.523V311.815H114.188V348.152L131.439 330.002H143.492L123.93 350.207L144.801 372.048H144.839ZM160.28 315.011C165.016 312.309 170.253 310.978 176.029 310.978C181.805 310.978 187.042 312.309 191.778 315.011C196.514 317.712 200.211 321.403 202.906 326.121C205.602 330.84 206.949 336.09 206.949 341.836C206.949 347.581 205.602 352.908 202.906 357.665C200.211 362.421 196.514 366.15 191.778 368.851C187.08 371.553 181.805 372.923 176.029 372.923C170.253 372.923 164.978 371.591 160.28 368.851C155.544 366.15 151.847 362.421 149.113 357.665C146.418 352.908 145.07 347.658 145.07 341.836C145.07 336.014 146.418 330.84 149.113 326.121C151.809 321.403 155.544 317.712 160.28 315.011ZM176.029 320.756C170.215 320.756 165.363 322.773 161.435 326.806C157.508 330.84 155.582 335.862 155.582 341.836C155.582 347.81 157.546 352.908 161.435 356.98C165.363 361.051 170.215 363.106 176.029 363.106C181.844 363.106 186.657 361.051 190.584 356.98C194.512 352.908 196.476 347.848 196.476 341.836C196.476 335.824 194.512 330.84 190.584 326.806C186.657 322.773 181.805 320.756 176.029 320.756ZM233.75 329.127C239.179 329.127 243.492 330.84 246.688 334.226C249.845 337.612 251.462 342.216 251.462 348.076V372.048H241.72V349.256C241.72 345.945 240.796 343.32 238.909 341.303C237.023 339.325 234.558 338.335 231.439 338.335C228.32 338.335 225.663 339.325 223.777 341.303C221.851 343.282 220.927 345.945 220.927 349.256V372.048H211.262V330.002H220.927V336.585C222.275 334.188 224.085 332.362 226.279 331.068C228.474 329.774 231.016 329.127 233.788 329.127H233.75ZM297.131 350.131C297.131 352.071 297.054 353.403 296.861 354.164H264.208C264.824 357.284 266.21 359.757 268.367 361.546C270.523 363.334 273.295 364.247 276.645 364.247C279.995 364.247 281.497 363.677 283.384 362.573C285.271 361.47 286.426 359.986 286.849 358.197H296.591C295.783 362.611 293.549 366.188 289.891 368.851C286.195 371.553 281.728 372.885 276.491 372.885C271.254 372.885 268.636 371.933 265.286 369.993C261.898 368.09 259.241 365.427 257.315 362.04C255.39 358.654 254.389 354.887 254.389 350.778C254.389 346.668 255.352 343.13 257.315 339.781C259.241 336.471 261.898 333.845 265.248 331.943C268.598 330.041 272.294 329.089 276.337 329.089C280.38 329.089 283.615 329.964 286.772 331.753C289.93 333.503 292.433 336.014 294.32 339.249C296.206 342.483 297.131 346.098 297.131 350.093V350.131ZM264.477 345.983H286.58C286.156 343.548 284.963 341.57 283.037 340.086C281.112 338.602 278.686 337.841 275.798 337.841C272.91 337.841 270.523 338.564 268.521 339.972C266.518 341.417 265.209 343.396 264.477 345.983Z" fill="url(#paint1_linear_413_196)"/>
<g filter="url(#filter0_f_413_196)">
<path d="M144.839 372.048H132.286L114.188 352.186V372.048H104.523V311.815H114.188V348.152L131.439 330.002H143.492L123.93 350.207L144.801 372.048H144.839ZM160.28 315.011C165.016 312.309 170.253 310.978 176.029 310.978C181.805 310.978 187.042 312.309 191.778 315.011C196.514 317.712 200.211 321.403 202.906 326.121C205.602 330.84 206.949 336.09 206.949 341.836C206.949 347.581 205.602 352.908 202.906 357.665C200.211 362.421 196.514 366.15 191.778 368.851C187.08 371.553 181.805 372.923 176.029 372.923C170.253 372.923 164.978 371.591 160.28 368.851C155.544 366.15 151.847 362.421 149.113 357.665C146.418 352.908 145.07 347.658 145.07 341.836C145.07 336.014 146.418 330.84 149.113 326.121C151.809 321.403 155.544 317.712 160.28 315.011ZM176.029 320.756C170.215 320.756 165.363 322.773 161.435 326.806C157.508 330.84 155.582 335.862 155.582 341.836C155.582 347.81 157.546 352.908 161.435 356.98C165.363 361.051 170.215 363.106 176.029 363.106C181.844 363.106 186.657 361.051 190.584 356.98C194.512 352.908 196.476 347.848 196.476 341.836C196.476 335.824 194.512 330.84 190.584 326.806C186.657 322.773 181.805 320.756 176.029 320.756ZM233.75 329.127C239.179 329.127 243.492 330.84 246.688 334.226C249.845 337.612 251.462 342.216 251.462 348.076V372.048H241.72V349.256C241.72 345.945 240.796 343.32 238.909 341.303C237.023 339.325 234.558 338.335 231.439 338.335C228.32 338.335 225.663 339.325 223.777 341.303C221.851 343.282 220.927 345.945 220.927 349.256V372.048H211.262V330.002H220.927V336.585C222.275 334.188 224.085 332.362 226.279 331.068C228.474 329.774 231.016 329.127 233.788 329.127H233.75ZM297.131 350.131C297.131 352.071 297.054 353.403 296.861 354.164H264.208C264.824 357.284 266.21 359.757 268.367 361.546C270.523 363.334 273.295 364.247 276.645 364.247C279.995 364.247 281.497 363.677 283.384 362.573C285.271 361.47 286.426 359.986 286.849 358.197H296.591C295.783 362.611 293.549 366.188 289.891 368.851C286.195 371.553 281.728 372.885 276.491 372.885C271.254 372.885 268.636 371.933 265.286 369.993C261.898 368.09 259.241 365.427 257.315 362.04C255.39 358.654 254.389 354.887 254.389 350.778C254.389 346.668 255.352 343.13 257.315 339.781C259.241 336.471 261.898 333.845 265.248 331.943C268.598 330.041 272.294 329.089 276.337 329.089C280.38 329.089 283.615 329.964 286.772 331.753C289.93 333.503 292.433 336.014 294.32 339.249C296.206 342.483 297.131 346.098 297.131 350.093V350.131ZM264.477 345.983H286.58C286.156 343.548 284.963 341.57 283.037 340.086C281.112 338.602 278.686 337.841 275.798 337.841C272.91 337.841 270.523 338.564 268.521 339.972C266.518 341.417 265.209 343.396 264.477 345.983Z" fill="url(#paint2_linear_413_196)"/>
</g>
</g>
<defs>
<filter id="filter0_f_413_196" x="87.5234" y="293.978" width="226.605" height="95.9453" filterUnits="userSpaceOnUse" color-interpolation-filters="sRGB">
<feFlood flood-opacity="0" result="BackgroundImageFix"/>
<feBlend mode="normal" in="SourceGraphic" in2="BackgroundImageFix" result="shape"/>
<feGaussianBlur stdDeviation="8.5" result="effect1_foregroundBlur_413_196"/>
</filter>
<radialGradient id="paint0_radial_413_196" cx="0" cy="0" r="1" gradientUnits="userSpaceOnUse" gradientTransform="translate(189.657 324.858) rotate(0.409748) scale(548.787 389.399)">
<stop offset="0.21" stop-color="#FFF3E3"/>
<stop offset="0.23" stop-color="#EDEBDC" stop-opacity="0.98"/>
<stop offset="0.28" stop-color="#C1D6CC" stop-opacity="0.93"/>
<stop offset="0.34" stop-color="#78B5B3" stop-opacity="0.84"/>
<stop offset="0.41" stop-color="#168890" stop-opacity="0.72"/>
<stop offset="0.43" stop-color="#027F89" stop-opacity="0.7"/>
<stop offset="0.58" stop-color="#053942" stop-opacity="0.5"/>
<stop offset="0.77" stop-opacity="0.4"/>
</radialGradient>
<linearGradient id="paint1_linear_413_196" x1="93.9728" y1="367.405" x2="319.779" y2="308.458" gradientUnits="userSpaceOnUse">
<stop stop-color="#FFF9F5"/>
<stop offset="0.5" stop-color="#FBE2C3"/>
<stop offset="0.6" stop-color="#F6E0C2"/>
<stop offset="0.7" stop-color="#D4D2BA"/>
<stop offset="0.8" stop-color="#B6C7B4"/>
<stop offset="0.9" stop-color="#60A5A2"/>
<stop offset="1" stop-color="#268F96"/>
</linearGradient>
<linearGradient id="paint2_linear_413_196" x1="93.9728" y1="367.405" x2="319.779" y2="308.458" gradientUnits="userSpaceOnUse">
<stop stop-color="#FFF9F5"/>
<stop offset="0.5" stop-color="#FBE2C3"/>
<stop offset="0.6" stop-color="#F6E0C2"/>
<stop offset="0.7" stop-color="#D4D2BA"/>
<stop offset="0.8" stop-color="#B6C7B4"/>
<stop offset="0.9" stop-color="#60A5A2"/>
<stop offset="1" stop-color="#268F96"/>
</linearGradient>
<clipPath id="clip0_413_196">
<rect width="393" height="643" fill="white"/>
</clipPath>
</defs>
</svg>
