<svg width="848" height="993" viewBox="0 0 848 993" fill="none" xmlns="http://www.w3.org/2000/svg">
<path opacity="0.6" d="M419.541 568.781H375.198L354.935 547.999L354.356 547.965C350.726 547.76 310.711 547.965 309.007 547.965V551.133C309.416 551.133 347.522 550.946 353.606 551.116L373.937 571.95H419.541V568.781ZM419.541 547.709H375.198L354.901 526.892H321.311V530.061H353.623L373.92 550.878H419.524V547.709H419.541ZM551.617 590.825H657.125L705.115 541.628H777.152L805.578 570.774H847.178V567.606H806.856L778.43 538.459H703.837L655.847 587.656H550.339L517.056 621.777H429.784V624.946H518.334L551.617 590.825ZM802.749 407.75H843.071V404.581H801.471L773.045 433.728H701.008L653.018 384.531H547.527L514.244 350.41H391.405L352.14 390.664L354.321 392.895L392.683 353.578H512.966L546.249 387.699H651.74L699.73 436.896H774.323L802.749 407.75ZM551.242 562.513H655.455V510.351H652.37V559.361H549.964L515.011 595.186H468.878V598.354H516.289L551.242 562.53V562.513ZM839.475 520.879H810.81L788.962 498.478H704.791V468.701H585.122C578.646 467.968 473.241 468.582 454.733 468.701V443.285L476.956 420.492H503.303V448.157H506.388V417.323H475.678L451.649 441.956V471.869H453.199C504.275 471.546 581.441 471.273 584.73 471.835L584.884 471.869H701.707V501.646H787.684L809.532 524.047H839.475V520.879ZM677.115 446.538C648.911 416.812 648.331 416.812 647.479 416.812H547.118L515.386 384.275H417.991V387.444H514.108L545.84 419.981H646.985C649.592 422.263 665.22 438.549 674.9 448.753L677.115 446.555V446.538ZM604.38 823.352L578.851 778.022H527.793L502.264 823.352L527.793 868.682H578.851L604.38 823.352ZM505.825 823.352L529.582 781.174H577.078L600.835 823.352L577.078 865.531H529.582L505.825 823.352ZM605.3 936.056L567.722 897.523V867.081H564.638V898.834L603.118 938.287L605.3 936.056ZM596.046 936.056L558.468 897.523V867.081H555.384V898.834L593.865 938.287L596.046 936.056ZM587.304 936.056L549.726 897.523V867.081H546.641V898.834L585.122 938.287L587.304 936.056ZM790.803 862.073H735.672L708.166 833.88H595.995V837.048H706.888L734.393 865.241H790.803V862.073ZM735.672 783.559H790.803V780.39H734.393L706.888 808.583H595.995V811.751H708.166L735.672 783.559ZM799.017 822.296H554.361V825.465H799.017V822.296ZM624.898 753.27H773.318V750.102H623.62L584.1 790.611L586.281 792.843L624.898 753.253V753.27ZM574.914 760.238L618.218 715.844H766.126V712.676H616.94L571.829 758.926V780.134H574.914V760.238ZM566.683 753.901C585.548 733.97 613.838 704.448 617.468 701.62H765.598V698.452H617.042C616.224 698.452 614.843 698.452 564.024 752.146L563.581 752.606V779.061H566.666V753.884L566.683 753.901ZM557.446 721.245L608.333 669.083V641.555H781.549V638.386H605.249V667.772L554.361 719.933V779.606H557.446V721.245ZM712.665 681.076H635.567V654.723H769.211V651.554H632.482V684.228H712.665V681.059V681.076ZM548.703 686.34H444.747L411.975 719.933V768.534H415.059V721.245L446.025 689.491H545.619V779.606H548.703V686.34ZM598.807 659.867V618.898H782.571V615.73H595.739V658.556L579.583 675.131L581.765 677.362L598.824 659.867H598.807ZM543.045 758.415L513.358 727.973H437.674V731.142H512.08L539.961 759.727V779.095H543.045V758.415ZM535.342 763.798H474.689V766.966H532.258V779.606H535.342V763.798ZM516.323 801.752H402.857L390.655 789.248V663.7H519.919V640.516H516.835V660.532H387.57V790.56L401.579 804.92H516.323V801.752ZM415.571 833.88H509.626V830.711H412.486V936.635H415.571V833.88ZM435.868 869.057L460.408 843.896H514.261V840.728H459.13L432.783 867.745V930.843H435.868V869.057ZM542.074 868.734L539.892 866.502L481.813 926.039L483.995 928.271L542.074 868.734ZM535.393 868.205L533.212 865.974L496.401 903.723H459.267V872.379H483.432V869.211H456.182V906.892H497.679L535.393 868.223V868.205ZM535.087 359.115C584.918 358.825 715.238 358.263 719.737 359.064L720.129 357.547L719.277 358.859L720.981 356.236C720.453 355.878 719.056 354.924 535.717 355.963L497.884 317.175L495.702 319.406L534.456 359.132H535.104L535.087 359.115ZM720.113 333.818H538.802L508.995 303.257H383.446V306.425H507.717L537.524 336.986H720.113V333.818ZM288.744 295.08H709.836V291.912H287.448L286.988 292.389C280.069 299.68 268.634 311.587 267.441 312.473L268.31 313.785L267.458 312.473L269.162 315.096C270.696 314.057 284.858 299.169 288.744 295.08ZM649.303 229.478H711.881V226.31H648.024L616.48 258.659L618.661 260.891L649.303 229.478ZM551.004 119.875H462.079V211.029H551.004V119.875ZM465.18 123.044H547.936V207.878H465.18V123.044ZM633.505 153.996V89.3145H630.42V152.685L567.33 217.367H513.102C512.966 216.157 513.307 213.159 513.954 210.348L510.955 209.616C510.12 213.244 509.404 217.929 510.734 219.649C511.16 220.211 511.773 220.518 512.455 220.518H568.608L633.505 153.979V153.996ZM590.593 94.0502H587.508V168.868H549.981V172.036H590.593V94.0502ZM463.629 160.981H308.529L282.966 134.764V85.0898H279.882V136.076L307.251 164.132H463.629V160.964V160.981ZM463.629 171.508H308.529L282.966 145.291V95.6174H279.882V146.603L307.251 174.66H463.629V171.491V171.508ZM463.629 153.076H308.529L282.966 126.86V77.1855H279.882V128.171L307.251 156.228H463.629V153.059V153.076ZM363.848 883.367L321.635 840.098V685.573L275.315 638.08L273.133 640.311L318.55 686.885V841.409L360.763 884.678V982.238H363.848V883.367ZM356.69 495.803H468.895V492.635H354.935L345.92 508.239H309.791V511.408H347.675L356.69 495.803ZM509.472 554.472H449.587L412.673 516.62H384.281V519.789H411.395L448.308 557.641H509.472V554.472ZM562.678 485.31H682.961V516.143H755.441V512.975H686.045V482.141H559.593V521.663H562.678V485.31ZM274.65 641.879C276.729 639.988 277.956 637.381 278.126 634.536C278.467 628.659 274.07 623.6 268.344 623.259C265.566 623.089 262.891 624.043 260.812 625.934C258.733 627.825 257.506 630.431 257.335 633.276C257.165 636.121 258.102 638.863 259.943 640.993C261.783 643.122 264.339 644.383 267.117 644.553C267.322 644.553 267.526 644.57 267.731 644.57C270.287 644.57 272.707 643.633 274.633 641.879H274.65ZM268.157 626.411C272.196 626.649 275.28 630.21 275.042 634.349C274.803 638.489 271.361 641.623 267.305 641.402C265.345 641.282 263.556 640.396 262.26 638.897C260.965 637.398 260.3 635.473 260.42 633.463C260.539 631.453 261.408 629.63 262.857 628.285C264.203 627.058 265.924 626.394 267.714 626.394C267.85 626.394 268.003 626.394 268.157 626.394V626.411ZM428.693 631.215C430.772 629.324 431.999 626.717 432.17 623.873C432.51 617.995 428.114 612.936 422.387 612.595C419.61 612.425 416.934 613.379 414.855 615.27C412.776 617.161 411.549 619.767 411.378 622.612C411.208 625.457 412.145 628.199 413.986 630.329C415.826 632.458 418.383 633.719 421.161 633.889C421.365 633.889 421.57 633.906 421.774 633.906C424.33 633.906 426.75 632.969 428.676 631.215H428.693ZM422.2 615.747C426.239 615.985 429.323 619.546 429.085 623.685C428.846 627.825 425.421 630.959 421.348 630.738C419.388 630.618 417.599 629.733 416.303 628.234C415.008 626.734 414.344 624.809 414.463 622.799C414.582 620.789 415.451 618.966 416.9 617.621C418.246 616.394 419.968 615.73 421.757 615.73C421.893 615.73 422.047 615.73 422.2 615.73V615.747ZM279.967 757.291C282.216 756.609 284.074 755.093 285.182 752.981C286.307 750.868 286.562 748.449 285.898 746.15C284.534 741.397 279.66 738.671 275.025 740.051C270.389 741.448 267.731 746.439 269.077 751.192C269.742 753.492 271.224 755.4 273.286 756.541C274.599 757.274 276.03 757.648 277.479 757.648C278.314 757.648 279.132 757.529 279.95 757.274L279.967 757.291ZM282.949 755.315C283.835 758.398 282.097 761.635 279.098 762.537C277.649 762.98 276.115 762.81 274.786 762.06C273.457 761.311 272.485 760.084 272.059 758.602C271.173 755.519 272.912 752.282 275.911 751.38C276.439 751.226 276.985 751.141 277.496 751.141C279.95 751.141 282.216 752.793 282.949 755.315ZM268.055 323.716C269.674 322.881 270.867 321.433 271.429 319.679C272.588 316.033 270.645 312.098 267.083 310.906C263.521 309.713 259.687 311.706 258.528 315.369C257.369 319.014 259.312 322.949 262.874 324.142C263.573 324.38 264.288 324.483 264.987 324.483C266.044 324.483 267.083 324.227 268.055 323.733V323.716ZM266.129 313.887C268.072 314.534 269.128 316.681 268.498 318.674C268.191 319.645 267.543 320.428 266.657 320.888C265.771 321.348 264.765 321.433 263.828 321.11C261.885 320.462 260.829 318.316 261.459 316.323C261.97 314.721 263.419 313.699 264.987 313.699C265.362 313.699 265.754 313.768 266.129 313.887ZM382.032 311.195C383.651 310.361 384.844 308.913 385.406 307.158C385.968 305.386 385.832 303.512 385.014 301.843C384.196 300.191 382.799 298.947 381.06 298.368C379.322 297.789 377.499 297.942 375.88 298.777C374.261 299.611 373.068 301.059 372.505 302.814C371.347 306.46 373.289 310.395 376.851 311.587C377.55 311.826 378.266 311.928 378.964 311.928C380.021 311.928 381.06 311.672 382.032 311.178V311.195ZM380.106 301.383C381.043 301.69 381.81 302.371 382.253 303.274C382.696 304.177 382.782 305.216 382.475 306.17C382.168 307.141 381.504 307.925 380.634 308.384C379.748 308.844 378.743 308.93 377.805 308.606C375.863 307.959 374.806 305.812 375.437 303.819C375.743 302.848 376.408 302.064 377.277 301.605C377.806 301.332 378.368 301.196 378.947 301.196C379.339 301.196 379.731 301.264 380.106 301.383ZM415.929 391.549C417.548 390.715 418.74 389.267 419.303 387.512C420.462 383.867 418.519 379.931 414.957 378.739C411.395 377.547 407.561 379.54 406.402 383.185C405.243 386.831 407.186 390.766 410.748 391.958C411.447 392.197 412.162 392.299 412.861 392.299C413.918 392.299 414.957 392.043 415.929 391.549ZM414.003 381.737C415.946 382.384 417.002 384.531 416.372 386.524C416.065 387.495 415.417 388.279 414.531 388.739C413.645 389.199 412.639 389.284 411.702 388.96C409.759 388.313 408.703 386.166 409.333 384.173C409.844 382.572 411.293 381.55 412.861 381.55C413.236 381.55 413.628 381.618 414.003 381.737ZM438.697 459.536C440.316 458.701 441.509 457.253 442.071 455.499C442.633 453.727 442.497 451.853 441.679 450.184C440.861 448.531 439.464 447.288 437.725 446.709C436.004 446.129 434.163 446.283 432.544 447.117C430.925 447.952 429.733 449.4 429.17 451.155C428.011 454.8 429.954 458.735 433.516 459.928C434.215 460.166 434.93 460.268 435.629 460.268C436.686 460.268 437.725 460.013 438.697 459.519V459.536ZM506.013 449.707C506.95 450.013 507.717 450.695 508.16 451.598C508.603 452.501 508.688 453.54 508.382 454.494C508.075 455.465 507.41 456.248 506.541 456.708C505.655 457.168 504.649 457.253 503.712 456.93C501.769 456.282 500.713 454.136 501.343 452.143C501.65 451.172 502.315 450.388 503.184 449.928C503.712 449.656 504.275 449.519 504.854 449.519C505.246 449.519 505.638 449.588 506.013 449.707ZM476.121 500.829C477.74 499.994 478.933 498.546 479.495 496.792C480.058 495.02 479.922 493.146 479.104 491.477C478.285 489.824 476.888 488.581 475.15 488.001C473.411 487.422 471.588 487.576 469.969 488.41C468.35 489.245 467.157 490.693 466.595 492.448C465.436 496.093 467.379 500.028 470.94 501.221C471.639 501.459 472.355 501.561 473.053 501.561C474.11 501.561 475.15 501.306 476.121 500.812V500.829ZM474.212 491.017C475.15 491.323 475.917 492.005 476.36 492.908C476.803 493.81 476.888 494.85 476.581 495.803C476.274 496.774 475.61 497.558 474.741 498.018C473.854 498.478 472.849 498.563 471.912 498.239C469.969 497.592 468.912 495.446 469.543 493.453C469.85 492.482 470.514 491.698 471.383 491.238C471.912 490.966 472.474 490.829 473.053 490.829C473.445 490.829 473.837 490.897 474.212 491.017ZM382.645 524.405C384.264 523.57 385.457 522.123 386.02 520.351C386.582 518.579 386.446 516.705 385.628 515.036C384.81 513.384 383.412 512.14 381.674 511.561C379.953 510.982 378.112 511.135 376.493 511.97C374.874 512.804 373.681 514.252 373.119 516.024C372.557 517.796 372.693 519.669 373.511 521.339C374.329 522.991 375.726 524.235 377.465 524.797C378.163 525.035 378.879 525.138 379.578 525.138C380.634 525.138 381.674 524.882 382.645 524.388V524.405ZM380.72 514.593C381.657 514.917 382.424 515.581 382.867 516.484C383.31 517.387 383.395 518.426 383.088 519.38C382.782 520.351 382.117 521.134 381.248 521.594C380.362 522.054 379.356 522.14 378.419 521.816C377.482 521.492 376.715 520.828 376.272 519.925C375.829 519.022 375.743 517.983 376.05 517.029C376.357 516.058 377.022 515.274 377.891 514.815C378.419 514.542 378.981 514.406 379.561 514.406C379.953 514.406 380.345 514.474 380.72 514.593ZM427.551 555.562C429.17 554.728 430.363 553.28 430.926 551.525C432.084 547.879 430.142 543.944 426.58 542.752C424.859 542.173 423.018 542.326 421.399 543.161C419.78 543.995 418.587 545.443 418.025 547.198C416.866 550.844 418.809 554.779 422.37 555.971C423.069 556.209 423.785 556.312 424.484 556.312C425.54 556.312 426.58 556.056 427.551 555.562ZM425.643 545.75C426.58 546.074 427.347 546.738 427.79 547.641C428.233 548.544 428.318 549.583 428.011 550.537C427.704 551.508 427.04 552.292 426.171 552.751C425.285 553.211 424.279 553.297 423.342 552.973C421.399 552.326 420.342 550.179 420.973 548.186C421.28 547.215 421.944 546.431 422.814 545.971C423.342 545.699 423.921 545.563 424.484 545.563C424.876 545.563 425.268 545.631 425.643 545.75ZM467.447 602.988C469.066 602.153 470.259 600.705 470.821 598.95C471.98 595.305 470.037 591.37 466.475 590.177C464.754 589.598 462.913 589.751 461.294 590.586C459.675 591.421 458.483 592.869 457.92 594.623C456.761 598.269 458.704 602.204 462.266 603.396C462.965 603.635 463.68 603.737 464.379 603.737C465.436 603.737 466.475 603.482 467.447 602.988ZM465.538 593.175C466.475 593.499 467.242 594.164 467.685 595.066C468.128 595.969 468.214 597.008 467.907 597.962C467.6 598.933 466.935 599.717 466.066 600.177C465.18 600.637 464.175 600.722 463.237 600.398C461.294 599.751 460.238 597.605 460.868 595.612C461.175 594.641 461.84 593.857 462.709 593.397C463.237 593.124 463.817 592.988 464.379 592.988C464.771 592.988 465.163 593.056 465.538 593.175ZM427.551 576.907C429.17 576.072 430.363 574.624 430.926 572.87C432.084 569.224 430.142 565.289 426.58 564.097C424.859 563.518 423.018 563.671 421.399 564.506C419.78 565.34 418.587 566.788 418.025 568.543C416.866 572.188 418.809 576.123 422.37 577.316C423.069 577.554 423.785 577.657 424.484 577.657C425.54 577.657 426.58 577.401 427.551 576.907ZM425.643 567.095C426.58 567.419 427.347 568.083 427.79 568.986C428.233 569.889 428.318 570.928 428.011 571.882C427.704 572.853 427.04 573.636 426.171 574.096C425.285 574.556 424.279 574.641 423.342 574.318C421.399 573.67 420.342 571.524 420.973 569.531C421.28 568.56 421.944 567.776 422.814 567.316C423.342 567.044 423.921 566.908 424.484 566.908C424.876 566.908 425.268 566.976 425.643 567.095ZM520.942 642.066C522.561 641.231 523.754 639.783 524.316 638.029C524.878 636.257 524.742 634.383 523.924 632.714C523.106 631.061 521.709 629.818 519.97 629.239C518.249 628.659 516.409 628.813 514.79 629.647C513.171 630.482 511.978 631.93 511.415 633.702C510.853 635.473 510.989 637.347 511.807 639.017C512.625 640.669 514.023 641.913 515.761 642.492C516.46 642.73 517.175 642.833 517.874 642.833C518.931 642.833 519.97 642.577 520.942 642.083V642.066ZM519.016 632.254C519.953 632.577 520.72 633.242 521.163 634.145C521.606 635.048 521.692 636.087 521.385 637.041C521.078 638.012 520.413 638.795 519.544 639.255C518.658 639.715 517.653 639.783 516.715 639.477C515.778 639.153 515.011 638.489 514.568 637.586C514.125 636.683 514.04 635.644 514.346 634.69C514.653 633.719 515.318 632.935 516.187 632.475C516.715 632.203 517.278 632.066 517.857 632.066C518.249 632.066 518.641 632.134 519.016 632.254ZM580.112 685.931C581.731 685.096 582.924 683.648 583.486 681.894C584.049 680.122 583.912 678.248 583.094 676.579C582.276 674.926 580.879 673.683 579.14 673.104C577.419 672.525 575.578 672.678 573.959 673.513C572.34 674.347 571.148 675.795 570.585 677.567C570.023 679.339 570.159 681.212 570.977 682.882C571.795 684.534 573.193 685.778 574.931 686.357C575.63 686.595 576.345 686.698 577.044 686.698C578.101 686.698 579.14 686.442 580.112 685.948V685.931ZM578.203 676.119C579.14 676.443 579.907 677.107 580.35 678.01C580.793 678.913 580.879 679.952 580.572 680.906C580.265 681.877 579.6 682.66 578.731 683.12C577.845 683.58 576.84 683.665 575.902 683.342C574.965 683.018 574.198 682.354 573.755 681.451C573.312 680.548 573.227 679.509 573.533 678.555C573.84 677.584 574.505 676.8 575.374 676.34C575.902 676.068 576.465 675.932 577.044 675.932C577.436 675.932 577.828 676 578.203 676.119ZM436.703 735.537C438.322 734.702 439.515 733.254 440.077 731.5C440.64 729.728 440.503 727.854 439.685 726.185C438.867 724.532 437.47 723.289 435.731 722.71C434.01 722.13 432.17 722.284 430.551 723.118C428.932 723.953 427.739 725.401 427.176 727.173C426.614 728.944 426.75 730.818 427.568 732.488C428.386 734.14 429.784 735.384 431.522 735.963C432.221 736.201 432.936 736.304 433.635 736.304C434.692 736.304 435.731 736.048 436.703 735.554V735.537ZM434.794 725.725C435.731 726.048 436.498 726.713 436.941 727.616C437.385 728.519 437.47 729.558 437.163 730.512C436.856 731.483 436.191 732.266 435.322 732.726C434.436 733.186 433.431 733.271 432.493 732.948C431.556 732.624 430.789 731.959 430.346 731.057C429.903 730.154 429.818 729.115 430.125 728.161C430.431 727.19 431.096 726.406 431.965 725.946C432.493 725.674 433.056 725.537 433.635 725.537C434.027 725.537 434.419 725.606 434.794 725.725ZM416.729 779.521C418.348 778.687 419.541 777.239 420.104 775.467C420.666 773.695 420.53 771.821 419.712 770.152C418.894 768.5 417.496 767.256 415.758 766.677C414.037 766.098 412.196 766.251 410.577 767.086C408.958 767.92 407.765 769.368 407.203 771.14C406.641 772.912 406.777 774.786 407.595 776.455C408.413 778.107 409.81 779.351 411.549 779.913C412.247 780.152 412.963 780.254 413.662 780.254C414.719 780.254 415.758 779.998 416.729 779.504V779.521ZM414.804 769.709C415.741 770.033 416.508 770.697 416.951 771.6C417.394 772.503 417.479 773.542 417.173 774.496C416.866 775.467 416.201 776.251 415.332 776.711C414.446 777.17 413.44 777.256 412.503 776.932C411.566 776.608 410.799 775.944 410.356 775.041C409.913 774.138 409.827 773.099 410.134 772.145C410.441 771.174 411.106 770.391 411.975 769.931C412.503 769.658 413.066 769.522 413.645 769.522C414.037 769.522 414.429 769.59 414.804 769.709ZM491.459 877.421C493.078 876.587 494.271 875.139 494.833 873.384C495.396 871.612 495.259 869.739 494.441 868.069C493.623 866.417 492.226 865.173 490.488 864.594C488.766 864.015 486.926 864.168 485.307 865.003C483.688 865.838 482.495 867.286 481.932 869.057C481.37 870.829 481.507 872.703 482.325 874.372C483.143 876.024 484.54 877.268 486.278 877.847C486.977 878.086 487.693 878.188 488.391 878.188C489.448 878.188 490.488 877.932 491.459 877.438V877.421ZM489.533 867.592C490.471 867.916 491.237 868.58 491.681 869.483C492.124 870.386 492.209 871.425 491.902 872.379C491.595 873.35 490.931 874.134 490.061 874.594C489.175 875.053 488.17 875.139 487.232 874.815C486.295 874.491 485.528 873.827 485.085 872.924C484.642 872.021 484.557 870.982 484.864 870.028C485.171 869.057 485.835 868.274 486.704 867.814C487.233 867.541 487.795 867.405 488.374 867.405C488.766 867.405 489.158 867.473 489.533 867.592ZM552.742 830.592C554.361 829.757 555.554 828.309 556.116 826.555C556.679 824.783 556.543 822.909 555.725 821.24C554.907 819.588 553.509 818.344 551.771 817.765C550.05 817.186 548.209 817.339 546.59 818.174C544.971 819.008 543.778 820.456 543.216 822.228C542.653 824 542.79 825.873 543.608 827.543C544.426 829.195 545.823 830.439 547.561 831.018C548.26 831.257 548.976 831.359 549.675 831.359C550.731 831.359 551.771 831.103 552.742 830.609V830.592ZM550.816 820.763C551.754 821.087 552.521 821.751 552.964 822.654C553.407 823.557 553.492 824.596 553.185 825.55C552.879 826.521 552.214 827.304 551.345 827.764C550.459 828.224 549.453 828.31 548.516 827.986C547.578 827.662 546.812 826.998 546.368 826.095C545.925 825.192 545.84 824.153 546.147 823.199C546.454 822.228 547.118 821.444 547.987 820.984C548.516 820.712 549.078 820.576 549.657 820.576C550.049 820.576 550.441 820.644 550.816 820.763ZM473.002 771.821C474.621 770.987 475.814 769.539 476.377 767.767C476.939 765.995 476.803 764.122 475.985 762.452C475.167 760.8 473.769 759.556 472.031 758.977C470.31 758.398 468.469 758.551 466.85 759.386C465.231 760.221 464.038 761.669 463.476 763.44C462.914 765.212 463.05 767.086 463.868 768.755C464.686 770.408 466.083 771.651 467.822 772.213C468.52 772.452 469.236 772.554 469.935 772.554C470.991 772.554 472.031 772.298 473.002 771.804V771.821ZM471.094 761.992C472.031 762.316 472.798 762.98 473.241 763.883C473.684 764.786 473.769 765.825 473.463 766.779C473.156 767.75 472.491 768.534 471.622 768.994C470.736 769.454 469.73 769.539 468.793 769.215C467.856 768.891 467.089 768.227 466.646 767.324C466.203 766.421 466.117 765.382 466.424 764.428C466.731 763.457 467.396 762.674 468.265 762.214C468.793 761.941 469.355 761.805 469.935 761.805C470.327 761.805 470.719 761.873 471.094 761.992ZM447.951 562.887C449.57 562.053 450.763 560.605 451.325 558.85C452.484 555.204 450.541 551.269 446.979 550.077C445.258 549.498 443.417 549.651 441.798 550.486C440.179 551.32 438.987 552.768 438.424 554.523C437.265 558.169 439.208 562.104 442.77 563.296C443.468 563.535 444.184 563.637 444.883 563.637C445.94 563.637 446.979 563.381 447.951 562.887ZM515.267 553.058C516.204 553.382 516.971 554.046 517.414 554.949C517.857 555.852 517.942 556.891 517.636 557.845C517.329 558.816 516.664 559.6 515.795 560.06C514.909 560.519 513.903 560.605 512.966 560.281C511.023 559.634 509.967 557.487 510.597 555.494C510.904 554.523 511.569 553.739 512.438 553.28C512.966 553.007 513.545 552.871 514.108 552.871C514.5 552.871 514.892 552.939 515.267 553.058ZM494.987 532.65C496.606 531.815 497.799 530.367 498.361 528.613C499.52 524.967 497.577 521.032 494.015 519.84C492.294 519.261 490.453 519.414 488.834 520.249C487.215 521.083 486.023 522.531 485.46 524.286C484.301 527.931 486.244 531.867 489.806 533.059C490.505 533.298 491.22 533.4 491.919 533.4C492.976 533.4 494.015 533.144 494.987 532.65ZM562.303 522.821C563.24 523.145 564.007 523.809 564.45 524.712C564.893 525.615 564.978 526.654 564.672 527.608C564.365 528.579 563.7 529.362 562.831 529.822C561.945 530.282 560.94 530.367 560.002 530.044C558.059 529.396 557.003 527.25 557.633 525.257C557.94 524.286 558.605 523.502 559.474 523.042C560.002 522.77 560.582 522.634 561.144 522.634C561.536 522.634 561.928 522.702 562.303 522.821ZM588.207 512.242C589.826 511.408 591.019 509.96 591.581 508.205C592.144 506.433 592.007 504.559 591.189 502.89C590.371 501.238 588.974 499.994 587.235 499.415C585.514 498.836 583.673 498.989 582.054 499.824C580.435 500.658 579.243 502.106 578.68 503.861C578.118 505.633 578.254 507.507 579.072 509.176C579.89 510.828 581.288 512.072 583.026 512.651C583.725 512.89 584.44 512.992 585.139 512.992C586.196 512.992 587.235 512.736 588.207 512.242ZM655.523 502.43C656.46 502.754 657.227 503.418 657.67 504.321C658.113 505.224 658.199 506.263 657.892 507.217C657.585 508.188 656.92 508.972 656.051 509.431C655.165 509.891 654.16 509.977 653.222 509.653C652.285 509.329 651.518 508.665 651.075 507.762C650.632 506.859 650.547 505.82 650.853 504.866C651.16 503.895 651.825 503.111 652.694 502.652C653.222 502.379 653.785 502.243 654.364 502.243C654.756 502.243 655.148 502.311 655.523 502.43ZM615.883 453.063C616.446 451.291 616.309 449.417 615.491 447.748C614.673 446.078 613.276 444.852 611.537 444.273C609.816 443.693 607.975 443.847 606.356 444.681C604.737 445.516 603.545 446.964 602.982 448.719C602.42 450.49 602.556 452.364 603.374 454.034C604.192 455.686 605.59 456.93 607.328 457.509C608.027 457.747 608.743 457.85 609.424 457.85C612.287 457.85 614.946 455.976 615.883 453.046V453.063ZM679.808 447.288C680.745 447.594 681.512 448.276 681.955 449.179C682.398 450.082 682.484 451.121 682.177 452.075C681.546 454.068 679.45 455.158 677.507 454.511C676.57 454.204 675.803 453.523 675.36 452.62C674.917 451.717 674.832 450.678 675.138 449.724C675.445 448.753 676.11 447.969 676.979 447.509C677.507 447.237 678.069 447.1 678.649 447.1C679.041 447.1 679.433 447.169 679.808 447.288ZM693.833 521.135C695.452 520.3 696.645 518.852 697.208 517.097C697.77 515.326 697.634 513.452 696.816 511.782C695.998 510.13 694.6 508.886 692.862 508.307C691.141 507.728 689.3 507.881 687.681 508.716C686.062 509.551 684.869 510.999 684.307 512.77C683.745 514.542 683.881 516.416 684.699 518.085C685.517 519.738 686.914 520.981 688.653 521.56C689.351 521.799 690.067 521.901 690.766 521.901C691.822 521.901 692.862 521.646 693.833 521.151V521.135ZM761.15 511.322C762.087 511.646 762.854 512.31 763.297 513.213C763.74 514.116 763.825 515.155 763.519 516.109C763.212 517.08 762.547 517.864 761.678 518.324C760.792 518.784 759.786 518.869 758.849 518.545C757.912 518.222 757.145 517.557 756.702 516.654C756.259 515.751 756.173 514.712 756.48 513.758C756.787 512.787 757.451 512.004 758.321 511.544C758.849 511.271 759.411 511.135 759.991 511.135C760.383 511.135 760.775 511.203 761.15 511.322ZM496.401 321.604C498.02 320.769 499.213 319.321 499.776 317.566C500.934 313.921 498.991 309.986 495.43 308.793C493.708 308.214 491.868 308.367 490.249 309.202C488.63 310.037 487.437 311.485 486.875 313.239C486.312 315.011 486.449 316.885 487.267 318.554C488.085 320.207 489.482 321.45 491.22 322.03C491.919 322.268 492.635 322.37 493.334 322.37C494.39 322.37 495.43 322.115 496.401 321.621V321.604ZM494.475 311.791C496.418 312.439 497.475 314.585 496.844 316.578C496.537 317.549 495.873 318.333 495.004 318.793C494.117 319.253 493.112 319.338 492.175 319.014C491.237 318.708 490.47 318.026 490.027 317.123C489.584 316.221 489.499 315.181 489.806 314.227C490.113 313.256 490.777 312.473 491.646 312.013C492.175 311.74 492.737 311.604 493.317 311.604C493.708 311.604 494.1 311.672 494.475 311.791ZM617.638 269.834C619.257 269 620.45 267.552 621.013 265.797C622.171 262.152 620.229 258.216 616.667 257.024C614.946 256.445 613.105 256.598 611.486 257.433C609.867 258.268 608.674 259.715 608.112 261.47C607.549 263.242 607.686 265.116 608.504 266.785C609.322 268.437 610.719 269.681 612.458 270.26C613.156 270.499 613.872 270.601 614.571 270.601C615.628 270.601 616.667 270.345 617.638 269.851V269.834ZM615.713 260.005C617.655 260.652 618.712 262.799 618.081 264.792C617.775 265.763 617.11 266.547 616.241 267.006C615.355 267.466 614.349 267.552 613.412 267.228C612.475 266.921 611.708 266.24 611.265 265.337C610.822 264.434 610.736 263.395 611.043 262.441C611.35 261.47 612.015 260.687 612.884 260.227C613.412 259.954 613.974 259.818 614.554 259.818C614.946 259.818 615.338 259.886 615.713 260.005Z" fill="url(#paint0_radial_359_129)" fill-opacity="0.8"/>
<defs>
<radialGradient id="paint0_radial_359_129" cx="0" cy="0" r="1" gradientUnits="userSpaceOnUse" gradientTransform="translate(124.068 475.972) rotate(0.40983) scale(1008.87 716.003)">
<stop offset="0.21" stop-color="#FFF3E3"/>
<stop offset="0.23" stop-color="#EDEBDC" stop-opacity="0.98"/>
<stop offset="0.28" stop-color="#C1D6CC" stop-opacity="0.93"/>
<stop offset="0.34" stop-color="#78B5B3" stop-opacity="0.84"/>
<stop offset="0.41" stop-color="#168890" stop-opacity="0.72"/>
<stop offset="0.43" stop-color="#027F89" stop-opacity="0.7"/>
<stop offset="0.58" stop-color="#053942" stop-opacity="0.5"/>
<stop offset="0.77" stop-opacity="0.4"/>
</radialGradient>
</defs>
</svg>
