<svg width="80" height="30" viewBox="0 0 80 30" fill="none" xmlns="http://www.w3.org/2000/svg">
<g clip-path="url(#clip0_141_919)">
<path d="M30.244 10.1259V22.0339C30.244 22.8007 29.9057 23.1691 28.8983 23.1691C28.7555 23.1691 28.6277 23.1616 28.4473 23.1465V25.9281C28.733 25.9581 28.9284 25.9506 29.1238 25.9581C32.0708 26.0483 33.9201 24.9658 33.9201 22.1091V10.1259H30.244ZM32.0783 8.78029C33.1232 8.78029 33.9653 7.99092 33.9653 7.02114C33.9653 6.05137 33.1232 5.26953 32.0783 5.26953C31.0409 5.26953 30.1914 6.05137 30.1914 7.02114C30.1914 7.99092 31.0409 8.78029 32.0783 8.78029ZM36.26 21.6731H39.9361V10.1259H36.26V21.6731ZM38.1018 8.78029C39.1467 8.78029 39.9887 7.99092 39.9887 7.02114C39.9887 6.05137 39.1467 5.26953 38.1018 5.26953C37.0644 5.26953 36.2149 6.05137 36.2149 7.02114C36.2149 7.99092 37.0644 8.78029 38.1018 8.78029ZM48.7938 10.1259H46.7114V7.35944H43.0352V10.1259H41.5092V12.8323H43.0352V18.448C43.0127 20.786 44.5313 21.9587 47.1249 21.8384C48.0119 21.7934 48.6509 21.6129 49.0043 21.5077L48.448 18.8539C48.2901 18.8915 47.9217 18.9667 47.6436 18.9667C47.0497 18.9667 46.7114 18.7261 46.7114 18.042V12.8323H48.7938V10.1259ZM57.1873 10.1259H55.1048V7.35944H51.4287V10.1259H49.9026V12.8323H51.4287V18.448C51.4062 20.786 52.9247 21.9587 55.5181 21.8384C56.4057 21.7934 57.0445 21.6129 57.398 21.5077L56.8412 18.8539C56.6835 18.8915 56.3152 18.9667 56.0373 18.9667C55.443 18.9667 55.1048 18.7261 55.1048 18.042V12.8323H57.1873V10.1259ZM64.3364 21.8911C67.3663 21.8911 69.3583 20.4251 69.7791 18.1548L66.4041 18.0571C66.1183 18.8239 65.3663 19.2373 64.4041 19.2373C62.991 19.2373 62.1188 18.2977 62.1188 16.8843V16.7866H69.8167V15.8694C69.8167 12.0655 67.5012 9.97559 64.2236 9.97559C60.7354 9.97559 58.4951 12.3662 58.4951 15.9446C58.4951 19.6433 60.7058 21.8911 64.3364 21.8911ZM62.1188 14.6516C62.1712 13.5014 63.081 12.6293 64.2988 12.6293C65.5092 12.6293 66.3813 13.4713 66.3962 14.6516H62.1188ZM71.6944 21.6731H75.3705V15.4033C75.3705 14.0276 76.348 13.1029 77.6632 13.1029C78.0993 13.1029 78.7534 13.1781 79.107 13.2984V10.1034C78.7984 10.0207 78.4153 9.96807 78.0771 9.96807C76.8138 9.96807 75.8066 10.7048 75.3853 12.2309H75.2652V10.1259H71.6944V21.6731Z" fill="white"/>
<path d="M12.1428 26.438C18.5733 26.438 23.7862 21.2252 23.7862 14.7947C23.7862 8.36427 18.5733 3.15137 12.1428 3.15137C5.71241 3.15137 0.499512 8.36427 0.499512 14.7947C0.499512 21.2252 5.71241 26.438 12.1428 26.438Z" fill="white"/>
</g>
<defs>
<clipPath id="clip0_141_919">
<rect width="78.9007" height="29.5878" fill="white" transform="translate(0.499512)"/>
</clipPath>
</defs>
</svg>
