<svg width="135" height="30" viewBox="0 0 135 30" fill="none" xmlns="http://www.w3.org/2000/svg">
<g clip-path="url(#clip0_141_906)">
<path d="M21.01 14.9015C21.01 20.4438 16.5491 24.9587 11.0068 24.9587C5.46454 24.9587 1.00366 20.4438 1.00366 14.9015C1.00366 9.35916 5.46454 4.84422 11.0068 4.84422C16.5491 4.84422 21.01 9.35916 21.01 14.9015ZM31.9865 14.9015C31.9865 20.1193 29.7425 24.3639 26.9849 24.3639C24.2272 24.3639 21.9833 20.1193 21.9833 14.9015C21.9833 9.68359 24.2272 5.439 26.9849 5.439C29.7425 5.439 31.9865 9.68359 31.9865 14.9015ZM36.4744 14.9015C36.4744 19.5786 35.6904 23.3906 34.7171 23.3906C33.7438 23.3906 32.9598 19.5786 32.9598 14.9015C32.9598 10.2243 33.7438 6.41228 34.7171 6.41228C35.6904 6.41228 36.4744 10.2243 36.4744 14.9015ZM64.0237 5.70935H64.0507V5.49307H58.3732L53.1013 17.9024L47.8293 5.49307H41.7193V5.70935H41.7463C42.7737 5.95267 43.3144 6.30414 43.3144 7.54777V22.2822C43.3144 23.5528 42.7737 23.8773 41.7463 24.1206H41.7193V24.3369H45.8828V24.1206H45.8558C44.8284 23.8773 44.2877 23.5258 44.2877 22.2822V8.38588L51.0736 24.3369H51.4521L58.4273 7.95331V22.6336C58.3462 23.634 57.8055 23.9313 56.8863 24.1476H56.8592V24.3639H64.1048V24.1476H64.0777C63.1315 23.9313 62.5908 23.634 62.5097 22.6336V7.52074C62.4826 6.30414 62.9963 5.95267 64.0237 5.70935ZM67.3491 15.4692C67.4572 12.8197 68.4305 10.9002 70.0256 10.8732C70.5122 10.8732 70.9178 11.0354 71.2422 11.3598C71.9181 12.0086 72.2425 13.4145 72.1884 15.4692H67.3491ZM67.2679 16.2262H75.7571V16.1992C75.7301 14.1715 75.1353 12.6034 74.0268 11.522C73.0536 10.5758 71.5936 10.0621 70.0796 10.0621H70.0526C69.2686 10.0621 68.2953 10.2513 67.6194 10.6028C66.8354 10.9543 66.1324 11.522 65.5647 12.2249C64.6455 13.3604 64.0777 14.9285 63.9426 16.6588C63.9426 16.7128 63.9426 16.7669 63.9426 16.821C63.9426 16.8751 63.9426 16.9291 63.9426 16.9832C63.9426 17.2265 63.9155 17.4698 63.9426 17.7132C64.0237 21.6604 66.1595 24.8235 69.9445 24.8235C73.2698 24.8235 75.2164 22.3903 75.676 19.119L75.4327 19.0379C74.5946 20.7952 73.0536 21.8496 71.3233 21.7144C68.9171 21.5252 67.1057 19.119 67.2679 16.2262ZM85.3277 21.5793C85.0574 22.2281 84.4626 22.6066 83.6786 22.6066C82.8945 22.6066 82.1916 22.0659 81.6779 21.0926C81.1372 20.0382 80.8398 18.5783 80.8398 16.848C80.8398 13.2252 81.9753 10.8732 83.7056 10.8732C84.4355 10.8732 85.0033 11.2246 85.3007 11.8735V21.5793H85.3277ZM90.9782 24.1747C89.9508 23.9313 89.4101 23.5528 89.4101 22.2281V4.62793L83.1108 6.49339V6.70967H83.1378C84.003 6.62857 84.5978 6.76374 84.9492 7.08817C85.2196 7.33149 85.3548 7.70999 85.3548 8.2507V10.6569C84.7329 10.2513 84.003 10.0621 83.1108 10.0621C81.2994 10.0621 79.6232 10.8191 78.4336 12.2249C77.19 13.6849 76.5141 15.6585 76.5141 17.9565C76.5141 22.0659 78.5418 24.8235 81.5427 24.8235C83.3 24.8235 84.7059 23.8502 85.3548 22.2281V24.418H91.0052V24.2017L90.9782 24.1747ZM96.3583 7.00706C96.3583 5.73639 95.385 4.76311 94.1143 4.76311C92.8436 4.76311 91.8433 5.76343 91.8433 7.00706C91.8433 8.27773 92.8436 9.25102 94.1143 9.25102C95.412 9.27805 96.3583 8.30477 96.3583 7.00706ZM97.8452 24.1747C96.8179 23.9313 96.2771 23.5528 96.2771 22.2281V10.0891L90.6267 11.7113V11.9275H90.6537C91.8703 12.0357 92.2218 12.4683 92.2218 13.8741V24.3639H97.8722V24.1476L97.8452 24.1747ZM112.336 24.1747C111.309 23.9313 110.768 23.5528 110.768 22.2281V10.0891L105.388 11.6572V11.8735H105.415C106.415 11.9816 106.713 12.4142 106.713 13.8471V21.5522C106.388 22.2011 105.767 22.6066 104.983 22.6336C103.766 22.6336 103.09 21.7955 103.09 20.3086V10.1162L97.4397 11.7383V11.9546H97.4667C98.6833 12.0627 99.0348 12.4953 99.0348 13.9011V20.3897C99.0348 20.8493 99.0618 21.2819 99.1429 21.7415L99.2511 22.174C99.7377 23.8773 100.981 24.7965 102.955 24.7965C104.631 24.7965 106.091 23.7691 106.713 22.147V24.391H112.363L112.336 24.1747ZM134.316 24.391V24.1747H134.289C133.154 23.9043 132.721 23.4177 132.721 22.4174V14.1715C132.721 11.6031 131.288 10.0621 128.855 10.0621C127.098 10.0621 125.611 11.0894 125.043 12.6575C124.583 10.9813 123.286 10.0621 121.339 10.0621C119.636 10.0621 118.311 10.9543 117.743 12.4683V10.0891L112.093 11.6572V11.8735H112.12C113.337 11.9816 113.688 12.4142 113.688 13.82V24.391H118.96V24.1747H118.933C118.041 23.9584 117.743 23.5799 117.743 22.5796V13.1171C117.987 12.5494 118.446 11.9005 119.393 11.9005C120.555 11.9005 121.177 12.7116 121.177 14.3067V24.3639H126.449V24.1476H126.422C125.53 23.9313 125.232 23.5528 125.232 22.5525V14.1445C125.232 13.82 125.205 13.5226 125.151 13.1982C125.394 12.6034 125.908 11.8735 126.881 11.8735C128.071 11.8735 128.666 12.6575 128.666 14.2796V24.3369H134.316V24.391Z" fill="white"/>
</g>
<defs>
<clipPath id="clip0_141_906">
<rect width="133.967" height="29.5878" fill="white" transform="translate(0.583984)"/>
</clipPath>
</defs>
</svg>
