<svg width="145" height="27" viewBox="0 0 145 27" fill="none" xmlns="http://www.w3.org/2000/svg">
<path d="M3.19651 21.4312C2.66414 21.4324 2.14099 21.2922 1.68053 21.025C1.22007 20.7578 0.838783 20.3732 0.575632 19.9104C0.316511 19.4509 0.18728 18.9295 0.201783 18.4022C0.216286 17.8748 0.373977 17.3614 0.657964 16.9168L6.05524 8.44122C6.33149 7.9857 6.72367 7.61168 7.19175 7.35734C7.65986 7.103 8.18708 6.97747 8.71955 6.99356C9.25165 7.00631 9.77078 7.16021 10.2239 7.43949C10.6769 7.71877 11.0477 8.11339 11.2981 8.58302C11.8013 9.53441 11.7384 10.679 11.1358 11.5721L5.74193 20.0476C5.46837 20.4739 5.09169 20.8241 4.64672 21.066C4.20175 21.3079 3.70295 21.4335 3.19651 21.4312Z" fill="white"/>
<path d="M12.4542 21.4309C11.3656 21.4309 10.3639 20.8489 9.83794 19.9135C9.57939 19.4552 9.45046 18.9352 9.46497 18.4092C9.47945 17.8833 9.63685 17.3712 9.92027 16.9278L15.3072 8.47173C15.5794 8.0098 15.9702 7.62913 16.4391 7.36916C16.908 7.10916 17.4379 6.97936 17.9738 6.99319C19.0716 7.0172 20.0664 7.63126 20.5696 8.59181C21.0693 9.55233 20.9961 10.7038 20.3752 11.5946L14.9893 20.0507C14.7167 20.4751 14.3415 20.824 13.8984 21.0652C13.4554 21.3065 12.9587 21.4322 12.4542 21.4309Z" fill="white"/>
<path d="M21.5047 21.5022C23.0394 21.5022 24.2834 20.2843 24.2834 18.7819C24.2834 17.2795 23.0394 16.0615 21.5047 16.0615C19.9701 16.0615 18.7261 17.2795 18.7261 18.7819C18.7261 20.2843 19.9701 21.5022 21.5047 21.5022Z" fill="white"/>
<path d="M142.219 16.2191C143.058 16.2191 143.56 16.816 143.56 17.7936V21.1441H144.7V17.717C144.7 16.0544 143.917 15.0904 142.444 15.0904C141.867 15.0904 140.952 15.2482 140.407 16.3083C140.28 15.9956 140.071 15.7231 139.802 15.5198C139.533 15.3164 139.214 15.1898 138.878 15.1533C138.667 15.1147 138.452 15.102 138.238 15.1156C137.769 15.1533 136.934 15.4449 136.622 16.1058V15.2174H135.481V21.1441H136.622V17.9457C136.622 16.7016 137.436 16.2191 138.252 16.2191C139.016 16.2191 139.517 16.8034 139.517 17.7811V21.1441H140.652V17.9457C140.652 16.9555 141.246 16.2076 142.219 16.2191ZM131.293 20.1538C131.814 20.1652 132.317 19.9571 132.682 19.5798C133.048 19.2024 133.242 18.689 133.223 18.1618C133.223 16.968 132.345 16.2191 131.293 16.2191C130.239 16.2191 129.362 16.968 129.362 18.1618C129.342 18.6878 129.536 19.2001 129.9 19.5763C130.263 19.9537 130.764 20.163 131.283 20.1538H131.293ZM131.293 21.2653C129.625 21.2653 128.234 20.0337 128.234 18.155C128.234 16.2762 129.625 15.0836 131.293 15.0836C132.96 15.0836 134.363 16.2762 134.363 18.155C134.363 20.0337 132.952 21.271 131.284 21.271L131.293 21.2653ZM122.362 18.155L122.35 18.1618C122.35 16.2831 123.778 15.0904 125.457 15.0836C125.879 15.0754 126.298 15.1559 126.686 15.3198C127.075 15.4836 127.425 15.7273 127.713 16.035L126.849 16.7714C126.665 16.5911 126.448 16.4489 126.209 16.3531C125.97 16.2574 125.714 16.2098 125.457 16.2133C124.405 16.2133 123.49 16.9623 123.49 18.155C123.49 18.9612 123.97 19.6873 124.705 19.996C125.44 20.3048 126.286 20.1332 126.849 19.5638L127.726 20.3002C127.436 20.611 127.085 20.8575 126.694 21.0238C126.303 21.19 125.882 21.2723 125.457 21.2653C123.791 21.2653 122.362 20.0337 122.362 18.155ZM118.711 20.0063C118.709 19.9027 118.729 19.7999 118.767 19.7037C118.806 19.6075 118.863 19.5198 118.935 19.4457C119.008 19.3716 119.094 19.3124 119.189 19.2717C119.284 19.2309 119.387 19.2093 119.491 19.2081C119.594 19.2093 119.697 19.2309 119.792 19.2717C119.887 19.3124 119.973 19.3716 120.046 19.4457C120.118 19.5198 120.175 19.6075 120.214 19.7037C120.252 19.7999 120.271 19.9027 120.27 20.0063C120.26 20.207 120.174 20.3962 120.029 20.5354C119.884 20.6746 119.691 20.7532 119.491 20.7553C119.289 20.7532 119.097 20.6746 118.952 20.5354C118.807 20.3962 118.721 20.207 118.711 20.0063Z" fill="white"/>
<path fill-rule="evenodd" clip-rule="evenodd" d="M121.83 7.68286H117.77L114.924 15.0206L112.092 7.68286H108.032L112.968 19.2778L109.898 26.9438H113.929L121.83 7.68286ZM97.1356 14.1321C97.1356 15.9846 98.7548 17.2035 100.345 17.2035C101.908 17.2035 103.444 16.0692 103.444 14.131C103.444 12.1928 101.908 11.0573 100.345 11.0573C98.7548 11.0573 97.1356 12.2774 97.1356 14.131V14.1321ZM103.444 20.6066V19.1395C102.621 20.3859 100.7 20.857 99.7139 20.857C96.4505 20.857 93.1859 18.2841 93.1859 14.131C93.1859 9.97899 96.4493 7.40615 99.7139 7.40615C100.536 7.40615 102.457 7.68057 103.444 9.12139V7.68744H107.229V20.6089L103.444 20.6077V20.6066ZM92.1088 20.6066H88.3238V19.0011C87.6913 20.1904 86.1579 20.8833 84.5662 20.8833C81.2741 20.8833 78.3662 18.2544 78.3662 14.1836C78.3662 10.0362 81.2741 7.40386 84.5662 7.40386C86.1557 7.40386 87.6938 8.06709 88.3238 9.25744V0.643555H92.1088V20.6066ZM88.2415 14.1024C88.2415 12.1653 86.8429 11.0299 85.2797 11.0299C83.6606 11.0299 82.3159 12.2477 82.3159 14.1024C82.3159 16.0166 83.6606 17.2287 85.2785 17.2287C86.8717 17.231 88.2415 15.9572 88.2415 14.1024ZM69.0079 13.7685C69.0079 11.804 70.0234 11.1396 71.3669 11.1396C72.6556 11.1396 73.5888 11.9972 73.5888 13.7125V20.6043H77.4011V12.8835C77.4011 9.20372 75.5898 7.40386 72.7095 7.40386C71.2011 7.40386 69.693 8.26146 69.0067 9.56277V7.68286H65.1966V20.6043H69.0079V13.7685ZM57.4553 20.8261C53.8349 20.8261 50.815 18.1698 50.815 14.1013C50.815 10.0304 53.8315 7.40042 57.4553 7.40042C61.0789 7.40042 64.122 10.0304 64.122 14.1013C64.122 18.1721 61.0755 20.8273 57.4553 20.8273V20.8261ZM57.4553 17.0641C59.0448 17.0641 60.3632 15.9 60.3632 14.1024C60.3632 12.3586 59.046 11.1682 57.4553 11.1682C57.0723 11.1622 56.692 11.2343 56.3377 11.3799C55.9835 11.5256 55.6626 11.7419 55.3946 12.0156C55.1251 12.2907 54.9138 12.6172 54.7727 12.9757C54.6319 13.3342 54.5648 13.7174 54.575 14.1024C54.5759 15.9023 55.8922 17.0641 57.4553 17.0641ZM43.9803 11.1408C45.1044 11.1408 46.0924 12.027 46.0924 13.7136V20.6066H49.8775V13.2677C49.8775 9.36607 47.9804 7.40157 44.9398 7.40157C44.0363 7.40157 42.3349 7.67602 41.1 9.6977C40.3865 8.20317 39.0155 7.42787 36.9891 7.42787C36.2855 7.42428 35.5961 7.62339 35.0027 8.00137C34.4092 8.37938 33.9374 8.92024 33.6434 9.55933V7.684H29.8286V20.6054H33.64V13.7685C33.64 11.804 34.7103 11.1396 35.8616 11.1396C36.9594 11.1396 37.9452 11.9972 37.9737 13.6301V20.6054H41.786V13.7685C41.786 11.8898 42.7739 11.1419 43.9803 11.1419V11.1408Z" fill="white"/>
</svg>
