<svg width="125" height="30" viewBox="0 0 125 30" fill="none" xmlns="http://www.w3.org/2000/svg">
<g clip-path="url(#clip0_141_905)">
<path d="M18.3172 2.18987C18.059 1.76129 17.6944 1.40674 17.2587 1.16061C16.8231 0.914494 16.3312 0.785156 15.8308 0.785156C15.3305 0.785156 14.8386 0.914494 14.4029 1.16061C13.9673 1.40674 13.6027 1.76129 13.3445 2.18987L9.25431 9.1953C12.379 10.7553 15.0413 13.1056 16.9768 16.0126C18.9123 18.9197 20.0537 22.2825 20.2877 25.7671H17.4159C17.1823 22.7802 16.1729 19.906 14.4874 17.4289C12.8019 14.9519 10.4988 12.958 7.80598 11.6444L4.02043 18.1898C5.53424 18.8688 6.85306 19.9174 7.85559 21.2393C8.85816 22.5612 9.51229 24.1139 9.75782 25.7547H3.16264C3.08442 25.7492 3.00881 25.7242 2.94263 25.6822C2.87644 25.6401 2.82177 25.5823 2.78353 25.5138C2.74529 25.4454 2.7247 25.3685 2.7236 25.2901C2.7225 25.2117 2.74094 25.1342 2.77724 25.0647L4.60474 21.9567C3.98559 21.4402 3.27798 21.04 2.51617 20.7757L0.707318 23.8837C0.51901 24.2067 0.396756 24.5639 0.34767 24.9345C0.298583 25.3052 0.323636 25.6819 0.421374 26.0428C0.519116 26.4037 0.687591 26.7415 0.917018 27.0368C1.14645 27.332 1.43225 27.5787 1.75782 27.7625C2.18679 28.0042 2.67028 28.1325 3.16264 28.1354H12.1945C12.3622 26.0655 11.9926 23.9874 11.1214 22.1023C10.2502 20.2172 8.90687 18.5891 7.22168 17.3755L8.65759 14.8891C10.7843 16.3499 12.4934 18.3399 13.6162 20.6629C14.739 22.9858 15.2367 25.5614 15.06 28.1354H22.7119C22.8901 24.2361 22.0418 20.3583 20.2518 16.8896C18.4618 13.4208 15.7928 10.4826 12.5115 8.36857L15.4144 3.39577C15.4791 3.28739 15.5839 3.20895 15.7062 3.17752C15.8284 3.14608 15.9581 3.16421 16.067 3.22794C16.3965 3.4082 28.6793 24.8409 28.9093 25.0896C28.9498 25.1622 28.9704 25.2443 28.969 25.3275C28.9677 25.4107 28.9444 25.492 28.9015 25.5633C28.8586 25.6346 28.7976 25.6932 28.7248 25.7334C28.6519 25.7735 28.5698 25.7938 28.4866 25.792H25.5278C25.5651 26.5835 25.5651 27.3729 25.5278 28.1603H28.499C28.8763 28.1628 29.2503 28.0904 29.5995 27.9473C29.9486 27.8042 30.2659 27.5934 30.533 27.3269C30.8001 27.0603 31.0117 26.7435 31.1554 26.3947C31.2993 26.0459 31.3725 25.672 31.3708 25.2947C31.3712 24.7964 31.2381 24.307 30.9854 23.8775L18.3172 2.18987ZM77.5681 18.3639L68.3932 6.5162H66.1059V22.398H68.4242V10.2272L77.8603 22.398H79.8868V6.5162H77.5681V18.3639ZM54.4633 15.4175H62.6871V13.3538H54.457V8.5737H63.7376V6.50999H52.0949V22.398H63.8555V20.3344H54.457L54.4633 15.4175ZM44.7912 13.4035C41.59 12.6327 40.6948 12.0236 40.6948 10.5442C40.6948 9.21393 41.8695 8.31262 43.6227 8.31262C45.219 8.35936 46.7586 8.91472 48.0172 9.8977L49.2605 8.13857C47.667 6.88947 45.6902 6.23055 43.6662 6.27377C40.5209 6.27377 38.3265 8.13857 38.3265 10.7928C38.3265 13.6522 40.1915 14.6405 43.5851 15.4672C46.6062 16.1634 47.5325 16.8099 47.5325 18.2582C47.5325 19.7065 46.2891 20.6016 44.3686 20.6016C42.4563 20.5929 40.6161 19.8702 39.2093 18.5752L37.8107 20.2473C39.6129 21.7959 41.9116 22.6452 44.2875 22.6405C47.6939 22.6405 49.8822 20.8068 49.8822 17.9723C49.8635 15.5729 48.446 14.2862 44.7912 13.4035ZM121.938 6.5162L117.158 13.9754L112.409 6.5162H109.636L115.908 16.1199V22.4043H118.295V16.0453L124.611 6.5162H121.938ZM81.7639 8.66692H86.9666V22.4043H89.3536V8.66692H94.5563V6.5162H81.7701L81.7639 8.66692ZM105.596 16.2007C107.995 15.5356 109.326 13.8573 109.326 11.4579C109.326 8.40587 107.094 6.48511 103.495 6.48511H96.4338V22.3918H98.7956V16.6856H102.805L106.833 22.4043H109.593L105.242 16.3002L105.596 16.2007ZM98.7894 14.6467V8.61721H103.246C105.571 8.61721 106.901 9.71744 106.901 11.6257C106.901 13.5341 105.478 14.6467 103.271 14.6467H98.7894Z" fill="white"/>
</g>
<defs>
<clipPath id="clip0_141_905">
<rect width="124.926" height="29.5878" fill="white" transform="translate(0.0078125)"/>
</clipPath>
</defs>
</svg>
